  0
SECTION
  2
HEADER
  9
$ACADVER
  1
AC1015
  9
$ACADMAINTVER
 70
     6
  9
$DWGCODEPAGE
  3
ANSI_1252
  9
$INSBASE
 10
0.0
 20
0.0
 30
0.0
  9
$EXTMIN
 10
-135.0
 20
-135.0
 30
0.0
  9
$EXTMAX
 10
135.0
 20
135.0
 30
0.0
  9
$LIMMIN
 10
0.0
 20
0.0
  9
$LIMMAX
 10
420.0
 20
297.0
  9
$ORTHOMODE
 70
     0
  9
$REGENMODE
 70
     1
  9
$FILLMODE
 70
     1
  9
$QTEXTMODE
 70
     0
  9
$MIRRTEXT
 70
     1
  9
$LTSCALE
 40
1.0
  9
$ATTMODE
 70
     1
  9
$TEXTSIZE
 40
3.5
  9
$TRACEWID
 40
1.0
  9
$TEXTSTYLE
  7
Standard
  9
$CLAYER
  8
0
  9
$CELTYPE
  6
ByLayer
  9
$CECOLOR
 62
   256
  9
$CELTSCALE
 40
1.0
  9
$DISPSILH
 70
     0
  9
$DIMSCALE
 40
1.0
  9
$DIMASZ
 40
3.302
  9
$DIMEXO
 40
0.0
  9
$DIMDLI
 40
3.75
  9
$DIMRND
 40
0.0
  9
$DIMDLE
 40
0.0
  9
$DIMEXE
 40
1.0
  9
$DIMTP
 40
0.0
  9
$DIMTM
 40
0.0
  9
$DIMTXT
 40
3.5
  9
$DIMCEN
 40
2.5
  9
$DIMTSZ
 40
0.0
  9
$DIMTOL
 70
     0
  9
$DIMLIM
 70
     0
  9
$DIMTIH
 70
     1
  9
$DIMTOH
 70
     1
  9
$DIMSE1
 70
     0
  9
$DIMSE2
 70
     0
  9
$DIMTAD
 70
     1
  9
$DIMZIN
 70
     1
  9
$DIMBLK
  1

  9
$DIMASO
 70
     1
  9
$DIMSHO
 70
     1
  9
$DIMPOST
  1

  9
$DIMAPOST
  1

  9
$DIMALT
 70
     0
  9
$DIMALTD
 70
     3
  9
$DIMALTF
 40
0.0393700787
  9
$DIMLFAC
 40
1.0
  9
$DIMTOFL
 70
     1
  9
$DIMTVP
 40
0.0
  9
$DIMTIX
 70
     0
  9
$DIMSOXD
 70
     0
  9
$DIMSAH
 70
     0
  9
$DIMBLK1
  1

  9
$DIMBLK2
  1

  9
$DIMSTYLE
  2
ISO-25
  9
$DIMCLRD
 70
     0
  9
$DIMCLRE
 70
     0
  9
$DIMCLRT
 70
     0
  9
$DIMTFAC
 40
1.0
  9
$DIMGAP
 40
1.524
  9
$DIMJUST
 70
     0
  9
$DIMSD1
 70
     0
  9
$DIMSD2
 70
     0
  9
$DIMTOLJ
 70
     0
  9
$DIMTZIN
 70
     1
  9
$DIMALTZ
 70
     0
  9
$DIMALTTZ
 70
     0
  9
$DIMUPT
 70
     0
  9
$DIMDEC
 70
     2
  9
$DIMTDEC
 70
     2
  9
$DIMALTU
 70
     2
  9
$DIMALTTD
 70
     3
  9
$DIMTXSTY
  7
Standard
  9
$DIMAUNIT
 70
     0
  9
$DIMADEC
 70
     2
  9
$DIMALTRND
 40
0.0
  9
$DIMAZIN
 70
     0
  9
$DIMDSEP
 70
    44
  9
$DIMATFIT
 70
     3
  9
$DIMFRAC
 70
     0
  9
$DIMLDRBLK
  1

  9
$DIMLUNIT
 70
     2
  9
$DIMLWD
 70
    -2
  9
$DIMLWE
 70
    -2
  9
$DIMTMOVE
 70
     0
  9
$LUNITS
 70
     2
  9
$LUPREC
 70
     6
  9
$SKETCHINC
 40
1.0
  9
$FILLETRAD
 40
0.0
  9
$AUNITS
 70
     0
  9
$AUPREC
 70
     2
  9
$MENU
  1
.
  9
$ELEVATION
 40
0.0
  9
$PELEVATION
 40
0.0
  9
$THICKNESS
 40
0.0
  9
$LIMCHECK
 70
     0
  9
$CHAMFERA
 40
0.0
  9
$CHAMFERB
 40
0.0
  9
$CHAMFERC
 40
0.0
  9
$CHAMFERD
 40
0.0
  9
$SKPOLY
 70
     0
  9
$TDCREATE
 40
2460717.576269815
  9
$TDUCREATE
 40
2460717.784603148
  9
$TDUPDATE
 40
2460717.576494398
  9
$TDUUPDATE
 40
2460717.784827732
  9
$TDINDWG
 40
0.0000000116
  9
$TDUSRTIMER
 40
0.0000000116
  9
$USRTIMER
 70
     1
  9
$ANGBASE
 50
0.0
  9
$ANGDIR
 70
     0
  9
$PDMODE
 70
     0
  9
$PDSIZE
 40
-1.0
  9
$PLINEWID
 40
0.0
  9
$SPLFRAME
 70
     0
  9
$SPLINETYPE
 70
     6
  9
$SPLINESEGS
 70
     8
  9
$HANDSEED
  5
1BC
  9
$SURFTAB1
 70
     6
  9
$SURFTAB2
 70
     6
  9
$SURFTYPE
 70
     6
  9
$SURFU
 70
     6
  9
$SURFV
 70
     6
  9
$UCSBASE
  2

  9
$UCSNAME
  2

  9
$UCSORG
 10
0.0
 20
0.0
 30
0.0
  9
$UCSXDIR
 10
1.0
 20
0.0
 30
0.0
  9
$UCSYDIR
 10
0.0
 20
1.0
 30
0.0
  9
$UCSORTHOREF
  2

  9
$UCSORTHOVIEW
 70
     0
  9
$UCSORGTOP
 10
0.0
 20
0.0
 30
0.0
  9
$UCSORGBOTTOM
 10
0.0
 20
0.0
 30
0.0
  9
$UCSORGLEFT
 10
0.0
 20
0.0
 30
0.0
  9
$UCSORGRIGHT
 10
0.0
 20
0.0
 30
0.0
  9
$UCSORGFRONT
 10
0.0
 20
0.0
 30
0.0
  9
$UCSORGBACK
 10
0.0
 20
0.0
 30
0.0
  9
$PUCSBASE
  2

  9
$PUCSNAME
  2

  9
$PUCSORG
 10
0.0
 20
0.0
 30
0.0
  9
$PUCSXDIR
 10
1.0
 20
0.0
 30
0.0
  9
$PUCSYDIR
 10
0.0
 20
1.0
 30
0.0
  9
$PUCSORTHOREF
  2

  9
$PUCSORTHOVIEW
 70
     0
  9
$PUCSORGTOP
 10
0.0
 20
0.0
 30
0.0
  9
$PUCSORGBOTTOM
 10
0.0
 20
0.0
 30
0.0
  9
$PUCSORGLEFT
 10
0.0
 20
0.0
 30
0.0
  9
$PUCSORGRIGHT
 10
0.0
 20
0.0
 30
0.0
  9
$PUCSORGFRONT
 10
0.0
 20
0.0
 30
0.0
  9
$PUCSORGBACK
 10
0.0
 20
0.0
 30
0.0
  9
$USERI1
 70
     0
  9
$USERI2
 70
     0
  9
$USERI3
 70
     0
  9
$USERI4
 70
     0
  9
$USERI5
 70
     0
  9
$USERR1
 40
0.0
  9
$USERR2
 40
0.0
  9
$USERR3
 40
0.0
  9
$USERR4
 40
0.0
  9
$USERR5
 40
0.0
  9
$WORLDVIEW
 70
     1
  9
$SHADEDGE
 70
     3
  9
$SHADEDIF
 70
    70
  9
$TILEMODE
 70
     1
  9
$MAXACTVP
 70
    64
  9
$PINSBASE
 10
0.0
 20
0.0
 30
0.0
  9
$PLIMCHECK
 70
     0
  9
$PEXTMIN
 10
1.0000000000E+20
 20
1.0000000000E+20
 30
1.0000000000E+20
  9
$PEXTMAX
 10
-1.0000000000E+20
 20
-1.0000000000E+20
 30
-1.0000000000E+20
  9
$PLIMMIN
 10
0.0
 20
0.0
  9
$PLIMMAX
 10
420.0
 20
297.0
  9
$UNITMODE
 70
     0
  9
$VISRETAIN
 70
     1
  9
$PLINEGEN
 70
     0
  9
$PSLTSCALE
 70
     1
  9
$TREEDEPTH
 70
  3020
  9
$CMLSTYLE
  2
Standard
  9
$CMLJUST
 70
     0
  9
$CMLSCALE
 40
20.0
  9
$PROXYGRAPHICS
 70
     1
  9
$MEASUREMENT
 70
     1
  9
$CELWEIGHT
370
    -1
  9
$ENDCAPS
280
     0
  9
$JOINSTYLE
280
     0
  9
$LWDISPLAY
290
     1
  9
$INSUNITS
 70
     4
  9
$HYPERLINKBASE
  1

  9
$STYLESHEET
  1

  9
$XEDIT
290
     1
  9
$CEPSNTYPE
380
     0
  9
$PSTYLEMODE
290
     1
  9
$FINGERPRINTGUID
  2
{efe9cd44-2626-4788-8db9-adbd2ff078a9}
  9
$VERSIONGUID
  2
{FAEB1C32-E019-11D5-929B-00C0DF256EC4}
  9
$EXTNAMES
290
     1
  9
$PSVPSCALE
 40
0.0
  9
$OLESTARTUP
290
     0
  0
ENDSEC
  0
SECTION
  2
CLASSES
  0
CLASS
  1
ACDBDICTIONARYWDFLT
  2
AcDbDictionaryWithDefault
  3
ObjectDBX Classes
 90
        0
280
     0
281
     0
  0
CLASS
  1
VISUALSTYLE
  2
AcDbVisualStyle
  3
ObjectDBX Classes
 90
     4095
280
     0
281
     0
  0
CLASS
  1
MATERIAL
  2
AcDbMaterial
  3
ObjectDBX Classes
 90
     1153
280
     0
281
     0
  0
CLASS
  1
SCALE
  2
AcDbScale
  3
ObjectDBX Classes
 90
     1153
280
     0
281
     0
  0
CLASS
  1
TABLESTYLE
  2
AcDbTableStyle
  3
ObjectDBX Classes
 90
     4095
280
     0
281
     0
  0
CLASS
  1
MLEADERSTYLE
  2
AcDbMLeaderStyle
  3
ACDB_MLEADERSTYLE_CLASS
 90
     4095
280
     0
281
     0
  0
CLASS
  1
SUN
  2
AcDbSun
  3
SCENEOE
 90
     1153
280
     0
281
     0
  0
CLASS
  1
ACDBPLACEHOLDER
  2
AcDbPlaceHolder
  3
ObjectDBX Classes
 90
        0
280
     0
281
     0
  0
CLASS
  1
LAYOUT
  2
AcDbLayout
  3
ObjectDBX Classes
 90
        0
280
     0
281
     0
  0
ENDSEC
  0
SECTION
  2
TABLES
  0
TABLE
  2
VPORT
  5
8
330
0
100
AcDbSymbolTable
 70
     1
  0
VPORT
  5
29
330
8
100
AcDbSymbolTableRecord
100
AcDbViewportTableRecord
  2
*Active
 70
     0
 10
0.0
 20
0.0
 11
1.0
 21
1.0
 12
0.0
 22
0.0
 13
0.0
 23
0.0
 14
10.0
 24
10.0
 15
10.0
 25
10.0
 16
0.0
 26
0.0
 36
1.0
 17
0.0
 27
0.0
 37
0.0
 40
275.4
 41
1.0
 42
50.0
 43
0.0
 44
0.0
 50
0.0
 51
0.0
 71
     0
 72
   100
 73
     1
 74
     3
 75
     0
 76
     0
 77
     0
 78
     0
281
     0
 65
     1
110
0.0
120
0.0
130
0.0
111
1.0
121
0.0
131
0.0
112
0.0
122
1.0
132
0.0
 79
     0
146
0.0
  0
ENDTAB
  0
TABLE
  2
LTYPE
  5
5
330
0
100
AcDbSymbolTable
 70
     6
  0
LTYPE
  5
14
330
5
100
AcDbSymbolTableRecord
100
AcDbLinetypeTableRecord
  2
ByBlock
 70
     0
  3

 72
    65
 73
     0
 40
0.0
  0
LTYPE
  5
15
330
5
100
AcDbSymbolTableRecord
100
AcDbLinetypeTableRecord
  2
ByLayer
 70
     0
  3

 72
    65
 73
     0
 40
0.0
  0
LTYPE
  5
16
330
5
100
AcDbSymbolTableRecord
100
AcDbLinetypeTableRecord
  2
Continuous
 70
     0
  3
Solid line
 72
    65
 73
     0
 40
0.0
  0
LTYPE
  5
5E
330
5
100
AcDbSymbolTableRecord
100
AcDbLinetypeTableRecord
  2
HIDDEN
 70
     0
  3
Hidden __ __ __ __ __ __ __ __ __ __ __ __ __ __
 72
    65
 73
     2
 40
1.905
 49
1.27
 74
     0
 49
-0.635
 74
     0
  0
LTYPE
  5
5F
330
5
100
AcDbSymbolTableRecord
100
AcDbLinetypeTableRecord
  2
PHANTOM
 70
     0
  3
Phantom ______  __  __  ______  __  __  ______
 72
    65
 73
     6
 40
12.7
 49
6.35
 74
     0
 49
-1.27
 74
     0
 49
1.27
 74
     0
 49
-1.27
 74
     0
 49
1.27
 74
     0
 49
-1.27
 74
     0
  0
LTYPE
  5
60
330
5
100
AcDbSymbolTableRecord
100
AcDbLinetypeTableRecord
  2
CENTER
 70
     0
  3
Center ____ _ ____ _ ____ _ ____ _ ____ _ ____
 72
    65
 73
     4
 40
10.16
 49
6.35
 74
     0
 49
-1.27
 74
     0
 49
1.27
 74
     0
 49
-1.27
 74
     0
  0
LTYPE
  5
61
330
5
100
AcDbSymbolTableRecord
100
AcDbLinetypeTableRecord
  2
CENTERX2
 70
     0
  3
Center (2x) ________  __  ________  __  _____
 72
    65
 73
     4
 40
20.32
 49
12.7
 74
     0
 49
-2.54
 74
     0
 49
2.54
 74
     0
 49
-2.54
 74
     0
  0
LTYPE
  5
62
330
5
100
AcDbSymbolTableRecord
100
AcDbLinetypeTableRecord
  2
DOT2
 70
     0
  3
Dot (.5x) ........................................
 72
    65
 73
     2
 40
0.635
 49
0.0
 74
     0
 49
-0.635
 74
     0
  0
ENDTAB
  0
TABLE
  2
LAYER
  5
2
330
0
100
AcDbSymbolTable
 70
     1
  0
LAYER
  5
10
330
2
100
AcDbSymbolTableRecord
100
AcDbLayerTableRecord
  2
0
 70
     0
 62
     7
  6
Continuous
370
    -3
390
F
  0
ENDTAB
  0
TABLE
  2
STYLE
  5
3
330
0
100
AcDbSymbolTable
 70
     2
  0
STYLE
  5
11
330
3
100
AcDbSymbolTableRecord
100
AcDbTextStyleTableRecord
  2
Standard
 70
     0
 40
0.0
 41
1.0
 50
0.0
 71
     0
 42
3.5
  3
txt
  4

  0
STYLE
  5
1B8
330
3
100
AcDbSymbolTableRecord
100
AcDbTextStyleTableRecord
  2
SLDTEXTSTYLE0
 70
     0
 40
0.0
 41
0.7
 50
0.0
 71
     0
 42
3.5
  3
TXT
  4

  0
ENDTAB
  0
TABLE
  2
VIEW
  5
6
330
0
100
AcDbSymbolTable
 70
     0
  0
ENDTAB
  0
TABLE
  2
UCS
  5
7
330
0
100
AcDbSymbolTable
 70
     0
  0
ENDTAB
  0
TABLE
  2
APPID
  5
9
330
0
100
AcDbSymbolTable
 70
     1
  0
APPID
  5
12
330
9
100
AcDbSymbolTableRecord
100
AcDbRegAppTableRecord
  2
ACAD
 70
     0
  0
ENDTAB
  0
TABLE
  2
DIMSTYLE
  5
A
330
0
100
AcDbSymbolTable
 70
     1
100
AcDbDimStyleTable
  0
DIMSTYLE
105
27
330
A
100
AcDbSymbolTableRecord
100
AcDbDimStyleTableRecord
  2
ISO-25
 70
     0
 41
2.5
 42
0.625
 43
3.75
 44
1.25
 73
     0
 74
     0
 77
     1
 78
     8
140
2.5
141
2.5
143
0.0393700787
147
0.625
171
     3
172
     1
178
     0
271
     2
272
     2
274
     3
278
    44
283
     0
284
     8
340
11
  0
ENDTAB
  0
TABLE
  2
BLOCK_RECORD
  5
1
330
0
100
AcDbSymbolTable
 70
     1
  0
BLOCK_RECORD
  5
1F
330
1
100
AcDbSymbolTableRecord
100
AcDbBlockTableRecord
  2
*Model_Space
340
22
  0
BLOCK_RECORD
  5
1B
330
1
100
AcDbSymbolTableRecord
100
AcDbBlockTableRecord
  2
*Paper_Space
340
1E
  0
BLOCK_RECORD
  5
23
330
1
100
AcDbSymbolTableRecord
100
AcDbBlockTableRecord
  2
*Paper_Space0
340
26
  0
ENDTAB
  0
ENDSEC
  0
SECTION
  2
BLOCKS
  0
BLOCK
  5
20
330
1F
100
AcDbEntity
  8
0
100
AcDbBlockBegin
  2
*Model_Space
 70
     0
 10
0.0
 20
0.0
 30
0.0
  3
*Model_Space
  1

  0
ENDBLK
  5
21
330
1F
100
AcDbEntity
  8
0
100
AcDbBlockEnd
  0
BLOCK
  5
1C
330
1B
100
AcDbEntity
 67
     1
  8
0
100
AcDbBlockBegin
  2
*Paper_Space
 70
     0
 10
0.0
 20
0.0
 30
0.0
  3
*Paper_Space
  1

  0
ENDBLK
  5
1D
330
1B
100
AcDbEntity
 67
     1
  8
0
100
AcDbBlockEnd
  0
BLOCK
  5
24
330
23
100
AcDbEntity
  8
0
100
AcDbBlockBegin
  2
*Paper_Space0
 70
     0
 10
0.0
 20
0.0
 30
0.0
  3
*Paper_Space0
  1

  0
ENDBLK
  5
25
330
23
100
AcDbEntity
  8
0
100
AcDbBlockEnd
  0
ENDSEC
  0
SECTION
  2
ENTITIES
  0
CIRCLE
  5
63
330
1F
100
AcDbEntity
  8
0
  6
Continuous
 62
     7
100
AcDbCircle
 10
-70.75
 20
-88.0
 30
0.0
 40
7.500000000000004
  0
CIRCLE
  5
64
330
1F
100
AcDbEntity
  8
0
  6
Continuous
 62
     7
100
AcDbCircle
 10
-52.75
 20
-88.0
 30
0.0
 40
7.500000000000004
  0
LINE
  5
65
330
1F
100
AcDbEntity
  8
0
  6
Continuous
 62
     7
100
AcDbLine
 10
-111.75
 20
-125.0
 30
0.0
 11
111.75
 21
-125.0
 31
0.0
  0
LINE
  5
66
330
1F
100
AcDbEntity
  8
0
  6
Continuous
 62
     7
100
AcDbLine
 10
-111.75
 20
-125.0
 30
0.0
 11
-111.75
 21
-1.5
 31
0.0
  0
LINE
  5
67
330
1F
100
AcDbEntity
  8
0
  6
Continuous
 62
     7
100
AcDbLine
 10
-111.75
 20
-1.5
 30
0.0
 11
111.75
 21
-1.5
 31
0.0
  0
LINE
  5
68
330
1F
100
AcDbEntity
  8
0
  6
Continuous
 62
     7
100
AcDbLine
 10
111.75
 20
-125.0
 30
0.0
 11
111.75
 21
-1.5
 31
0.0
  0
LINE
  5
69
330
1F
100
AcDbEntity
  8
0
  6
Continuous
 62
     7
100
AcDbLine
 10
-110.5
 20
-12.0
 30
0.0
 11
-98.0
 21
-12.0
 31
0.0
  0
LINE
  5
6A
330
1F
100
AcDbEntity
  8
0
  6
Continuous
 62
     7
100
AcDbLine
 10
-110.5
 20
-12.0
 30
0.0
 11
-110.5
 21
-81.5
 31
0.0
  0
LINE
  5
6B
330
1F
100
AcDbEntity
  8
0
  6
Continuous
 62
     7
100
AcDbLine
 10
-110.5
 20
-81.5
 30
0.0
 11
-98.0
 21
-81.5
 31
0.0
  0
LINE
  5
6C
330
1F
100
AcDbEntity
  8
0
  6
Continuous
 62
     7
100
AcDbLine
 10
-98.0
 20
-12.0
 30
0.0
 11
-98.0
 21
-81.5
 31
0.0
  0
LINE
  5
6D
330
1F
100
AcDbEntity
  8
0
  6
Continuous
 62
     7
100
AcDbLine
 10
-95.5
 20
-12.0
 30
0.0
 11
-83.0
 21
-12.0
 31
0.0
  0
LINE
  5
6E
330
1F
100
AcDbEntity
  8
0
  6
Continuous
 62
     7
100
AcDbLine
 10
-95.5
 20
-12.0
 30
0.0
 11
-95.5
 21
-81.5
 31
0.0
  0
LINE
  5
6F
330
1F
100
AcDbEntity
  8
0
  6
Continuous
 62
     7
100
AcDbLine
 10
-95.5
 20
-81.5
 30
0.0
 11
-83.0
 21
-81.5
 31
0.0
  0
LINE
  5
70
330
1F
100
AcDbEntity
  8
0
  6
Continuous
 62
     7
100
AcDbLine
 10
-83.0
 20
-12.0
 30
0.0
 11
-83.0
 21
-81.5
 31
0.0
  0
LINE
  5
71
330
1F
100
AcDbEntity
  8
0
  6
Continuous
 62
     7
100
AcDbLine
 10
-26.25
 20
-14.0
 30
0.0
 11
-25.25
 21
-14.0
 31
0.0
  0
LINE
  5
72
330
1F
100
AcDbEntity
  8
0
  6
Continuous
 62
     7
100
AcDbLine
 10
-26.25
 20
-14.0
 30
0.0
 11
-26.25
 21
-20.5
 31
0.0
  0
LINE
  5
73
330
1F
100
AcDbEntity
  8
0
  6
Continuous
 62
     7
100
AcDbLine
 10
-26.25
 20
-20.5
 30
0.0
 11
-25.25
 21
-20.5
 31
0.0
  0
LINE
  5
74
330
1F
100
AcDbEntity
  8
0
  6
Continuous
 62
     7
100
AcDbLine
 10
-25.25
 20
-14.0
 30
0.0
 11
-25.25
 21
-20.5
 31
0.0
  0
LINE
  5
75
330
1F
100
AcDbEntity
  8
0
  6
Continuous
 62
     7
100
AcDbLine
 10
-13.5
 20
-14.0
 30
0.0
 11
-12.5
 21
-14.0
 31
0.0
  0
LINE
  5
76
330
1F
100
AcDbEntity
  8
0
  6
Continuous
 62
     7
100
AcDbLine
 10
-13.5
 20
-14.0
 30
0.0
 11
-13.5
 21
-20.5
 31
0.0
  0
LINE
  5
77
330
1F
100
AcDbEntity
  8
0
  6
Continuous
 62
     7
100
AcDbLine
 10
-13.5
 20
-20.5
 30
0.0
 11
-12.5
 21
-20.5
 31
0.0
  0
LINE
  5
78
330
1F
100
AcDbEntity
  8
0
  6
Continuous
 62
     7
100
AcDbLine
 10
-12.5
 20
-14.0
 30
0.0
 11
-12.5
 21
-20.5
 31
0.0
  0
LINE
  5
7E
330
1F
100
AcDbEntity
  8
0
  6
Continuous
 62
     7
100
AcDbLine
 10
-82.25
 20
-117.5
 30
0.0
 11
-41.25
 21
-117.5
 31
0.0
  0
LINE
  5
7F
330
1F
100
AcDbEntity
  8
0
  6
Continuous
 62
     7
100
AcDbLine
 10
-82.25
 20
-117.5
 30
0.0
 11
-82.25
 21
-72.5
 31
0.0
  0
LINE
  5
80
330
1F
100
AcDbEntity
  8
0
  6
Continuous
 62
     7
100
AcDbLine
 10
-82.25
 20
-72.5
 30
0.0
 11
-41.25
 21
-72.5
 31
0.0
  0
LINE
  5
81
330
1F
100
AcDbEntity
  8
0
  6
Continuous
 62
     7
100
AcDbLine
 10
-41.25
 20
-117.5
 30
0.0
 11
-41.25
 21
-72.5
 31
0.0
  0
LWPOLYLINE
  5
82
330
1F
100
AcDbEntity
  8
0
  6
Continuous
 62
     7
100
AcDbPolyline
 90
       24
 70
   128
 43
0.0
 10
-30.8237075806
 20
-10.6153846154
 10
-30.8237179487
 20
-9.5833333333
 10
-30.8237179487
 20
-9.5833333333
 10
-30.5096153846
 20
-9.5833333333
 10
-30.5096153846
 20
-9.5833333333
 10
-30.5096153846
 20
-10.6153846154
 10
-30.5096153846
 20
-10.6153846154
 10
-29.4775641026
 20
-10.6153846154
 10
-29.4775641026
 20
-10.6153846154
 10
-29.4775641026
 20
-10.9294871795
 10
-29.4775641026
 20
-10.9294871795
 10
-30.5096153846
 20
-10.9294871795
 10
-30.5096153846
 20
-10.9294871795
 10
-30.5096153846
 20
-11.9615384615
 10
-30.5096153846
 20
-11.9615384615
 10
-30.8237179487
 20
-11.9615384615
 10
-30.8237179487
 20
-11.9615384615
 10
-30.8237179487
 20
-10.9294871795
 10
-30.8237179487
 20
-10.9294871795
 10
-31.8557692308
 20
-10.9294871795
 10
-31.8557692308
 20
-10.9294871795
 10
-31.8557692308
 20
-10.6153846154
 10
-31.8557692308
 20
-10.6153846154
 10
-30.8237179487
 20
-10.6153846154
  0
LWPOLYLINE
  5
83
330
1F
100
AcDbEntity
  8
0
  6
Continuous
 62
     7
100
AcDbPolyline
 90
       12
 70
   128
 43
0.0
 10
-28.2849520445
 20
-9.0
 10
-27.6378205128
 20
-9.0
 10
-27.6378205128
 20
-9.0
 10
-27.6378205128
 20
-12.5
 10
-27.6378205128
 20
-12.5
 10
-27.9519230769
 20
-12.5
 10
-27.9519230769
 20
-12.5
 10
-27.9519230769
 20
-9.358974359
 10
-27.9519230769
 20
-9.358974359
 10
-28.4903846154
 20
-9.358974359
 10
-28.4903846154
 20
-9.358974359
 10
-28.2849559295
 20
-9.0
  0
LWPOLYLINE
  5
84
330
1F
100
AcDbEntity
  8
0
  6
Continuous
 62
     7
100
AcDbPolyline
 90
      106
 70
   128
 43
0.0
 10
-25.8878171444
 20
-10.0769230769
 10
-26.2019230769
 20
-10.0769230769
 10
-26.2019230769
 20
-10.0769230769
 10
-26.1935096154
 20
-9.9521233974
 10
-26.1752804487
 20
-9.8329326923
 10
-26.1479366987
 20
-9.7200520833
 10
-26.1100761218
 20
-9.6120793269
 10
-26.0631009615
 20
-9.5104166667
 10
-26.0063100962
 20
-9.413661859
 10
-25.9397035256
 20
-9.3232171474
 10
-25.86328125
 20
-9.2383814103
 10
-25.7798477564
 20
-9.1612580128
 10
-25.6908052885
 20
-9.0946514423
 10
-25.5975560897
 20
-9.0385616987
 10
-25.5001001603
 20
-8.9922876603
 10
-25.3970352564
 20
-8.9565304487
 10
-25.2897636218
 20
-8.9305889423
 10
-25.1775841346
 20
-8.9151642628
 10
-25.0604967949
 20
-8.9102564103
 10
-25.0604967949
 20
-8.9102564103
 10
-24.9455128205
 20
-8.9151642628
 10
-24.8354366987
 20
-8.9298878205
 10
-24.7316706731
 20
-8.9537259615
 10
-24.6328125
 20
-8.9873798077
 10
-24.5402644231
 20
-9.0315504808
 10
-24.4533253205
 20
-9.0848357372
 10
-24.3712940705
 20
-9.1472355769
 10
-24.2955729167
 20
-9.2201522436
 10
-24.2268629808
 20
-9.2993790064
 10
-24.16796875
 20
-9.3821113782
 10
-24.1174879808
 20
-9.468349359
 10
-24.0761217949
 20
-9.5573918269
 10
-24.0445713141
 20
-9.6506410256
 10
-24.0214342949
 20
-9.7473958333
 10
-24.0081129808
 20
-9.8469551282
 10
-24.0032051282
 20
-9.9507211538
 10
-24.0032051282
 20
-9.9507211538
 10
-24.0123197115
 20
-10.0965544872
 10
-24.0396634615
 20
-10.2374799679
 10
-24.0845352564
 20
-10.3734975962
 10
-24.1483373397
 20
-10.5053084936
 10
-24.1890024038
 20
-10.5726161859
 10
-24.2380809295
 20
-10.6462339744
 10
-24.2955729167
 20
-10.7254607372
 10
-24.3614783654
 20
-10.8095953526
 10
-24.4364983974
 20
-10.9007411859
 10
-24.5192307692
 20
-10.9967948718
 10
-24.6110777244
 20
-11.0984575321
 10
-24.711338141
 20
-11.2064302885
 10
-24.711338141
 20
-11.2064302885
 10
-25.5870392628
 20
-12.141025641
 10
-25.5870392628
 20
-12.141025641
 10
-23.9583333333
 20
-12.141025641
 10
-23.9583333333
 20
-12.141025641
 10
-23.9583333333
 20
-12.5
 10
-23.9583333333
 20
-12.5
 10
-26.3365384615
 20
-12.5
 10
-26.3365384615
 20
-12.5
 10
-24.9791666667
 20
-11.0514823718
 10
-24.9791666667
 20
-11.0514823718
 10
-24.8803084936
 20
-10.9477163462
 10
-24.7905649038
 20
-10.8509615385
 10
-24.7099358974
 20
-10.7612179487
 10
-24.6384214744
 20
-10.6784855769
 10
-24.5760216346
 20
-10.6020633013
 10
-24.5220352564
 20
-10.5333533654
 10
-24.4778645833
 20
-10.4709535256
 10
-24.4421073718
 20
-10.4155649038
 10
-24.3874198718
 20
-10.3103966346
 10
-24.3481570513
 20
-10.2024238782
 10
-24.3250200321
 20
-10.0923477564
 10
-24.3173076923
 20
-9.9787660256
 10
-24.3173076923
 20
-9.9787660256
 10
-24.3208133013
 20
-9.9072516026
 10
-24.3313301282
 20
-9.8385416667
 10
-24.3481570513
 20
-9.7726362179
 10
-24.3719951923
 20
-9.7088341346
 10
-24.4035456731
 20
-9.6471354167
 10
-24.44140625
 20
-9.5889423077
 10
-24.4855769231
 20
-9.5328525641
 10
-24.5374599359
 20
-9.4788661859
 10
-24.5942508013
 20
-9.4297876603
 10
-24.6538461538
 20
-9.3870192308
 10
-24.7162459936
 20
-9.3512620192
 10
-24.7821514423
 20
-9.3218149038
 10
-24.8515625
 20
-9.2986778846
 10
-24.9230769231
 20
-9.2825520833
 10
-24.9980969551
 20
-9.2727363782
 10
-25.0766225962
 20
-9.2692307692
 10
-25.0766225962
 20
-9.2692307692
 10
-25.1586538462
 20
-9.2727363782
 10
-25.2371794872
 20
-9.2825520833
 10
-25.3121995192
 20
-9.2993790064
 10
-25.3837139423
 20
-9.3225160256
 10
-25.4517227564
 20
-9.351963141
 10
-25.5162259615
 20
-9.3884214744
 10
-25.5772235577
 20
-9.4318910256
 10
-25.6347155449
 20
-9.4816706731
 10
-25.6872996795
 20
-9.5370592949
 10
-25.7335737179
 20
-9.598056891
 10
-25.7742387821
 20
-9.6646634615
 10
-25.8092948718
 20
-9.7361778846
 10
-25.8380408654
 20
-9.8133012821
 10
-25.8604767628
 20
-9.8960336538
 10
-25.8773036859
 20
-9.9836738782
 10
-25.8878205128
 20
-10.0769230769
  0
LWPOLYLINE
  5
85
330
1F
100
AcDbEntity
  8
0
  6
Continuous
 62
     7
100
AcDbPolyline
 90
       14
 70
   128
 43
0.0
 10
-23.5993564129
 20
-9.0
 10
-23.2628205128
 20
-9.0
 10
-23.2628205128
 20
-9.0
 10
-22.0961538462
 20
-11.758213141
 10
-22.0961538462
 20
-11.758213141
 10
-20.9294871795
 20
-9.0
 10
-20.9294871795
 20
-9.0
 10
-20.5929487179
 20
-9.0
 10
-20.5929487179
 20
-9.0
 10
-22.0737179487
 20
-12.5
 10
-22.0737179487
 20
-12.5
 10
-22.1185897436
 20
-12.5
 10
-22.1185897436
 20
-12.5
 10
-23.5993589744
 20
-9.0
  0
LWPOLYLINE
  5
86
330
1F
100
AcDbEntity
  8
0
  6
Continuous
 62
     7
100
AcDbPolyline
 90
      169
 70
   128
 43
0.0
 10
-15.6506299973
 20
-9.5973557692
 10
-15.9198717949
 20
-9.8525641026
 10
-15.9198717949
 20
-9.8525641026
 10
-16.0685096154
 20
-9.7179487179
 10
-16.2248597756
 20
-9.6001602564
 10
-16.3875200321
 20
-9.5006009615
 10
-16.5578926282
 20
-9.4178685897
 10
-16.7303685897
 20
-9.3526642628
 10
-16.9000400641
 20
-9.3063902244
 10
-17.0683092949
 20
-9.2783453526
 10
-17.2337740385
 20
-9.2692307692
 10
-17.2337740385
 20
-9.2692307692
 10
-17.3354366987
 20
-9.2720352564
 10
-17.4363982372
 20
-9.2818509615
 10
-17.5352564103
 20
-9.297275641
 10
-17.6334134615
 20
-9.3190104167
 10
-17.730869391
 20
-9.3470552885
 10
-17.8262219551
 20
-9.3814102564
 10
-17.9208733974
 20
-9.4220753205
 10
-18.0141225962
 20
-9.4690504808
 10
-18.1038661859
 20
-9.5209334936
 10
-18.1887019231
 20
-9.577724359
 10
-18.2686298077
 20
-9.6387219551
 10
-18.3429487179
 20
-9.7046274038
 10
-18.4116586538
 20
-9.7747395833
 10
-18.476161859
 20
-9.8490584936
 10
-18.5350560897
 20
-9.9282852564
 10
-18.5883413462
 20
-10.01171875
 10
-18.6360176282
 20
-10.0979567308
 10
-18.6773838141
 20
-10.1848958333
 10
-18.7124399038
 20
-10.2739383013
 10
-18.7404847756
 20
-10.363681891
 10
-18.7629206731
 20
-10.4541266026
 10
-18.7790464744
 20
-10.5466746795
 10
-18.7881610577
 20
-10.6399238782
 10
-18.7916666667
 20
-10.7345753205
 10
-18.7916666667
 20
-10.7345753205
 10
-18.7881610577
 20
-10.8313301282
 10
-18.7783453526
 20
-10.9273838141
 10
-18.7608173077
 20
-11.0220352564
 10
-18.7369791667
 20
-11.1152844551
 10
-18.7068309295
 20
-11.2078325321
 10
-18.6696714744
 20
-11.2989783654
 10
-18.6255008013
 20
-11.3887219551
 10
-18.5743189103
 20
-11.4770633013
 10
-18.5175280449
 20
-11.5626001603
 10
-18.4551282051
 20
-11.6432291667
 10
-18.3878205128
 20
-11.7196514423
 10
-18.3156049679
 20
-11.7904647436
 10
-18.2377804487
 20
-11.8577724359
 10
-18.1550480769
 20
-11.9194711538
 10
-18.0667067308
 20
-11.976963141
 10
-17.9734575321
 20
-12.0295472756
 10
-17.8767027244
 20
-12.0765224359
 10
-17.7771434295
 20
-12.1178886218
 10
-17.6754807692
 20
-12.1522435897
 10
-17.5717147436
 20
-12.1802884615
 10
-17.4651442308
 20
-12.202724359
 10
-17.3564703526
 20
-12.2181490385
 10
-17.245693109
 20
-12.2279647436
 10
-17.1328125
 20
-12.2307692308
 10
-17.1328125
 20
-12.2307692308
 10
-16.9967948718
 20
-12.2258613782
 10
-16.8663862179
 20
-12.2118389423
 10
-16.7408854167
 20
-12.1887019231
 10
-16.6209935897
 20
-12.1557491987
 10
-16.5067107372
 20
-12.113681891
 10
-16.3973357372
 20
-12.0625
 10
-16.2935697115
 20
-12.0015024038
 10
-16.1947115385
 20
-11.9313902244
 10
-16.1035657051
 20
-11.8535657051
 10
-16.0222355769
 20
-11.7701322115
 10
-15.9507211538
 20
-11.6810897436
 10
-15.8890224359
 20
-11.5871394231
 10
-15.8371394231
 20
-11.4868790064
 10
-15.7950721154
 20
-11.3817107372
 10
-15.7628205128
 20
-11.2702323718
 10
-15.7403846154
 20
-11.1538461538
 10
-15.7403846154
 20
-11.1538461538
 10
-16.9070512821
 20
-11.1538461538
 10
-16.9070512821
 20
-11.1538461538
 10
-16.9070512821
 20
-10.7948717949
 10
-16.9070512821
 20
-10.7948717949
 10
-15.4262820513
 20
-10.7948717949
 10
-15.4262820513
 20
-10.7948717949
 10
-15.4346955128
 20
-10.9953926282
 10
-15.4578325321
 20
-11.1860977564
 10
-15.495693109
 20
-11.3655849359
 10
-15.5475761218
 20
-11.5345552885
 10
-15.6141826923
 20
-11.6930088141
 10
-15.6955128205
 20
-11.8409455128
 10
-15.7915665064
 20
-11.9776642628
 10
-15.9016426282
 20
-12.1045673077
 10
-16.0243389423
 20
-12.2181490385
 10
-16.1568509615
 20
-12.3170072115
 10
-16.2991786859
 20
-12.4004407051
 10
-16.4513221154
 20
-12.4684495192
 10
-16.6139823718
 20
-12.5217347756
 10
-16.7857572115
 20
-12.5595953526
 10
-16.9680488782
 20
-12.58203125
 10
-17.16015625
 20
-12.5897435897
 10
-17.16015625
 20
-12.5897435897
 10
-17.2786458333
 20
-12.5869391026
 10
-17.3936298077
 20
-12.5792267628
 10
-17.5051081731
 20
-12.5666065705
 10
-17.6137820513
 20
-12.5483774038
 10
-17.7196514423
 20
-12.5252403846
 10
-17.8220152244
 20
-12.496494391
 10
-17.9215745192
 20
-12.4628405449
 10
-18.0183293269
 20
-12.4242788462
 10
-18.1115785256
 20
-12.3801081731
 10
-18.2013221154
 20
-12.3310296474
 10
-18.2882612179
 20
-12.2770432692
 10
-18.3723958333
 20
-12.2174479167
 10
-18.4530248397
 20
-12.1529447115
 10
-18.530849359
 20
-12.0828325321
 10
-18.6051682692
 20
-12.0078125
 10
-18.6766826923
 20
-11.9278846154
 10
-18.6766826923
 20
-11.9278846154
 10
-18.776943109
 20
-11.7981770833
 10
-18.8645833333
 20
-11.6628605769
 10
-18.9382011218
 20
-11.5233373397
 10
-18.9984975962
 20
-11.3782051282
 10
-19.0454727564
 20
-11.2281650641
 10
-19.0791266026
 20
-11.0732171474
 10
-19.0987580128
 20
-10.9133613782
 10
-19.1057692308
 20
-10.7485977564
 10
-19.1057692308
 20
-10.7485977564
 10
-19.1022636218
 20
-10.6252003205
 10
-19.0903445513
 20
-10.50390625
 10
-19.0714142628
 20
-10.3847155449
 10
-19.0447716346
 20
-10.2683293269
 10
-19.0104166667
 20
-10.1533453526
 10
-18.968349359
 20
-10.0411658654
 10
-18.9185697115
 20
-9.9303886218
 10
-18.8610777244
 20
-9.8224158654
 10
-18.7965745192
 20
-9.7179487179
 10
-18.7271634615
 20
-9.6197916667
 10
-18.6514423077
 20
-9.5272435897
 10
-18.5701121795
 20
-9.4403044872
 10
-18.4831730769
 20
-9.3596754808
 10
-18.390625
 20
-9.2846554487
 10
-18.2924679487
 20
-9.215244391
 10
-18.1887019231
 20
-9.1521434295
 10
-18.0800280449
 20
-9.0953525641
 10
-17.9685496795
 20
-9.0462740385
 10
-17.8528645833
 20
-9.0049078526
 10
-17.7336738782
 20
-8.9705528846
 10
-17.6116786859
 20
-8.9446113782
 10
-17.4854767628
 20
-8.9256810897
 10
-17.3564703526
 20
-8.9137620192
 10
-17.2232572115
 20
-8.9102564103
 10
-17.2232572115
 20
-8.9102564103
 10
-17.1145833333
 20
-8.9130608974
 10
-17.0080128205
 20
-8.9207732372
 10
-16.9028445513
 20
-8.9333934295
 10
-16.7990785256
 20
-8.9509214744
 10
-16.6974158654
 20
-8.9740584936
 10
-16.5971554487
 20
-9.0021033654
 10
-16.4982972756
 20
-9.0350560897
 10
-16.4015424679
 20
-9.0736177885
 10
-16.3054887821
 20
-9.1177884615
 10
-16.2101362179
 20
-9.167568109
 10
-16.1154847756
 20
-9.2236578526
 10
-16.0215344551
 20
-9.2860576923
 10
-15.9275841346
 20
-9.3547676282
 10
-15.8350360577
 20
-9.4297876603
 10
-15.7424879808
 20
-9.5104166667
 10
-15.6506410256
 20
-9.5973557692
  0
LWPOLYLINE
  5
87
330
1F
100
AcDbEntity
  8
0
  6
Continuous
 62
     7
100
AcDbPolyline
 90
       20
 70
   128
 43
0.0
 10
-14.7083327174
 20
-12.5
 10
-14.7083333333
 20
-9.0
 10
-14.7083333333
 20
-9.0
 10
-14.6424278846
 20
-9.0
 10
-14.6424278846
 20
-9.0
 10
-12.3301282051
 20
-11.7547075321
 10
-12.3301282051
 20
-11.7547075321
 10
-12.3301282051
 20
-9.0
 10
-12.3301282051
 20
-9.0
 10
-12.016025641
 20
-9.0
 10
-12.016025641
 20
-9.0
 10
-12.016025641
 20
-12.5
 10
-12.016025641
 20
-12.5
 10
-12.0875400641
 20
-12.5
 10
-12.0875400641
 20
-12.5
 10
-14.3942307692
 20
-9.7516025641
 10
-14.3942307692
 20
-9.7516025641
 10
-14.3942307692
 20
-12.5
 10
-14.3942307692
 20
-12.5
 10
-14.7083333333
 20
-12.5
  0
LWPOLYLINE
  5
88
330
1F
100
AcDbEntity
  8
0
  6
Continuous
 62
     7
100
AcDbPolyline
 90
       57
 70
   128
 43
0.0
 10
-11.1185833812
 20
-12.5
 10
-11.1185897436
 20
-9.0
 10
-11.1185897436
 20
-9.0
 10
-10.4118589744
 20
-9.0
 10
-10.4118589744
 20
-9.0
 10
-10.2274639423
 20
-9.0021033654
 10
-10.0556891026
 20
-9.0077123397
 10
-9.8972355769
 20
-9.0175280449
 10
-9.7514022436
 20
-9.0315504808
 10
-9.6195913462
 20
-9.0490785256
 10
-9.500400641
 20
-9.0708133013
 10
-9.39453125
 20
-9.0967548077
 10
-9.3012820513
 20
-9.1262019231
 10
-9.3012820513
 20
-9.1262019231
 10
-9.1806891026
 20
-9.1745793269
 10
-9.0671073718
 20
-9.2313701923
 10
-8.9598357372
 20
-9.2965745192
 10
-8.8595753205
 20
-9.3694911859
 10
-8.7663261218
 20
-9.4515224359
 10
-8.6793870192
 20
-9.5405649038
 10
-8.5994591346
 20
-9.6387219551
 10
-8.5265424679
 20
-9.7445913462
 10
-8.4606370192
 20
-9.8574719551
 10
-8.4038461538
 20
-9.9752604167
 10
-8.3561698718
 20
-10.0986578526
 10
-8.3169070513
 20
-10.226963141
 10
-8.2860576923
 20
-10.3608774038
 10
-8.2643229167
 20
-10.500400641
 10
-8.2510016026
 20
-10.6448317308
 10
-8.2467948718
 20
-10.7941706731
 10
-8.2467948718
 20
-10.7941706731
 10
-8.2503004808
 20
-10.9238782051
 10
-8.2608173077
 20
-11.0493790064
 10
-8.2776442308
 20
-11.1706730769
 10
-8.3021834936
 20
-11.2884615385
 10
-8.3330328526
 20
-11.4020432692
 10
-8.3715945513
 20
-11.512119391
 10
-8.4164663462
 20
-11.6179887821
 10
-8.468349359
 20
-11.7196514423
 10
-8.5258413462
 20
-11.81640625
 10
-8.5868389423
 20
-11.9061498397
 10
-8.652744391
 20
-11.9902844551
 10
-8.7221554487
 20
-12.0667067308
 10
-8.796474359
 20
-12.1375200321
 10
-8.8742988782
 20
-12.2013221154
 10
-8.95703125
 20
-12.2588141026
 10
-9.0432692308
 20
-12.3099959936
 10
-9.1358173077
 20
-12.3548677885
 10
-9.2374799679
 20
-12.3934294872
 10
-9.3482572115
 20
-12.4256810897
 10
-9.4674479167
 20
-12.4523237179
 10
-9.5957532051
 20
-12.4733573718
 10
-9.7331730769
 20
-12.4880809295
 10
-9.8790064103
 20
-12.4971955128
 10
-10.0339543269
 20
-12.5
 10
-10.0339543269
 20
-12.5
 10
-11.1185897436
 20
-12.5
  0
LWPOLYLINE
  5
89
330
1F
100
AcDbEntity
  8
0
  6
Continuous
 62
     7
100
AcDbPolyline
 90
       58
 70
   128
 43
0.0
 10
-10.8044818044
 20
-12.141025641
 10
-10.402744391
 20
-12.141025641
 10
-10.402744391
 20
-12.141025641
 10
-10.2295673077
 20
-12.1396233974
 10
-10.0697115385
 20
-12.1354166667
 10
-9.9238782051
 20
-12.1284054487
 10
-9.7920673077
 20
-12.1185897436
 10
-9.6735777244
 20
-12.1059695513
 10
-9.5691105769
 20
-12.0912459936
 10
-9.4786658654
 20
-12.0730168269
 10
-9.4022435897
 20
-12.0519831731
 10
-9.4022435897
 20
-12.0519831731
 10
-9.3068910256
 20
-12.0169270833
 10
-9.2164463141
 20
-11.9762620192
 10
-9.1316105769
 20
-11.9285857372
 10
-9.0523838141
 20
-11.8753004808
 10
-8.9780649038
 20
-11.8150040064
 10
-8.9086538462
 20
-11.7483974359
 10
-8.8448517628
 20
-11.676181891
 10
-8.7859575321
 20
-11.5969551282
 10
-8.7333733974
 20
-11.512119391
 10
-8.6878004808
 20
-11.4230769231
 10
-8.6485376603
 20
-11.3298277244
 10
-8.6169871795
 20
-11.2316706731
 10
-8.5924479167
 20
-11.1286057692
 10
-8.5749198718
 20
-11.0213341346
 10
-8.5644030449
 20
-10.9098557692
 10
-8.5608974359
 20
-10.7934695513
 10
-8.5608974359
 20
-10.7934695513
 10
-8.5644030449
 20
-10.6707732372
 10
-8.5763221154
 20
-10.5529847756
 10
-8.5952524038
 20
-10.4401041667
 10
-8.6218950321
 20
-10.3314302885
 10
-8.65625
 20
-10.226963141
 10
-8.6983173077
 20
-10.1274038462
 10
-8.7473958333
 20
-10.0320512821
 10
-8.8048878205
 20
-9.9416065705
 10
-8.8686899038
 20
-9.8567708333
 10
-8.9388020833
 20
-9.7789463141
 10
-9.0145232372
 20
-9.7081330128
 10
-9.0958533654
 20
-9.6436298077
 10
-9.1834935897
 20
-9.5868389423
 10
-9.2774439103
 20
-9.5363581731
 10
-9.3770032051
 20
-9.4935897436
 10
-9.4828725962
 20
-9.4571314103
 10
-9.4828725962
 20
-9.4571314103
 10
-9.5712139423
 20
-9.433994391
 10
-9.6721754808
 20
-9.4143629808
 10
-9.7871594551
 20
-9.3975360577
 10
-9.9147636218
 20
-9.3835136218
 10
-10.0556891026
 20
-9.3729967949
 10
-10.2099358974
 20
-9.3652844551
 10
-10.3775040064
 20
-9.3603766026
 10
-10.5583934295
 20
-9.358974359
 10
-10.5583934295
 20
-9.358974359
 10
-10.8044871795
 20
-9.358974359
 10
-10.8044871795
 20
-9.358974359
 10
-10.8044871795
 20
-12.141025641
  0
LWPOLYLINE
  5
8A
330
1F
100
AcDbEntity
  8
0
  6
Continuous
 62
     7
100
AcDbPolyline
 90
       57
 70
   128
 43
0.0
 10
-50.3301024437
 20
-104.5679095102
 10
-50.3301282051
 20
-101.0679095102
 10
-50.3301282051
 20
-101.0679095102
 10
-49.6233974359
 20
-101.0679095102
 10
-49.6233974359
 20
-101.0679095102
 10
-49.4390024038
 20
-101.0700128755
 10
-49.2672275641
 20
-101.0756218499
 10
-49.1087740385
 20
-101.085437555
 10
-48.9629407051
 20
-101.0994599909
 10
-48.8311298077
 20
-101.1169880358
 10
-48.7119391026
 20
-101.1387228114
 10
-48.6060697115
 20
-101.1646643178
 10
-48.5128205128
 20
-101.1941114332
 10
-48.5128205128
 20
-101.1941114332
 10
-48.3922275641
 20
-101.2424888371
 10
-48.2786458333
 20
-101.2992797025
 10
-48.1713741987
 20
-101.3644840294
 10
-48.0711137821
 20
-101.4374006961
 10
-47.9778645833
 20
-101.5194319461
 10
-47.8909254808
 20
-101.608474414
 10
-47.8109975962
 20
-101.7066314653
 10
-47.7380809295
 20
-101.8125008563
 10
-47.6721754808
 20
-101.9253814653
 10
-47.6153846154
 20
-102.0431699268
 10
-47.5677083333
 20
-102.1665673627
 10
-47.5284455128
 20
-102.2948726512
 10
-47.4975961538
 20
-102.428786914
 10
-47.4758613782
 20
-102.5683101512
 10
-47.4625400641
 20
-102.7127412409
 10
-47.4583333333
 20
-102.8620801832
 10
-47.4583333333
 20
-102.8620801832
 10
-47.4618389423
 20
-102.9917877153
 10
-47.4723557692
 20
-103.1172885166
 10
-47.4891826923
 20
-103.2385825871
 10
-47.5137219551
 20
-103.3563710486
 10
-47.5445713141
 20
-103.4699527794
 10
-47.5831330128
 20
-103.5800289012
 10
-47.6280048077
 20
-103.6858982922
 10
-47.6798878205
 20
-103.7875609525
 10
-47.7373798077
 20
-103.8843157602
 10
-47.7983774038
 20
-103.9740593499
 10
-47.8642828526
 20
-104.0581939653
 10
-47.9336939103
 20
-104.1346162409
 10
-48.0080128205
 20
-104.2054295422
 10
-48.0858373397
 20
-104.2692316255
 10
-48.1685697115
 20
-104.3267236127
 10
-48.2548076923
 20
-104.3779055037
 10
-48.3473557692
 20
-104.4227772986
 10
-48.4490184295
 20
-104.4613389973
 10
-48.5597956731
 20
-104.4935905999
 10
-48.6789863782
 20
-104.5202332281
 10
-48.8072916667
 20
-104.5412668819
 10
-48.9447115385
 20
-104.5559904396
 10
-49.0905448718
 20
-104.565105023
 10
-49.2454927885
 20
-104.5679095102
 10
-49.2454927885
 20
-104.5679095102
 10
-50.3301282051
 20
-104.5679095102
  0
LWPOLYLINE
  5
8B
330
1F
100
AcDbEntity
  8
0
  6
Continuous
 62
     7
100
AcDbPolyline
 90
       58
 70
   128
 43
0.0
 10
-50.0160157681
 20
-104.2089351512
 10
-49.6142828526
 20
-104.2089351512
 10
-49.6142828526
 20
-104.2089351512
 10
-49.4411057692
 20
-104.2075329076
 10
-49.28125
 20
-104.2033261768
 10
-49.1354166667
 20
-104.1963149589
 10
-49.0036057692
 20
-104.1864992537
 10
-48.8851161859
 20
-104.1738790614
 10
-48.7806490385
 20
-104.1591555037
 10
-48.6902043269
 20
-104.1409263371
 10
-48.6137820513
 20
-104.1198926832
 10
-48.6137820513
 20
-104.1198926832
 10
-48.5184294872
 20
-104.0848365935
 10
-48.4279847756
 20
-104.0441715294
 10
-48.3431490385
 20
-103.9964952473
 10
-48.2639222756
 20
-103.9432099909
 10
-48.1896033654
 20
-103.8829135166
 10
-48.1201923077
 20
-103.8163069461
 10
-48.0563902244
 20
-103.7440914012
 10
-47.9974959936
 20
-103.6648646384
 10
-47.944911859
 20
-103.5800289012
 10
-47.8993389423
 20
-103.4909864332
 10
-47.8600761218
 20
-103.3977372345
 10
-47.828525641
 20
-103.2995801832
 10
-47.8039863782
 20
-103.1965152794
 10
-47.7864583333
 20
-103.0892436448
 10
-47.7759415064
 20
-102.9777652794
 10
-47.7724358974
 20
-102.8613790614
 10
-47.7724358974
 20
-102.8613790614
 10
-47.7759415064
 20
-102.7386827473
 10
-47.7878605769
 20
-102.6208942858
 10
-47.8067908654
 20
-102.5080136768
 10
-47.8334334936
 20
-102.3993397986
 10
-47.8677884615
 20
-102.2948726512
 10
-47.9098557692
 20
-102.1953133563
 10
-47.9589342949
 20
-102.0999607922
 10
-48.0164262821
 20
-102.0095160807
 10
-48.0802283654
 20
-101.9246803435
 10
-48.1503405449
 20
-101.8468558243
 10
-48.2260616987
 20
-101.776042523
 10
-48.3073918269
 20
-101.7115393178
 10
-48.3950320513
 20
-101.6547484525
 10
-48.4889823718
 20
-101.6042676832
 10
-48.5885416667
 20
-101.5614992537
 10
-48.6944110577
 20
-101.5250409204
 10
-48.6944110577
 20
-101.5250409204
 10
-48.7827524038
 20
-101.5019039012
 10
-48.8837139423
 20
-101.4822724909
 10
-48.9986979167
 20
-101.4654455678
 10
-49.1263020833
 20
-101.4514231319
 10
-49.2672275641
 20
-101.440906305
 10
-49.421474359
 20
-101.4331939653
 10
-49.5890424679
 20
-101.4282861127
 10
-49.769931891
 20
-101.4268838691
 10
-49.769931891
 20
-101.4268838691
 10
-50.016025641
 20
-101.4268838691
 10
-50.016025641
 20
-101.4268838691
 10
-50.016025641
 20
-104.2089351512
  0
LWPOLYLINE
  5
8C
330
1F
100
AcDbEntity
  8
0
  6
Continuous
 62
     7
100
AcDbPolyline
 90
       20
 70
   128
 43
0.0
 10
-53.9198517799
 20
-104.5679095102
 10
-53.9198717949
 20
-101.0679095102
 10
-53.9198717949
 20
-101.0679095102
 10
-53.8539663462
 20
-101.0679095102
 10
-53.8539663462
 20
-101.0679095102
 10
-51.5416666667
 20
-103.8226170422
 10
-51.5416666667
 20
-103.8226170422
 10
-51.5416666667
 20
-101.0679095102
 10
-51.5416666667
 20
-101.0679095102
 10
-51.2275641026
 20
-101.0679095102
 10
-51.2275641026
 20
-101.0679095102
 10
-51.2275641026
 20
-104.5679095102
 10
-51.2275641026
 20
-104.5679095102
 10
-51.2990785256
 20
-104.5679095102
 10
-51.2990785256
 20
-104.5679095102
 10
-53.6057692308
 20
-101.8195120743
 10
-53.6057692308
 20
-101.8195120743
 10
-53.6057692308
 20
-104.5679095102
 10
-53.6057692308
 20
-104.5679095102
 10
-53.9198717949
 20
-104.5679095102
  0
LWPOLYLINE
  5
8D
330
1F
100
AcDbEntity
  8
0
  6
Continuous
 62
     7
100
AcDbPolyline
 90
      169
 70
   128
 43
0.0
 10
-54.8621714115
 20
-101.6652652794
 10
-55.1314102564
 20
-101.9204736127
 10
-55.1314102564
 20
-101.9204736127
 10
-55.2800480769
 20
-101.7858582281
 10
-55.4363982372
 20
-101.6680697666
 10
-55.5990584936
 20
-101.5685104717
 10
-55.7694310897
 20
-101.4857780999
 10
-55.9419070513
 20
-101.420573773
 10
-56.1115785256
 20
-101.3742997345
 10
-56.2798477564
 20
-101.3462548627
 10
-56.4453125
 20
-101.3371402794
 10
-56.4453125
 20
-101.3371402794
 10
-56.5469751603
 20
-101.3399447666
 10
-56.6479366987
 20
-101.3497604717
 10
-56.7467948718
 20
-101.3651851512
 10
-56.8449519231
 20
-101.3869199268
 10
-56.9424078526
 20
-101.4149647986
 10
-57.0377604167
 20
-101.4493197666
 10
-57.132411859
 20
-101.4899848307
 10
-57.2256610577
 20
-101.5369599909
 10
-57.3154046474
 20
-101.5888430037
 10
-57.4002403846
 20
-101.6456338691
 10
-57.4801682692
 20
-101.7066314653
 10
-57.5544871795
 20
-101.772536914
 10
-57.6231971154
 20
-101.8426490935
 10
-57.6877003205
 20
-101.9169680037
 10
-57.7465945513
 20
-101.9961947666
 10
-57.7998798077
 20
-102.0796282602
 10
-57.8475560897
 20
-102.1658662409
 10
-57.8889222756
 20
-102.2528053435
 10
-57.9239783654
 20
-102.3418478114
 10
-57.9520232372
 20
-102.4315914012
 10
-57.9744591346
 20
-102.5220361127
 10
-57.9905849359
 20
-102.6145841896
 10
-57.9996995192
 20
-102.7078333884
 10
-58.0032051282
 20
-102.8024848307
 10
-58.0032051282
 20
-102.8024848307
 10
-57.9996995192
 20
-102.8992396384
 10
-57.9898838141
 20
-102.9952933243
 10
-57.9723557692
 20
-103.0899447666
 10
-57.9485176282
 20
-103.1831939653
 10
-57.918369391
 20
-103.2757420422
 10
-57.8812099359
 20
-103.3668878755
 10
-57.8370392628
 20
-103.4566314653
 10
-57.7858573718
 20
-103.5449728114
 10
-57.7290665064
 20
-103.6305096704
 10
-57.6666666667
 20
-103.7111386768
 10
-57.5993589744
 20
-103.7875609525
 10
-57.5271434295
 20
-103.8583742537
 10
-57.4493189103
 20
-103.9256819461
 10
-57.3665865385
 20
-103.987380664
 10
-57.2782451923
 20
-104.0448726512
 10
-57.1849959936
 20
-104.0974567858
 10
-57.0882411859
 20
-104.1444319461
 10
-56.988681891
 20
-104.1857981319
 10
-56.8870192308
 20
-104.2201530999
 10
-56.7832532051
 20
-104.2481979717
 10
-56.6766826923
 20
-104.2706338691
 10
-56.5680088141
 20
-104.2860585486
 10
-56.4572315705
 20
-104.2958742537
 10
-56.3443509615
 20
-104.2986787409
 10
-56.3443509615
 20
-104.2986787409
 10
-56.2083333333
 20
-104.2937708884
 10
-56.0779246795
 20
-104.2797484525
 10
-55.9524238782
 20
-104.2566114332
 10
-55.8325320513
 20
-104.2236587089
 10
-55.7182491987
 20
-104.1815914012
 10
-55.6088741987
 20
-104.1304095102
 10
-55.5051081731
 20
-104.069411914
 10
-55.40625
 20
-103.9992997345
 10
-55.3151041667
 20
-103.9214752153
 10
-55.2337740385
 20
-103.8380417217
 10
-55.1622596154
 20
-103.7489992537
 10
-55.1005608974
 20
-103.6550489332
 10
-55.0486778846
 20
-103.5547885166
 10
-55.0066105769
 20
-103.4496202473
 10
-54.9743589744
 20
-103.3381418819
 10
-54.9519230769
 20
-103.221755664
 10
-54.9519230769
 20
-103.221755664
 10
-56.1185897436
 20
-103.221755664
 10
-56.1185897436
 20
-103.221755664
 10
-56.1185897436
 20
-102.862781305
 10
-56.1185897436
 20
-102.862781305
 10
-54.6378205128
 20
-102.862781305
 10
-54.6378205128
 20
-102.862781305
 10
-54.6462339744
 20
-103.0633021384
 10
-54.6693709936
 20
-103.2540072666
 10
-54.7072315705
 20
-103.4334944461
 10
-54.7591145833
 20
-103.6024647986
 10
-54.8257211538
 20
-103.7609183243
 10
-54.9070512821
 20
-103.908855023
 10
-55.0031049679
 20
-104.045573773
 10
-55.1131810897
 20
-104.1724768178
 10
-55.2358774038
 20
-104.2860585486
 10
-55.3683894231
 20
-104.3849167217
 10
-55.5107171474
 20
-104.4683502153
 10
-55.6628605769
 20
-104.5363590294
 10
-55.8255208333
 20
-104.5896442858
 10
-55.9972956731
 20
-104.6275048627
 10
-56.1795873397
 20
-104.6499407602
 10
-56.3716947115
 20
-104.6576530999
 10
-56.3716947115
 20
-104.6576530999
 10
-56.4901842949
 20
-104.6548486127
 10
-56.6051682692
 20
-104.647136273
 10
-56.7166466346
 20
-104.6345160807
 10
-56.8253205128
 20
-104.616286914
 10
-56.9311899038
 20
-104.5931498948
 10
-57.0335536859
 20
-104.5644039012
 10
-57.1331129808
 20
-104.530750055
 10
-57.2298677885
 20
-104.4921883563
 10
-57.3231169872
 20
-104.4480176832
 10
-57.4128605769
 20
-104.3989391576
 10
-57.4997996795
 20
-104.3449527794
 10
-57.5839342949
 20
-104.2853574268
 10
-57.6645633013
 20
-104.2208542217
 10
-57.7423878205
 20
-104.1507420422
 10
-57.8167067308
 20
-104.0757220102
 10
-57.8882211538
 20
-103.9957941255
 10
-57.8882211538
 20
-103.9957941255
 10
-57.9884815705
 20
-103.8660865935
 10
-58.0761217949
 20
-103.7307700871
 10
-58.1497395833
 20
-103.5912468499
 10
-58.2100360577
 20
-103.4461146384
 10
-58.2570112179
 20
-103.2960745743
 10
-58.2906650641
 20
-103.1411266576
 10
-58.3102964744
 20
-102.9812708884
 10
-58.3173076923
 20
-102.8165072666
 10
-58.3173076923
 20
-102.8165072666
 10
-58.3138020833
 20
-102.6931098307
 10
-58.3018830128
 20
-102.5718157602
 10
-58.2829527244
 20
-102.452625055
 10
-58.2563100962
 20
-102.3362388371
 10
-58.2219551282
 20
-102.2212548627
 10
-58.1798878205
 20
-102.1090753755
 10
-58.1301081731
 20
-101.9982981319
 10
-58.0726161859
 20
-101.8903253755
 10
-58.0081129808
 20
-101.7858582281
 10
-57.9387019231
 20
-101.6877011768
 10
-57.8629807692
 20
-101.5951530999
 10
-57.781650641
 20
-101.5082139973
 10
-57.6947115385
 20
-101.4275849909
 10
-57.6021634615
 20
-101.3525649589
 10
-57.5040064103
 20
-101.2831539012
 10
-57.4002403846
 20
-101.2200529396
 10
-57.2915665064
 20
-101.1632620743
 10
-57.180088141
 20
-101.1141835486
 10
-57.0644030449
 20
-101.0728173627
 10
-56.9452123397
 20
-101.0384623948
 10
-56.8232171474
 20
-101.0125208884
 10
-56.6970152244
 20
-100.9935905999
 10
-56.5680088141
 20
-100.9816715294
 10
-56.4347956731
 20
-100.9781659204
 10
-56.4347956731
 20
-100.9781659204
 10
-56.3261217949
 20
-100.9809704076
 10
-56.2195512821
 20
-100.9886827473
 10
-56.1143830128
 20
-101.0013029396
 10
-56.0106169872
 20
-101.0188309845
 10
-55.9089543269
 20
-101.0419680037
 10
-55.8086939103
 20
-101.0700128755
 10
-55.7098357372
 20
-101.1029655999
 10
-55.6130809295
 20
-101.1415272986
 10
-55.5170272436
 20
-101.1856979717
 10
-55.4216746795
 20
-101.2354776191
 10
-55.3270232372
 20
-101.2915673627
 10
-55.2330729167
 20
-101.3539672025
 10
-55.1391225962
 20
-101.4226771384
 10
-55.0465745192
 20
-101.4976971704
 10
-54.9540264423
 20
-101.5783261768
 10
-54.8621794872
 20
-101.6652652794
  0
LWPOLYLINE
  5
8E
330
1F
100
AcDbEntity
  8
0
  6
Continuous
 62
     7
100
AcDbPolyline
 90
       14
 70
   128
 43
0.0
 10
-67.8749680519
 20
-102.0102172025
 10
-67.5349559295
 20
-102.0102172025
 10
-67.5349559295
 20
-102.0102172025
 10
-66.6858974359
 20
-103.8723966896
 10
-66.6858974359
 20
-103.8723966896
 10
-65.8368389423
 20
-102.0102172025
 10
-65.8368389423
 20
-102.0102172025
 10
-65.4967948718
 20
-102.0102172025
 10
-65.4967948718
 20
-102.0102172025
 10
-66.6634615385
 20
-104.5679095102
 10
-66.6634615385
 20
-104.5679095102
 10
-66.7083333333
 20
-104.5679095102
 10
-66.7083333333
 20
-104.5679095102
 10
-67.875
 20
-102.0102172025
  0
LWPOLYLINE
  5
8F
330
1F
100
AcDbEntity
  8
0
  6
Continuous
 62
     7
100
AcDbPolyline
 90
      106
 70
   128
 43
0.0
 10
-70.0736641884
 20
-102.1448325871
 10
-70.3878205128
 20
-102.1448325871
 10
-70.3878205128
 20
-102.1448325871
 10
-70.3794070513
 20
-102.0200329076
 10
-70.3611778846
 20
-101.9008422025
 10
-70.3338341346
 20
-101.7879615935
 10
-70.2959735577
 20
-101.6799888371
 10
-70.2489983974
 20
-101.5783261768
 10
-70.1922075321
 20
-101.4815713691
 10
-70.1256009615
 20
-101.3911266576
 10
-70.0491786859
 20
-101.3062909204
 10
-69.9657451923
 20
-101.229167523
 10
-69.8767027244
 20
-101.1625609525
 10
-69.7834535256
 20
-101.1064712089
 10
-69.6859975962
 20
-101.0601971704
 10
-69.5829326923
 20
-101.0244399589
 10
-69.4756610577
 20
-100.9984984525
 10
-69.3634815705
 20
-100.983073773
 10
-69.2463942308
 20
-100.9781659204
 10
-69.2463942308
 20
-100.9781659204
 10
-69.1314102564
 20
-100.983073773
 10
-69.0213341346
 20
-100.9977973307
 10
-68.917568109
 20
-101.0216354717
 10
-68.8187099359
 20
-101.0552893178
 10
-68.726161859
 20
-101.0994599909
 10
-68.6392227564
 20
-101.1527452473
 10
-68.5571915064
 20
-101.2151450871
 10
-68.4814703526
 20
-101.2880617537
 10
-68.4127604167
 20
-101.3672885166
 10
-68.3538661859
 20
-101.4500208884
 10
-68.3033854167
 20
-101.5362588691
 10
-68.2620192308
 20
-101.6253013371
 10
-68.23046875
 20
-101.7185505358
 10
-68.2073317308
 20
-101.8153053435
 10
-68.1940104167
 20
-101.9148646384
 10
-68.1891025641
 20
-102.018630664
 10
-68.1891025641
 20
-102.018630664
 10
-68.1982171474
 20
-102.1644639973
 10
-68.2255608974
 20
-102.3053894781
 10
-68.2704326923
 20
-102.4414071063
 10
-68.3342347756
 20
-102.5732180037
 10
-68.3748998397
 20
-102.6405256961
 10
-68.4239783654
 20
-102.7141434845
 10
-68.4814703526
 20
-102.7933702473
 10
-68.5473758013
 20
-102.8775048627
 10
-68.6223958333
 20
-102.9686506961
 10
-68.7051282051
 20
-103.0647043819
 10
-68.7969751603
 20
-103.1663670422
 10
-68.8972355769
 20
-103.2743397986
 10
-68.8972355769
 20
-103.2743397986
 10
-69.7729366987
 20
-104.2089351512
 10
-69.7729366987
 20
-104.2089351512
 10
-68.1442307692
 20
-104.2089351512
 10
-68.1442307692
 20
-104.2089351512
 10
-68.1442307692
 20
-104.5679095102
 10
-68.1442307692
 20
-104.5679095102
 10
-70.5224358974
 20
-104.5679095102
 10
-70.5224358974
 20
-104.5679095102
 10
-69.1650641026
 20
-103.1193918819
 10
-69.1650641026
 20
-103.1193918819
 10
-69.0662059295
 20
-103.0156258563
 10
-68.9764623397
 20
-102.9188710486
 10
-68.8958333333
 20
-102.8291274589
 10
-68.8243189103
 20
-102.7463950871
 10
-68.7619190705
 20
-102.6699728114
 10
-68.7079326923
 20
-102.6012628755
 10
-68.6637620192
 20
-102.5388630358
 10
-68.6280048077
 20
-102.483474414
 10
-68.5733173077
 20
-102.3783061448
 10
-68.5340544872
 20
-102.2703333884
 10
-68.5109174679
 20
-102.1602572666
 10
-68.5032051282
 20
-102.0466755358
 10
-68.5032051282
 20
-102.0466755358
 10
-68.5067107372
 20
-101.9751611127
 10
-68.5172275641
 20
-101.9064511768
 10
-68.5340544872
 20
-101.8405457281
 10
-68.5578926282
 20
-101.7767436448
 10
-68.589443109
 20
-101.7150449268
 10
-68.6273036859
 20
-101.6568518178
 10
-68.671474359
 20
-101.6007620743
 10
-68.7233573718
 20
-101.5467756961
 10
-68.7801482372
 20
-101.4976971704
 10
-68.8397435897
 20
-101.4549287409
 10
-68.9021434295
 20
-101.4191715294
 10
-68.9680488782
 20
-101.389724414
 10
-69.0374599359
 20
-101.3665873948
 10
-69.108974359
 20
-101.3504615935
 10
-69.183994391
 20
-101.3406458884
 10
-69.2625200321
 20
-101.3371402794
 10
-69.2625200321
 20
-101.3371402794
 10
-69.3445512821
 20
-101.3406458884
 10
-69.4230769231
 20
-101.3504615935
 10
-69.4980969551
 20
-101.3672885166
 10
-69.5696113782
 20
-101.3904255358
 10
-69.6376201923
 20
-101.4198726512
 10
-69.7021233974
 20
-101.4563309845
 10
-69.7631209936
 20
-101.4998005358
 10
-69.8206129808
 20
-101.5495801832
 10
-69.8731971154
 20
-101.604968805
 10
-69.9194711538
 20
-101.6659664012
 10
-69.9601362179
 20
-101.7325729717
 10
-69.9951923077
 20
-101.8040873948
 10
-70.0239383013
 20
-101.8812107922
 10
-70.0463741987
 20
-101.963943164
 10
-70.0632011218
 20
-102.0515833884
 10
-70.0737179487
 20
-102.1448325871
  0
LWPOLYLINE
  5
90
330
1F
100
AcDbEntity
  8
0
  6
Continuous
 62
     7
100
AcDbPolyline
 90
       12
 70
   128
 43
0.0
 10
-72.470843792
 20
-101.0679095102
 10
-71.8237179487
 20
-101.0679095102
 10
-71.8237179487
 20
-101.0679095102
 10
-71.8237179487
 20
-104.5679095102
 10
-71.8237179487
 20
-104.5679095102
 10
-72.1378205128
 20
-104.5679095102
 10
-72.1378205128
 20
-104.5679095102
 10
-72.1378205128
 20
-101.4268838691
 10
-72.1378205128
 20
-101.4268838691
 10
-72.6762820513
 20
-101.4268838691
 10
-72.6762820513
 20
-101.4268838691
 10
-72.4708533654
 20
-101.0679095102
  0
LWPOLYLINE
  5
91
330
1F
100
AcDbEntity
  8
0
  6
Continuous
 62
     7
100
AcDbPolyline
 90
       24
 70
   128
 43
0.0
 10
-75.0095844269
 20
-102.6832941255
 10
-75.0096153846
 20
-101.6512428435
 10
-75.0096153846
 20
-101.6512428435
 10
-74.6955128205
 20
-101.6512428435
 10
-74.6955128205
 20
-101.6512428435
 10
-74.6955128205
 20
-102.6832941255
 10
-74.6955128205
 20
-102.6832941255
 10
-73.6634615385
 20
-102.6832941255
 10
-73.6634615385
 20
-102.6832941255
 10
-73.6634615385
 20
-102.9973966896
 10
-73.6634615385
 20
-102.9973966896
 10
-74.6955128205
 20
-102.9973966896
 10
-74.6955128205
 20
-102.9973966896
 10
-74.6955128205
 20
-104.0294479717
 10
-74.6955128205
 20
-104.0294479717
 10
-75.0096153846
 20
-104.0294479717
 10
-75.0096153846
 20
-104.0294479717
 10
-75.0096153846
 20
-102.9973966896
 10
-75.0096153846
 20
-102.9973966896
 10
-76.0416666667
 20
-102.9973966896
 10
-76.0416666667
 20
-102.9973966896
 10
-76.0416666667
 20
-102.6832941255
 10
-76.0416666667
 20
-102.6832941255
 10
-75.0096153846
 20
-102.6832941255
  0
LWPOLYLINE
  5
92
330
1F
100
AcDbEntity
  8
0
  6
Continuous
 62
     7
100
AcDbPolyline
 90
       24
 70
   128
 43
0.0
 10
-106.8076491356
 20
-34.9262820513
 10
-106.8076923077
 20
-34.5525841346
 10
-106.8076923077
 20
-34.5525841346
 10
-105.8850160256
 20
-33.8942307692
 10
-105.8850160256
 20
-33.8942307692
 10
-106.8076923077
 20
-33.2358774038
 10
-106.8076923077
 20
-33.2358774038
 10
-106.8076923077
 20
-32.8621794872
 10
-106.8076923077
 20
-32.8621794872
 10
-105.6234975962
 20
-33.70703125
 10
-105.6234975962
 20
-33.70703125
 10
-104.25
 20
-32.7275641026
 10
-104.25
 20
-32.7275641026
 10
-104.25
 20
-33.1012620192
 10
-104.25
 20
-33.1012620192
 10
-105.3612780449
 20
-33.8942307692
 10
-105.3612780449
 20
-33.8942307692
 10
-104.25
 20
-34.6871995192
 10
-104.25
 20
-34.6871995192
 10
-104.25
 20
-35.0608974359
 10
-104.25
 20
-35.0608974359
 10
-105.6234975962
 20
-34.0807291667
 10
-105.6234975962
 20
-34.0807291667
 10
-106.8076923077
 20
-34.9262820513
  0
LWPOLYLINE
  5
93
330
1F
100
AcDbEntity
  8
0
  6
Continuous
 62
     7
100
AcDbPolyline
 90
       70
 70
   128
 43
0.0
 10
-106.8525314331
 20
-36.6524439103
 10
-106.8462540064
 20
-36.5087139423
 10
-106.8259214744
 20
-36.3719951923
 10
-106.79296875
 20
-36.2408854167
 10
-106.7473958333
 20
-36.1160857372
 10
-106.6878004808
 20
-35.9982972756
 10
-106.6155849359
 20
-35.8861177885
 10
-106.5300480769
 20
-35.7802483974
 10
-106.4311899038
 20
-35.6806891026
 10
-106.4311899038
 20
-35.6806891026
 10
-106.3330328526
 20
-35.5986578526
 10
-106.2299679487
 20
-35.5271434295
 10
-106.1233974359
 20
-35.4668469551
 10
-106.0119190705
 20
-35.4177684295
 10
-105.8955328526
 20
-35.3792067308
 10
-105.7756410256
 20
-35.3518629808
 10
-105.6508413462
 20
-35.3357371795
 10
-105.5218349359
 20
-35.3301282051
 10
-105.5218349359
 20
-35.3301282051
 10
-105.3921274038
 20
-35.3357371795
 10
-105.2666266026
 20
-35.3532652244
 10
-105.1453325321
 20
-35.3820112179
 10
-105.0275440705
 20
-35.4226762821
 10
-104.9146634615
 20
-35.4745592949
 10
-104.8052884615
 20
-35.5383613782
 10
-104.7008213141
 20
-35.6133814103
 10
-104.5998597756
 20
-35.7003205128
 10
-104.5073116987
 20
-35.7963741987
 10
-104.4273838141
 20
-35.8987379808
 10
-104.359375
 20
-36.007411859
 10
-104.3039863782
 20
-36.1230969551
 10
-104.2605168269
 20
-36.2457932692
 10
-104.2296674679
 20
-36.3747996795
 10
-104.2114383013
 20
-36.5101161859
 10
-104.2051282051
 20
-36.6524439103
 10
-104.2051282051
 20
-36.6524439103
 10
-104.2114383013
 20
-36.7954727564
 10
-104.2296674679
 20
-36.9314903846
 10
-104.2605168269
 20
-37.0604967949
 10
-104.3039863782
 20
-37.183193109
 10
-104.359375
 20
-37.2995793269
 10
-104.4273838141
 20
-37.4089543269
 10
-104.5073116987
 20
-37.511318109
 10
-104.5998597756
 20
-37.6073717949
 10
-104.7008213141
 20
-37.6943108974
 10
-104.8052884615
 20
-37.7693309295
 10
-104.9146634615
 20
-37.8331330128
 10
-105.0275440705
 20
-37.8850160256
 10
-105.1453325321
 20
-37.9256810897
 10
-105.2666266026
 20
-37.9544270833
 10
-105.3921274038
 20
-37.9719551282
 10
-105.5218349359
 20
-37.9775641026
 10
-105.5218349359
 20
-37.9775641026
 10
-105.6501402244
 20
-37.9719551282
 10
-105.7749399038
 20
-37.9558293269
 10
-105.8948317308
 20
-37.9284855769
 10
-106.0098157051
 20
-37.8899238782
 10
-106.1212940705
 20
-37.8408453526
 10
-106.2285657051
 20
-37.7805488782
 10
-106.3309294872
 20
-37.7090344551
 10
-106.4290865385
 20
-37.6270032051
 10
-106.4290865385
 20
-37.6270032051
 10
-106.5286458333
 20
-37.5274439103
 10
-106.6141826923
 20
-37.4215745192
 10
-106.687099359
 20
-37.3093950321
 10
-106.7466947115
 20
-37.1902043269
 10
-106.79296875
 20
-37.0654046474
 10
-106.8259214744
 20
-36.9342948718
 10
-106.8462540064
 20
-36.7961738782
 10
-106.8525641026
 20
-36.6524439103
  0
LWPOLYLINE
  5
94
330
1F
100
AcDbEntity
  8
0
  6
Continuous
 62
     7
100
AcDbPolyline
 90
       60
 70
   128
 43
0.0
 10
-106.5384149551
 20
-36.6538461538
 10
-106.5335536859
 20
-36.7555088141
 10
-106.51953125
 20
-36.8536658654
 10
-106.4963942308
 20
-36.9483173077
 10
-106.4641426282
 20
-37.0387620192
 10
-106.4220753205
 20
-37.1264022436
 10
-106.3708934295
 20
-37.2098357372
 10
-106.3105969551
 20
-37.2897636218
 10
-106.2404847756
 20
-37.3661858974
 10
-106.1640625
 20
-37.4355969551
 10
-106.0834334936
 20
-37.4958934295
 10
-105.9992988782
 20
-37.5470753205
 10
-105.9109575321
 20
-37.5891426282
 10
-105.8191105769
 20
-37.6213942308
 10
-105.723056891
 20
-37.64453125
 10
-105.6234975962
 20
-37.6585536859
 10
-105.5197315705
 20
-37.6634615385
 10
-105.5197315705
 20
-37.6634615385
 10
-105.3858173077
 20
-37.6550480769
 10
-105.2561097756
 20
-37.6298076923
 10
-105.1313100962
 20
-37.5870392628
 10
-105.0114182692
 20
-37.5281450321
 10
-104.9006410256
 20
-37.4545272436
 10
-104.8024839744
 20
-37.3682892628
 10
-104.718349359
 20
-37.2708333333
 10
-104.6475360577
 20
-37.1614583333
 10
-104.5914463141
 20
-37.04296875
 10
-104.5514823718
 20
-36.9188701923
 10
-104.526943109
 20
-36.7891626603
 10
-104.5192307692
 20
-36.6538461538
 10
-104.5192307692
 20
-36.6538461538
 10
-104.526943109
 20
-36.5185296474
 10
-104.5514823718
 20
-36.3888221154
 10
-104.5914463141
 20
-36.2654246795
 10
-104.6475360577
 20
-36.1469350962
 10
-104.718349359
 20
-36.0375600962
 10
-104.8024839744
 20
-35.9394030449
 10
-104.9006410256
 20
-35.8538661859
 10
-105.0114182692
 20
-35.7802483974
 10
-105.1313100962
 20
-35.7206530449
 10
-105.2561097756
 20
-35.6778846154
 10
-105.3858173077
 20
-35.6526442308
 10
-105.5197315705
 20
-35.6442307692
 10
-105.5197315705
 20
-35.6442307692
 10
-105.6234975962
 20
-35.6491386218
 10
-105.723056891
 20
-35.6631610577
 10
-105.8191105769
 20
-35.6862980769
 10
-105.9109575321
 20
-35.7185496795
 10
-105.9992988782
 20
-35.7606169872
 10
-106.0834334936
 20
-35.8125
 10
-106.1640625
 20
-35.8727964744
 10
-106.2404847756
 20
-35.9429086538
 10
-106.3105969551
 20
-36.0193309295
 10
-106.3708934295
 20
-36.0992588141
 10
-106.4220753205
 20
-36.1826923077
 10
-106.4641426282
 20
-36.2696314103
 10
-106.4963942308
 20
-36.3607772436
 10
-106.51953125
 20
-36.4547275641
 10
-106.5335536859
 20
-36.5528846154
 10
-106.5384615385
 20
-36.6538461538
  0
LWPOLYLINE
  5
95
330
1F
100
AcDbEntity
  8
0
  6
Continuous
 62
     7
100
AcDbPolyline
 90
       62
 70
   128
 43
0.0
 10
-104.2499542236
 20
-41.2083333333
 10
-107.8397435897
 20
-41.2083333333
 10
-107.8397435897
 20
-41.2083333333
 10
-107.8397435897
 20
-40.8942307692
 10
-107.8397435897
 20
-40.8942307692
 10
-106.3435496795
 20
-40.8942307692
 10
-106.3435496795
 20
-40.8942307692
 10
-106.4634415064
 20
-40.785556891
 10
-106.5665064103
 20
-40.6712740385
 10
-106.6541466346
 20
-40.5499799679
 10
-106.7256610577
 20
-40.4230769231
 10
-106.7810496795
 20
-40.2891626603
 10
-106.8210136218
 20
-40.1496394231
 10
-106.8448517628
 20
-40.0031049679
 10
-106.8525641026
 20
-39.8509615385
 10
-106.8525641026
 20
-39.8509615385
 10
-106.8462540064
 20
-39.7156450321
 10
-106.8280248397
 20
-39.5845352564
 10
-106.7978766026
 20
-39.4590344551
 10
-106.7558092949
 20
-39.3384415064
 10
-106.7011217949
 20
-39.2234575321
 10
-106.6345152244
 20
-39.1126802885
 10
-106.5559895833
 20
-39.0075120192
 10
-106.46484375
 20
-38.9072516026
 10
-106.3652844551
 20
-38.8154046474
 10
-106.2608173077
 20
-38.7361778846
 10
-106.1507411859
 20
-38.6688701923
 10
-106.0357572115
 20
-38.6134815705
 10
-105.9158653846
 20
-38.570713141
 10
-105.7903645833
 20
-38.5405649038
 10
-105.6599559295
 20
-38.5223357372
 10
-105.5239383013
 20
-38.516025641
 10
-105.5239383013
 20
-38.516025641
 10
-105.3900240385
 20
-38.5223357372
 10
-105.2610176282
 20
-38.5405649038
 10
-105.1369190705
 20
-38.5714142628
 10
-105.0177283654
 20
-38.6148838141
 10
-104.9034455128
 20
-38.6702724359
 10
-104.7947716346
 20
-38.73828125
 10
-104.6903044872
 20
-38.8182091346
 10
-104.5914463141
 20
-38.9107572115
 10
-104.5010016026
 20
-39.01171875
 10
-104.4224759615
 20
-39.1182892628
 10
-104.355869391
 20
-39.2290665064
 10
-104.3018830128
 20
-39.3454527244
 10
-104.2591145833
 20
-39.4667467949
 10
-104.2289663462
 20
-39.5929487179
 10
-104.2114383013
 20
-39.7247596154
 10
-104.2051282051
 20
-39.8607772436
 10
-104.2051282051
 20
-39.8607772436
 10
-104.2128405449
 20
-40.0164262821
 10
-104.2359775641
 20
-40.1643629808
 10
-104.2752403846
 20
-40.3045873397
 10
-104.3292267628
 20
-40.4378004808
 10
-104.4000400641
 20
-40.5633012821
 10
-104.4897836538
 20
-40.6810897436
 10
-104.5970552885
 20
-40.7911658654
 10
-104.7232572115
 20
-40.8942307692
 10
-104.7232572115
 20
-40.8942307692
 10
-104.25
 20
-40.8942307692
 10
-104.25
 20
-40.8942307692
 10
-104.25
 20
-41.2083333333
  0
LWPOLYLINE
  5
96
330
1F
100
AcDbEntity
  8
0
  6
Continuous
 62
     7
100
AcDbPolyline
 90
       56
 70
   128
 43
0.0
 10
-104.5191884041
 20
-39.8635817308
 10
-104.5276442308
 20
-39.726161859
 10
-104.5521834936
 20
-39.5943509615
 10
-104.5935496795
 20
-39.4681490385
 10
-104.6510416667
 20
-39.3468549679
 10
-104.7232572115
 20
-39.2346754808
 10
-104.8094951923
 20
-39.1344150641
 10
-104.9083533654
 20
-39.0460737179
 10
-105.0212339744
 20
-38.9703525641
 10
-105.1418269231
 20
-38.9086538462
 10
-105.2659254808
 20
-38.8651842949
 10
-105.3928285256
 20
-38.8385416667
 10
-105.5239383013
 20
-38.8301282051
 10
-105.5239383013
 20
-38.8301282051
 10
-105.6550480769
 20
-38.8392427885
 10
-105.7833533654
 20
-38.8651842949
 10
-105.9081530449
 20
-38.9100560897
 10
-106.0301482372
 20
-38.9717548077
 10
-106.1437299679
 20
-39.0481770833
 10
-106.2439903846
 20
-39.1365184295
 10
-106.3309294872
 20
-39.2374799679
 10
-106.4045472756
 20
-39.3503605769
 10
-106.4634415064
 20
-39.4709535256
 10
-106.5048076923
 20
-39.5964543269
 10
-106.5300480769
 20
-39.7254607372
 10
-106.5384615385
 20
-39.8586738782
 10
-106.5384615385
 20
-39.8586738782
 10
-106.5300480769
 20
-39.9946915064
 10
-106.5048076923
 20
-40.1265024038
 10
-106.4634415064
 20
-40.2555088141
 10
-106.4045472756
 20
-40.3810096154
 10
-106.331630609
 20
-40.4973958333
 10
-106.2474959936
 20
-40.5997596154
 10
-106.1514423077
 20
-40.6881009615
 10
-106.0441706731
 20
-40.76171875
 10
-105.9270833333
 20
-40.819911859
 10
-105.8029847756
 20
-40.8612780449
 10
-105.671875
 20
-40.8858173077
 10
-105.5337540064
 20
-40.8942307692
 10
-105.5337540064
 20
-40.8942307692
 10
-105.4278846154
 20
-40.8893229167
 10
-105.3262219551
 20
-40.8753004808
 10
-105.2287660256
 20
-40.8521634615
 10
-105.1362179487
 20
-40.819911859
 10
-105.0478766026
 20
-40.7778445513
 10
-104.964443109
 20
-40.7266626603
 10
-104.8852163462
 20
-40.6663661859
 10
-104.8101963141
 20
-40.5969551282
 10
-104.7421875
 20
-40.5205328526
 10
-104.6825921474
 20
-40.4392027244
 10
-104.6328125
 20
-40.3543669872
 10
-104.5921474359
 20
-40.2646233974
 10
-104.5598958333
 20
-40.1706730769
 10
-104.5374599359
 20
-40.0725160256
 10
-104.5234375
 20
-39.9701522436
 10
-104.5192307692
 20
-39.8635817308
  0
LWPOLYLINE
  5
97
330
1F
100
AcDbEntity
  8
0
  6
Continuous
 62
     7
100
AcDbPolyline
 90
       16
 70
   128
 43
0.0
 10
-106.8076491356
 20
-44.0801282051
 10
-106.8076923077
 20
-43.7414863782
 10
-106.8076923077
 20
-43.7414863782
 10
-104.8487580128
 20
-42.8756009615
 10
-104.8487580128
 20
-42.8756009615
 10
-106.8076923077
 20
-41.9963942308
 10
-106.8076923077
 20
-41.9963942308
 10
-106.8076923077
 20
-41.6570512821
 10
-106.8076923077
 20
-41.6570512821
 10
-103.3076923077
 20
-43.2275641026
 10
-103.3076923077
 20
-43.2275641026
 10
-103.3076923077
 20
-43.5669070513
 10
-103.3076923077
 20
-43.5669070513
 10
-104.4680488782
 20
-43.0459735577
 10
-104.4680488782
 20
-43.0459735577
 10
-106.8076923077
 20
-44.0801282051
  0
LWPOLYLINE
  5
98
330
1F
100
AcDbEntity
  8
0
  6
Continuous
 62
     7
100
AcDbPolyline
 90
       62
 70
   128
 43
0.0
 10
-106.8076491356
 20
-44.5288461538
 10
-104.25
 20
-44.5288461538
 10
-104.25
 20
-44.5288461538
 10
-104.25
 20
-44.8429487179
 10
-104.25
 20
-44.8429487179
 10
-104.6924078526
 20
-44.8429487179
 10
-104.6924078526
 20
-44.8429487179
 10
-104.574619391
 20
-44.9516225962
 10
-104.4729567308
 20
-45.0659054487
 10
-104.3895232372
 20
-45.187900641
 10
-104.3222155449
 20
-45.3155048077
 10
-104.2710336538
 20
-45.4494190705
 10
-104.2345753205
 20
-45.5889423077
 10
-104.2121394231
 20
-45.7354767628
 10
-104.2051282051
 20
-45.8876201923
 10
-104.2051282051
 20
-45.8876201923
 10
-104.2114383013
 20
-46.0229366987
 10
-104.2296674679
 20
-46.1533453526
 10
-104.2598157051
 20
-46.2788461538
 10
-104.3018830128
 20
-46.3994391026
 10
-104.3565705128
 20
-46.5144230769
 10
-104.4231770833
 20
-46.6252003205
 10
-104.5017027244
 20
-46.7303685897
 10
-104.5928485577
 20
-46.8306290064
 10
-104.6924078526
 20
-46.9224759615
 10
-104.796875
 20
-47.0017027244
 10
-104.9069511218
 20
-47.0683092949
 10
-105.0226362179
 20
-47.1236979167
 10
-105.1432291667
 20
-47.1664663462
 10
-105.2687299679
 20
-47.1966145833
 10
-105.3998397436
 20
-47.21484375
 10
-105.5358573718
 20
-47.2211538462
 10
-105.5358573718
 20
-47.2211538462
 10
-105.6690705128
 20
-47.21484375
 10
-105.7980769231
 20
-47.1966145833
 10
-105.921474359
 20
-47.1657652244
 10
-106.0406650641
 20
-47.1222956731
 10
-106.1542467949
 20
-47.0669070513
 10
-106.2629206731
 20
-46.999599359
 10
-106.3673878205
 20
-46.9196714744
 10
-106.4662459936
 20
-46.8271233974
 10
-106.5566907051
 20
-46.726161859
 10
-106.6352163462
 20
-46.6195913462
 10
-106.7018229167
 20
-46.5088141026
 10
-106.7558092949
 20
-46.3924278846
 10
-106.7985777244
 20
-46.2711338141
 10
-106.8287259615
 20
-46.144931891
 10
-106.8462540064
 20
-46.0138221154
 10
-106.8525641026
 20
-45.8778044872
 10
-106.8525641026
 20
-45.8778044872
 10
-106.8448517628
 20
-45.7214543269
 10
-106.8217147436
 20
-45.5728165064
 10
-106.7824519231
 20
-45.4318910256
 10
-106.7284655449
 20
-45.2986778846
 10
-106.6569511218
 20
-45.1731770833
 10
-106.5679086538
 20
-45.0546875
 10
-106.4599358974
 20
-44.9453125
 10
-106.3344350962
 20
-44.8429487179
 10
-106.3344350962
 20
-44.8429487179
 10
-106.8076923077
 20
-44.8429487179
 10
-106.8076923077
 20
-44.8429487179
 10
-106.8076923077
 20
-44.5288461538
  0
LWPOLYLINE
  5
99
330
1F
100
AcDbEntity
  8
0
  6
Continuous
 62
     7
100
AcDbPolyline
 90
       56
 70
   128
 43
0.0
 10
-106.5384149551
 20
-45.8735977564
 10
-106.5300480769
 20
-46.0110176282
 10
-106.5055088141
 20
-46.1428285256
 10
-106.4641426282
 20
-46.2690304487
 10
-106.406650641
 20
-46.3903245192
 10
-106.3337339744
 20
-46.5025040064
 10
-106.2481971154
 20
-46.6027644231
 10
-106.1486378205
 20
-46.6911057692
 10
-106.0364583333
 20
-46.7675280449
 10
-105.9158653846
 20
-46.828525641
 10
-105.7910657051
 20
-46.8719951923
 10
-105.6634615385
 20
-46.8986378205
 10
-105.5323517628
 20
-46.9070512821
 10
-105.5323517628
 20
-46.9070512821
 10
-105.401943109
 20
-46.8979366987
 10
-105.2743389423
 20
-46.8719951923
 10
-105.1502403846
 20
-46.8278245192
 10
-105.0282451923
 20
-46.7661258013
 10
-104.9146634615
 20
-46.6890024038
 10
-104.8137019231
 20
-46.6006610577
 10
-104.7267628205
 20
-46.4996995192
 10
-104.6531450321
 20
-46.3868189103
 10
-104.5942508013
 20
-46.2655248397
 10
-104.5528846154
 20
-46.1400240385
 10
-104.5276442308
 20
-46.0103165064
 10
-104.5192307692
 20
-45.8764022436
 10
-104.5192307692
 20
-45.8764022436
 10
-104.5276442308
 20
-45.7403846154
 10
-104.5521834936
 20
-45.6078725962
 10
-104.5942508013
 20
-45.4795673077
 10
-104.6524439103
 20
-45.3547676282
 10
-104.7246594551
 20
-45.2390825321
 10
-104.8087940705
 20
-45.13671875
 10
-104.9041466346
 20
-45.0497796474
 10
-105.012119391
 20
-44.976161859
 10
-105.1292067308
 20
-44.91796875
 10
-105.2533052885
 20
-44.8759014423
 10
-105.3844150641
 20
-44.8513621795
 10
-105.5232371795
 20
-44.8429487179
 10
-105.5232371795
 20
-44.8429487179
 10
-105.6291065705
 20
-44.8478565705
 10
-105.7307692308
 20
-44.8618790064
 10
-105.8282251603
 20
-44.8850160256
 10
-105.9207732372
 20
-44.9172676282
 10
-106.0091145833
 20
-44.9593349359
 10
-106.0932491987
 20
-45.0105168269
 10
-106.1724759615
 20
-45.0708133013
 10
-106.2474959936
 20
-45.1409254808
 10
-106.3155048077
 20
-45.2173477564
 10
-106.3751001603
 20
-45.2979767628
 10
-106.4248798077
 20
-45.3835136218
 10
-106.4655448718
 20
-45.4725560897
 10
-106.4977964744
 20
-45.5665064103
 10
-106.5202323718
 20
-45.6646634615
 10
-106.5342548077
 20
-45.7670272436
 10
-106.5384615385
 20
-45.8735977564
  0
LWPOLYLINE
  5
9A
330
1F
100
AcDbEntity
  8
0
  6
Continuous
 62
     7
100
AcDbPolyline
 90
       53
 70
   128
 43
0.0
 10
-106.8076491356
 20
-48.7019230769
 10
-106.8076923077
 20
-48.3878205128
 10
-106.8076923077
 20
-48.3878205128
 10
-106.4311899038
 20
-48.3878205128
 10
-106.4311899038
 20
-48.3878205128
 10
-106.5349559295
 20
-48.3163060897
 10
-106.6232972756
 20
-48.2426883013
 10
-106.6962139423
 20
-48.1676682692
 10
-106.7537059295
 20
-48.0905448718
 10
-106.7971754808
 20
-48.011318109
 10
-106.8280248397
 20
-47.9299879808
 10
-106.8462540064
 20
-47.8479567308
 10
-106.8525641026
 20
-47.7638221154
 10
-106.8525641026
 20
-47.7638221154
 10
-106.8469551282
 20
-47.6986177885
 10
-106.8308293269
 20
-47.6313100962
 10
-106.8034855769
 20
-47.5618990385
 10
-106.7649238782
 20
-47.4903846154
 10
-106.7649238782
 20
-47.4903846154
 10
-106.4928886218
 20
-47.6628605769
 10
-106.4928886218
 20
-47.6628605769
 10
-106.5125200321
 20
-47.7084334936
 10
-106.5272435897
 20
-47.7505008013
 10
-106.5356570513
 20
-47.7890625
 10
-106.5384615385
 20
-47.8234174679
 10
-106.5384615385
 20
-47.8234174679
 10
-106.5300480769
 20
-47.8984375
 10
-106.5048076923
 20
-47.9727564103
 10
-106.4634415064
 20
-48.0449719551
 10
-106.4045472756
 20
-48.1164863782
 10
-106.3687900641
 20
-48.1508413462
 10
-106.328125
 20
-48.1830929487
 10
-106.2825520833
 20
-48.2125400641
 10
-106.2327724359
 20
-48.2405849359
 10
-106.1787860577
 20
-48.2665264423
 10
-106.1191907051
 20
-48.2903645833
 10
-106.0553886218
 20
-48.312099359
 10
-105.9873798077
 20
-48.3317307692
 10
-105.9873798077
 20
-48.3317307692
 10
-105.9263822115
 20
-48.3450520833
 10
-105.8506610577
 20
-48.3562700321
 10
-105.7623197115
 20
-48.3660857372
 10
-105.6592548077
 20
-48.3737980769
 10
-105.5428685897
 20
-48.3801081731
 10
-105.4117588141
 20
-48.3843149038
 10
-105.2680288462
 20
-48.387119391
 10
-105.1095753205
 20
-48.3878205128
 10
-105.1095753205
 20
-48.3878205128
 10
-104.25
 20
-48.3878205128
 10
-104.25
 20
-48.3878205128
 10
-104.25
 20
-48.7019230769
 10
-104.25
 20
-48.7019230769
 10
-106.8076923077
 20
-48.7019230769
  0
LWPOLYLINE
  5
9B
330
1F
100
AcDbEntity
  8
0
  6
Continuous
 62
     7
100
AcDbPolyline
 90
       62
 70
   128
 43
0.0
 10
-106.8076491356
 20
-51.9326923077
 10
-106.8076923077
 20
-51.6185897436
 10
-106.8076923077
 20
-51.6185897436
 10
-106.3344350962
 20
-51.6185897436
 10
-106.3344350962
 20
-51.6185897436
 10
-106.4599358974
 20
-51.5155248397
 10
-106.5679086538
 20
-51.4054487179
 10
-106.6569511218
 20
-51.2876602564
 10
-106.7284655449
 20
-51.1621594551
 10
-106.7824519231
 20
-51.0289463141
 10
-106.8217147436
 20
-50.8887219551
 10
-106.8448517628
 20
-50.7407852564
 10
-106.8525641026
 20
-50.5851362179
 10
-106.8525641026
 20
-50.5851362179
 10
-106.8462540064
 20
-50.4491185897
 10
-106.8287259615
 20
-50.3173076923
 10
-106.7985777244
 20
-50.1911057692
 10
-106.7558092949
 20
-50.0698116987
 10
-106.7018229167
 20
-49.9534254808
 10
-106.6352163462
 20
-49.8426482372
 10
-106.5566907051
 20
-49.7360777244
 10
-106.4662459936
 20
-49.6351161859
 10
-106.3673878205
 20
-49.542568109
 10
-106.2629206731
 20
-49.4626402244
 10
-106.1542467949
 20
-49.3946314103
 10
-106.0406650641
 20
-49.3392427885
 10
-105.921474359
 20
-49.2957732372
 10
-105.7980769231
 20
-49.2649238782
 10
-105.6690705128
 20
-49.2466947115
 10
-105.5358573718
 20
-49.2403846154
 10
-105.5358573718
 20
-49.2403846154
 10
-105.3998397436
 20
-49.2466947115
 10
-105.2687299679
 20
-49.2649238782
 10
-105.1432291667
 20
-49.2950721154
 10
-105.0226362179
 20
-49.3378405449
 10
-104.9069511218
 20
-49.3932291667
 10
-104.796875
 20
-49.460536859
 10
-104.6924078526
 20
-49.5397636218
 10
-104.5928485577
 20
-49.6316105769
 10
-104.5017027244
 20
-49.7318709936
 10
-104.4231770833
 20
-49.8370392628
 10
-104.3565705128
 20
-49.9478165064
 10
-104.3018830128
 20
-50.0628004808
 10
-104.2598157051
 20
-50.1833934295
 10
-104.2296674679
 20
-50.3088942308
 10
-104.2114383013
 20
-50.4400040064
 10
-104.2051282051
 20
-50.5753205128
 10
-104.2051282051
 20
-50.5753205128
 10
-104.2128405449
 20
-50.7274639423
 10
-104.2366786859
 20
-50.8739983974
 10
-104.2766426282
 20
-51.0135216346
 10
-104.3327323718
 20
-51.1474358974
 10
-104.4042467949
 20
-51.2743389423
 10
-104.4918870192
 20
-51.3956330128
 10
-104.5949519231
 20
-51.5099158654
 10
-104.7134415064
 20
-51.6185897436
 10
-104.7134415064
 20
-51.6185897436
 10
-103.3076923077
 20
-51.6185897436
 10
-103.3076923077
 20
-51.6185897436
 10
-103.3076923077
 20
-51.9326923077
 10
-103.3076923077
 20
-51.9326923077
 10
-106.8076923077
 20
-51.9326923077
  0
LWPOLYLINE
  5
9C
330
1F
100
AcDbEntity
  8
0
  6
Continuous
 62
     7
100
AcDbPolyline
 90
       56
 70
   128
 43
0.0
 10
-106.5384149551
 20
-50.5879407051
 10
-106.5342548077
 20
-50.6945112179
 10
-106.5202323718
 20
-50.796875
 10
-106.4977964744
 20
-50.8950320513
 10
-106.4655448718
 20
-50.9889823718
 10
-106.4248798077
 20
-51.0787259615
 10
-106.3751001603
 20
-51.1635616987
 10
-106.3155048077
 20
-51.2448918269
 10
-106.2474959936
 20
-51.3213141026
 10
-106.1724759615
 20
-51.3907251603
 10
-106.0932491987
 20
-51.4510216346
 10
-106.0091145833
 20
-51.5022035256
 10
-105.9207732372
 20
-51.5442708333
 10
-105.8282251603
 20
-51.5765224359
 10
-105.7307692308
 20
-51.5996594551
 10
-105.6291065705
 20
-51.613681891
 10
-105.5232371795
 20
-51.6185897436
 10
-105.5232371795
 20
-51.6185897436
 10
-105.3844150641
 20
-51.6101762821
 10
-105.2533052885
 20
-51.5856370192
 10
-105.1292067308
 20
-51.5442708333
 10
-105.012119391
 20
-51.4860777244
 10
-104.9041466346
 20
-51.4124599359
 10
-104.8087940705
 20
-51.3241185897
 10
-104.7246594551
 20
-51.2217548077
 10
-104.6524439103
 20
-51.1053685897
 10
-104.5942508013
 20
-50.9798677885
 10
-104.5521834936
 20
-50.8508613782
 10
-104.5276442308
 20
-50.7190504808
 10
-104.5192307692
 20
-50.5830328526
 10
-104.5192307692
 20
-50.5830328526
 10
-104.5276442308
 20
-50.4498197115
 10
-104.5528846154
 20
-50.3208133013
 10
-104.5942508013
 20
-50.1953125
 10
-104.6531450321
 20
-50.0747195513
 10
-104.7267628205
 20
-49.9618389423
 10
-104.8137019231
 20
-49.8608774038
 10
-104.9146634615
 20
-49.7725360577
 10
-105.0282451923
 20
-49.6961137821
 10
-105.1502403846
 20
-49.6344150641
 10
-105.2743389423
 20
-49.5895432692
 10
-105.401943109
 20
-49.5636017628
 10
-105.5323517628
 20
-49.5544871795
 10
-105.5323517628
 20
-49.5544871795
 10
-105.6634615385
 20
-49.562900641
 10
-105.7910657051
 20
-49.5895432692
 10
-105.9158653846
 20
-49.6330128205
 10
-106.0364583333
 20
-49.6947115385
 10
-106.1486378205
 20
-49.7704326923
 10
-106.2481971154
 20
-49.8587740385
 10
-106.3337339744
 20
-49.9590344551
 10
-106.406650641
 20
-50.0712139423
 10
-106.4641426282
 20
-50.1925080128
 10
-106.5055088141
 20
-50.3187099359
 10
-106.5300480769
 20
-50.4505208333
 10
-106.5384615385
 20
-50.5879407051
  0
LWPOLYLINE
  5
9D
330
1F
100
AcDbEntity
  8
0
  6
Continuous
 62
     7
100
AcDbPolyline
 90
      171
 70
   128
 43
0.0
 10
-104.9251556396
 20
-54.625
 10
-105.1025641026
 20
-54.3291266026
 10
-105.1025641026
 20
-54.3291266026
 10
-104.9658453526
 20
-54.2442908654
 10
-104.8473557692
 20
-54.156650641
 10
-104.7470953526
 20
-54.0655048077
 10
-104.6650641026
 20
-53.9708533654
 10
-104.6012620192
 20
-53.8733974359
 10
-104.5556891026
 20
-53.7724358974
 10
-104.5283453526
 20
-53.66796875
 10
-104.5192307692
 20
-53.5606971154
 10
-104.5192307692
 20
-53.5606971154
 10
-104.5241386218
 20
-53.4688501603
 10
-104.5395633013
 20
-53.3798076923
 10
-104.5655048077
 20
-53.2935697115
 10
-104.6012620192
 20
-53.2101362179
 10
-104.6454326923
 20
-53.1330128205
 10
-104.6966145833
 20
-53.0657051282
 10
-104.7555088141
 20
-53.008213141
 10
-104.820713141
 20
-52.960536859
 10
-104.8901241987
 20
-52.9233774038
 10
-104.9623397436
 20
-52.8960336538
 10
-105.0359575321
 20
-52.8806089744
 10
-105.1123798077
 20
-52.875
 10
-105.1123798077
 20
-52.875
 10
-105.1993189103
 20
-52.8827123397
 10
-105.285556891
 20
-52.9065504808
 10
-105.37109375
 20
-52.9458133013
 10
-105.4559294872
 20
-53.0005008013
 10
-105.4559294872
 20
-53.0005008013
 10
-105.5155248397
 20
-53.0481770833
 10
-105.5779246795
 20
-53.1042668269
 10
-105.6431290064
 20
-53.1701722756
 10
-105.7111378205
 20
-53.2444911859
 10
-105.7826522436
 20
-53.3279246795
 10
-105.8569711538
 20
-53.4197716346
 10
-105.9340945513
 20
-53.5214342949
 10
-106.0140224359
 20
-53.6315104167
 10
-106.0140224359
 20
-53.6315104167
 10
-106.0932491987
 20
-53.7415865385
 10
-106.167568109
 20
-53.8404447115
 10
-106.2355769231
 20
-53.9280849359
 10
-106.2979767628
 20
-54.0052083333
 10
-106.3547676282
 20
-54.0718149038
 10
-106.4052483974
 20
-54.1272035256
 10
-106.4508213141
 20
-54.1713741987
 10
-106.4900841346
 20
-54.2050280449
 10
-106.4900841346
 20
-54.2050280449
 10
-106.5524839744
 20
-54.2506009615
 10
-106.6155849359
 20
-54.2905649038
 10
-106.680088141
 20
-54.32421875
 10
-106.7459935897
 20
-54.3515625
 10
-106.8133012821
 20
-54.3732972756
 10
-106.8820112179
 20
-54.3887219551
 10
-106.9521233974
 20
-54.3978365385
 10
-107.0229366987
 20
-54.4006410256
 10
-107.0229366987
 20
-54.4006410256
 10
-107.1337139423
 20
-54.3936298077
 10
-107.2402844551
 20
-54.3725961538
 10
-107.3412459936
 20
-54.3382411859
 10
-107.4372996795
 20
-54.2898637821
 10
-107.5256410256
 20
-54.2281650641
 10
-107.6048677885
 20
-54.1559495192
 10
-107.6735777244
 20
-54.0718149038
 10
-107.7324719551
 20
-53.9771634615
 10
-107.7794471154
 20
-53.8740985577
 10
-107.8131009615
 20
-53.7661258013
 10
-107.8327323718
 20
-53.6546474359
 10
-107.8397435897
 20
-53.5382612179
 10
-107.8397435897
 20
-53.5382612179
 10
-107.83203125
 20
-53.4148637821
 10
-107.808193109
 20
-53.2949719551
 10
-107.7689302885
 20
-53.1799879808
 10
-107.7135416667
 20
-53.0685096154
 10
-107.6784855769
 20
-53.0131209936
 10
-107.637119391
 20
-52.9577323718
 10
-107.5887419872
 20
-52.9009415064
 10
-107.5333533654
 20
-52.8434495192
 10
-107.4716546474
 20
-52.7852564103
 10
-107.4036458333
 20
-52.7263621795
 10
-107.3286258013
 20
-52.6660657051
 10
-107.2472956731
 20
-52.6057692308
 10
-107.2472956731
 20
-52.6057692308
 10
-107.0320512821
 20
-52.8897235577
 10
-107.0320512821
 20
-52.8897235577
 10
-107.0979567308
 20
-52.9416065705
 10
-107.1575520833
 20
-52.9913862179
 10
-107.2115384615
 20
-53.0390625
 10
-107.2592147436
 20
-53.0853365385
 10
-107.3019831731
 20
-53.1288060897
 10
-107.3384415064
 20
-53.1708733974
 10
-107.3692908654
 20
-53.2115384615
 10
-107.3938301282
 20
-53.2493990385
 10
-107.4316907051
 20
-53.3251201923
 10
-107.4590344551
 20
-53.4043469551
 10
-107.4751602564
 20
-53.4870793269
 10
-107.4807692308
 20
-53.5733173077
 10
-107.4807692308
 20
-53.5733173077
 10
-107.473056891
 20
-53.6812900641
 10
-107.4485176282
 20
-53.7787459936
 10
-107.4092548077
 20
-53.8656850962
 10
-107.3531650641
 20
-53.9428084936
 10
-107.28515625
 20
-54.0059094551
 10
-107.2101362179
 20
-54.05078125
 10
-107.1274038462
 20
-54.0774238782
 10
-107.0376602564
 20
-54.0865384615
 10
-107.0376602564
 20
-54.0865384615
 10
-106.9815705128
 20
-54.0837339744
 10
-106.9254807692
 20
-54.0739182692
 10
-106.871494391
 20
-54.0591947115
 10
-106.8175080128
 20
-54.0374599359
 10
-106.7628205128
 20
-54.0073116987
 10
-106.7060296474
 20
-53.9673477564
 10
-106.6471354167
 20
-53.9168669872
 10
-106.5854366987
 20
-53.855869391
 10
-106.5854366987
 20
-53.855869391
 10
-106.5651041667
 20
-53.8327323718
 10
-106.5384615385
 20
-53.7997796474
 10
-106.5055088141
 20
-53.7563100962
 10
-106.46484375
 20
-53.7023237179
 10
-106.4178685897
 20
-53.6385216346
 10
-106.3645833333
 20
-53.5642027244
 10
-106.304286859
 20
-53.480068109
 10
-106.2369791667
 20
-53.3854166667
 10
-106.2369791667
 20
-53.3854166667
 10
-106.1535456731
 20
-53.2718349359
 10
-106.0729166667
 20
-53.1673677885
 10
-105.9943910256
 20
-53.0727163462
 10
-105.91796875
 20
-52.9871794872
 10
-105.8443509615
 20
-52.9107572115
 10
-105.7728365385
 20
-52.8434495192
 10
-105.7034254808
 20
-52.7852564103
 10
-105.6368189103
 20
-52.7368790064
 10
-105.5050080128
 20
-52.659755609
 10
-105.3724959936
 20
-52.605068109
 10
-105.2399839744
 20
-52.5721153846
 10
-105.1074719551
 20
-52.5608974359
 10
-105.1074719551
 20
-52.5608974359
 10
-105.0135216346
 20
-52.5651041667
 10
-104.9223758013
 20
-52.5791266026
 10
-104.8347355769
 20
-52.6015625
 10
-104.7498998397
 20
-52.6338141026
 10
-104.6685697115
 20
-52.6744791667
 10
-104.5900440705
 20
-52.7249599359
 10
-104.5150240385
 20
-52.7838541667
 10
-104.4428084936
 20
-52.8525641026
 10
-104.3769030449
 20
-52.9275841346
 10
-104.3194110577
 20
-53.0061097756
 10
-104.2703325321
 20
-53.0888421474
 10
-104.2310697115
 20
-53.1750801282
 10
-104.2002203526
 20
-53.2655248397
 10
-104.1777844551
 20
-53.3601762821
 10
-104.164463141
 20
-53.4583333333
 10
-104.1602564103
 20
-53.5606971154
 10
-104.1602564103
 20
-53.5606971154
 10
-104.1630608974
 20
-53.6399238782
 10
-104.171474359
 20
-53.7177483974
 10
-104.1847956731
 20
-53.7934695513
 10
-104.2044270833
 20
-53.8670873397
 10
-104.2289663462
 20
-53.9386017628
 10
-104.2591145833
 20
-54.0087139423
 10
-104.2948717949
 20
-54.0767227564
 10
-104.3362379808
 20
-54.1433293269
 10
-104.3839142628
 20
-54.2078325321
 10
-104.4393028846
 20
-54.2709334936
 10
-104.5017027244
 20
-54.3333333333
 10
-104.5711137821
 20
-54.3943309295
 10
-104.6489383013
 20
-54.4539262821
 10
-104.7337740385
 20
-54.512119391
 10
-104.8256209936
 20
-54.5689102564
 10
-104.9251802885
 20
-54.625
  0
LWPOLYLINE
  5
9E
330
1F
100
AcDbEntity
  8
0
  6
Continuous
 62
     7
100
AcDbPolyline
 90
       70
 70
   128
 43
0.0
 10
-106.8525314331
 20
-57.6524439103
 10
-106.8462540064
 20
-57.5087139423
 10
-106.8259214744
 20
-57.3719951923
 10
-106.79296875
 20
-57.2408854167
 10
-106.7473958333
 20
-57.1160857372
 10
-106.6878004808
 20
-56.9982972756
 10
-106.6155849359
 20
-56.8861177885
 10
-106.5300480769
 20
-56.7802483974
 10
-106.4311899038
 20
-56.6806891026
 10
-106.4311899038
 20
-56.6806891026
 10
-106.3330328526
 20
-56.5986578526
 10
-106.2299679487
 20
-56.5271434295
 10
-106.1233974359
 20
-56.4668469551
 10
-106.0119190705
 20
-56.4177684295
 10
-105.8955328526
 20
-56.3792067308
 10
-105.7756410256
 20
-56.3518629808
 10
-105.6508413462
 20
-56.3357371795
 10
-105.5218349359
 20
-56.3301282051
 10
-105.5218349359
 20
-56.3301282051
 10
-105.3921274038
 20
-56.3357371795
 10
-105.2666266026
 20
-56.3532652244
 10
-105.1453325321
 20
-56.3820112179
 10
-105.0275440705
 20
-56.4226762821
 10
-104.9146634615
 20
-56.4745592949
 10
-104.8052884615
 20
-56.5383613782
 10
-104.7008213141
 20
-56.6133814103
 10
-104.5998597756
 20
-56.7003205128
 10
-104.5073116987
 20
-56.7963741987
 10
-104.4273838141
 20
-56.8987379808
 10
-104.359375
 20
-57.007411859
 10
-104.3039863782
 20
-57.1230969551
 10
-104.2605168269
 20
-57.2457932692
 10
-104.2296674679
 20
-57.3747996795
 10
-104.2114383013
 20
-57.5101161859
 10
-104.2051282051
 20
-57.6524439103
 10
-104.2051282051
 20
-57.6524439103
 10
-104.2114383013
 20
-57.7954727564
 10
-104.2296674679
 20
-57.9314903846
 10
-104.2605168269
 20
-58.0604967949
 10
-104.3039863782
 20
-58.183193109
 10
-104.359375
 20
-58.2995793269
 10
-104.4273838141
 20
-58.4089543269
 10
-104.5073116987
 20
-58.511318109
 10
-104.5998597756
 20
-58.6073717949
 10
-104.7008213141
 20
-58.6943108974
 10
-104.8052884615
 20
-58.7693309295
 10
-104.9146634615
 20
-58.8331330128
 10
-105.0275440705
 20
-58.8850160256
 10
-105.1453325321
 20
-58.9256810897
 10
-105.2666266026
 20
-58.9544270833
 10
-105.3921274038
 20
-58.9719551282
 10
-105.5218349359
 20
-58.9775641026
 10
-105.5218349359
 20
-58.9775641026
 10
-105.6501402244
 20
-58.9719551282
 10
-105.7749399038
 20
-58.9558293269
 10
-105.8948317308
 20
-58.9284855769
 10
-106.0098157051
 20
-58.8899238782
 10
-106.1212940705
 20
-58.8408453526
 10
-106.2285657051
 20
-58.7805488782
 10
-106.3309294872
 20
-58.7090344551
 10
-106.4290865385
 20
-58.6270032051
 10
-106.4290865385
 20
-58.6270032051
 10
-106.5286458333
 20
-58.5274439103
 10
-106.6141826923
 20
-58.4215745192
 10
-106.687099359
 20
-58.3093950321
 10
-106.7466947115
 20
-58.1902043269
 10
-106.79296875
 20
-58.0654046474
 10
-106.8259214744
 20
-57.9342948718
 10
-106.8462540064
 20
-57.7961738782
 10
-106.8525641026
 20
-57.6524439103
  0
LWPOLYLINE
  5
9F
330
1F
100
AcDbEntity
  8
0
  6
Continuous
 62
     7
100
AcDbPolyline
 90
       60
 70
   128
 43
0.0
 10
-106.5384149551
 20
-57.6538461538
 10
-106.5335536859
 20
-57.7555088141
 10
-106.51953125
 20
-57.8536658654
 10
-106.4963942308
 20
-57.9483173077
 10
-106.4641426282
 20
-58.0387620192
 10
-106.4220753205
 20
-58.1264022436
 10
-106.3708934295
 20
-58.2098357372
 10
-106.3105969551
 20
-58.2897636218
 10
-106.2404847756
 20
-58.3661858974
 10
-106.1640625
 20
-58.4355969551
 10
-106.0834334936
 20
-58.4958934295
 10
-105.9992988782
 20
-58.5470753205
 10
-105.9109575321
 20
-58.5891426282
 10
-105.8191105769
 20
-58.6213942308
 10
-105.723056891
 20
-58.64453125
 10
-105.6234975962
 20
-58.6585536859
 10
-105.5197315705
 20
-58.6634615385
 10
-105.5197315705
 20
-58.6634615385
 10
-105.3858173077
 20
-58.6550480769
 10
-105.2561097756
 20
-58.6298076923
 10
-105.1313100962
 20
-58.5870392628
 10
-105.0114182692
 20
-58.5281450321
 10
-104.9006410256
 20
-58.4545272436
 10
-104.8024839744
 20
-58.3682892628
 10
-104.718349359
 20
-58.2708333333
 10
-104.6475360577
 20
-58.1614583333
 10
-104.5914463141
 20
-58.04296875
 10
-104.5514823718
 20
-57.9188701923
 10
-104.526943109
 20
-57.7891626603
 10
-104.5192307692
 20
-57.6538461538
 10
-104.5192307692
 20
-57.6538461538
 10
-104.526943109
 20
-57.5185296474
 10
-104.5514823718
 20
-57.3888221154
 10
-104.5914463141
 20
-57.2654246795
 10
-104.6475360577
 20
-57.1469350962
 10
-104.718349359
 20
-57.0375600962
 10
-104.8024839744
 20
-56.9394030449
 10
-104.9006410256
 20
-56.8538661859
 10
-105.0114182692
 20
-56.7802483974
 10
-105.1313100962
 20
-56.7206530449
 10
-105.2561097756
 20
-56.6778846154
 10
-105.3858173077
 20
-56.6526442308
 10
-105.5197315705
 20
-56.6442307692
 10
-105.5197315705
 20
-56.6442307692
 10
-105.6234975962
 20
-56.6491386218
 10
-105.723056891
 20
-56.6631610577
 10
-105.8191105769
 20
-56.6862980769
 10
-105.9109575321
 20
-56.7185496795
 10
-105.9992988782
 20
-56.7606169872
 10
-106.0834334936
 20
-56.8125
 10
-106.1640625
 20
-56.8727964744
 10
-106.2404847756
 20
-56.9429086538
 10
-106.3105969551
 20
-57.0193309295
 10
-106.3708934295
 20
-57.0992588141
 10
-106.4220753205
 20
-57.1826923077
 10
-106.4641426282
 20
-57.2696314103
 10
-106.4963942308
 20
-57.3607772436
 10
-106.51953125
 20
-57.4547275641
 10
-106.5335536859
 20
-57.5528846154
 10
-106.5384615385
 20
-57.6538461538
  0
LWPOLYLINE
  5
A0
330
1F
100
AcDbEntity
  8
0
  6
Continuous
 62
     7
100
AcDbPolyline
 90
       24
 70
   128
 43
0.0
 10
-107.8397035599
 20
-60.233974359
 10
-107.8397435897
 20
-59.9198717949
 10
-107.8397435897
 20
-59.9198717949
 10
-106.8076923077
 20
-59.9198717949
 10
-106.8076923077
 20
-59.9198717949
 10
-106.8076923077
 20
-59.4711538462
 10
-106.8076923077
 20
-59.4711538462
 10
-106.4935897436
 20
-59.4711538462
 10
-106.4935897436
 20
-59.4711538462
 10
-106.4935897436
 20
-59.9198717949
 10
-106.4935897436
 20
-59.9198717949
 10
-104.25
 20
-59.9198717949
 10
-104.25
 20
-59.9198717949
 10
-104.25
 20
-60.233974359
 10
-104.25
 20
-60.233974359
 10
-106.4935897436
 20
-60.233974359
 10
-106.4935897436
 20
-60.233974359
 10
-106.4935897436
 20
-60.6826923077
 10
-106.4935897436
 20
-60.6826923077
 10
-106.8076923077
 20
-60.6826923077
 10
-106.8076923077
 20
-60.6826923077
 10
-106.8076923077
 20
-60.233974359
 10
-106.8076923077
 20
-60.233974359
 10
-107.8397435897
 20
-60.233974359
  0
LWPOLYLINE
  5
A1
330
1F
100
AcDbEntity
  8
0
  6
Continuous
 62
     7
100
AcDbPolyline
 90
       24
 70
   128
 43
0.0
 10
-91.8076634407
 20
-25.75
 10
-91.8076923077
 20
-25.3763020833
 10
-91.8076923077
 20
-25.3763020833
 10
-90.8850160256
 20
-24.7179487179
 10
-90.8850160256
 20
-24.7179487179
 10
-91.8076923077
 20
-24.0595953526
 10
-91.8076923077
 20
-24.0595953526
 10
-91.8076923077
 20
-23.6858974359
 10
-91.8076923077
 20
-23.6858974359
 10
-90.6234975962
 20
-24.5307491987
 10
-90.6234975962
 20
-24.5307491987
 10
-89.25
 20
-23.5512820513
 10
-89.25
 20
-23.5512820513
 10
-89.25
 20
-23.9249799679
 10
-89.25
 20
-23.9249799679
 10
-90.3612780449
 20
-24.7179487179
 10
-90.3612780449
 20
-24.7179487179
 10
-89.25
 20
-25.5109174679
 10
-89.25
 20
-25.5109174679
 10
-89.25
 20
-25.8846153846
 10
-89.25
 20
-25.8846153846
 10
-90.6234975962
 20
-24.9044471154
 10
-90.6234975962
 20
-24.9044471154
 10
-91.8076923077
 20
-25.75
  0
LWPOLYLINE
  5
A2
330
1F
100
AcDbEntity
  8
0
  6
Continuous
 62
     7
100
AcDbPolyline
 90
       70
 70
   128
 43
0.0
 10
-91.8525457382
 20
-27.476161859
 10
-91.8462540064
 20
-27.332431891
 10
-91.8259214744
 20
-27.195713141
 10
-91.79296875
 20
-27.0646033654
 10
-91.7473958333
 20
-26.9398036859
 10
-91.6878004808
 20
-26.8220152244
 10
-91.6155849359
 20
-26.7098357372
 10
-91.5300480769
 20
-26.6039663462
 10
-91.4311899038
 20
-26.5044070513
 10
-91.4311899038
 20
-26.5044070513
 10
-91.3330328526
 20
-26.4223758013
 10
-91.2299679487
 20
-26.3508613782
 10
-91.1233974359
 20
-26.2905649038
 10
-91.0119190705
 20
-26.2414863782
 10
-90.8955328526
 20
-26.2029246795
 10
-90.7756410256
 20
-26.1755809295
 10
-90.6508413462
 20
-26.1594551282
 10
-90.5218349359
 20
-26.1538461538
 10
-90.5218349359
 20
-26.1538461538
 10
-90.3921274038
 20
-26.1594551282
 10
-90.2666266026
 20
-26.1769831731
 10
-90.1453325321
 20
-26.2057291667
 10
-90.0275440705
 20
-26.2463942308
 10
-89.9146634615
 20
-26.2982772436
 10
-89.8052884615
 20
-26.3620793269
 10
-89.7008213141
 20
-26.437099359
 10
-89.5998597756
 20
-26.5240384615
 10
-89.5073116987
 20
-26.6200921474
 10
-89.4273838141
 20
-26.7224559295
 10
-89.359375
 20
-26.8311298077
 10
-89.3039863782
 20
-26.9468149038
 10
-89.2605168269
 20
-27.0695112179
 10
-89.2296674679
 20
-27.1985176282
 10
-89.2114383013
 20
-27.3338341346
 10
-89.2051282051
 20
-27.476161859
 10
-89.2051282051
 20
-27.476161859
 10
-89.2114383013
 20
-27.6191907051
 10
-89.2296674679
 20
-27.7552083333
 10
-89.2605168269
 20
-27.8842147436
 10
-89.3039863782
 20
-28.0069110577
 10
-89.359375
 20
-28.1232972756
 10
-89.4273838141
 20
-28.2326722756
 10
-89.5073116987
 20
-28.3350360577
 10
-89.5998597756
 20
-28.4310897436
 10
-89.7008213141
 20
-28.5180288462
 10
-89.8052884615
 20
-28.5930488782
 10
-89.9146634615
 20
-28.6568509615
 10
-90.0275440705
 20
-28.7087339744
 10
-90.1453325321
 20
-28.7493990385
 10
-90.2666266026
 20
-28.7781450321
 10
-90.3921274038
 20
-28.7956730769
 10
-90.5218349359
 20
-28.8012820513
 10
-90.5218349359
 20
-28.8012820513
 10
-90.6501402244
 20
-28.7956730769
 10
-90.7749399038
 20
-28.7795472756
 10
-90.8948317308
 20
-28.7522035256
 10
-91.0098157051
 20
-28.7136418269
 10
-91.1212940705
 20
-28.6645633013
 10
-91.2285657051
 20
-28.6042668269
 10
-91.3309294872
 20
-28.5327524038
 10
-91.4290865385
 20
-28.4507211538
 10
-91.4290865385
 20
-28.4507211538
 10
-91.5286458333
 20
-28.351161859
 10
-91.6141826923
 20
-28.2452924679
 10
-91.687099359
 20
-28.1331129808
 10
-91.7466947115
 20
-28.0139222756
 10
-91.79296875
 20
-27.8891225962
 10
-91.8259214744
 20
-27.7580128205
 10
-91.8462540064
 20
-27.6198918269
 10
-91.8525641026
 20
-27.476161859
  0
LWPOLYLINE
  5
A3
330
1F
100
AcDbEntity
  8
0
  6
Continuous
 62
     7
100
AcDbPolyline
 90
       60
 70
   128
 43
0.0
 10
-91.5384292603
 20
-27.4775641026
 10
-91.5335536859
 20
-27.5792267628
 10
-91.51953125
 20
-27.6773838141
 10
-91.4963942308
 20
-27.7720352564
 10
-91.4641426282
 20
-27.8624799679
 10
-91.4220753205
 20
-27.9501201923
 10
-91.3708934295
 20
-28.0335536859
 10
-91.3105969551
 20
-28.1134815705
 10
-91.2404847756
 20
-28.1899038462
 10
-91.1640625
 20
-28.2593149038
 10
-91.0834334936
 20
-28.3196113782
 10
-90.9992988782
 20
-28.3707932692
 10
-90.9109575321
 20
-28.4128605769
 10
-90.8191105769
 20
-28.4451121795
 10
-90.723056891
 20
-28.4682491987
 10
-90.6234975962
 20
-28.4822716346
 10
-90.5197315705
 20
-28.4871794872
 10
-90.5197315705
 20
-28.4871794872
 10
-90.3858173077
 20
-28.4787660256
 10
-90.2561097756
 20
-28.453525641
 10
-90.1313100962
 20
-28.4107572115
 10
-90.0114182692
 20
-28.3518629808
 10
-89.9006410256
 20
-28.2782451923
 10
-89.8024839744
 20
-28.1920072115
 10
-89.718349359
 20
-28.0945512821
 10
-89.6475360577
 20
-27.9851762821
 10
-89.5914463141
 20
-27.8666866987
 10
-89.5514823718
 20
-27.742588141
 10
-89.526943109
 20
-27.612880609
 10
-89.5192307692
 20
-27.4775641026
 10
-89.5192307692
 20
-27.4775641026
 10
-89.526943109
 20
-27.3422475962
 10
-89.5514823718
 20
-27.2125400641
 10
-89.5914463141
 20
-27.0891426282
 10
-89.6475360577
 20
-26.9706530449
 10
-89.718349359
 20
-26.8612780449
 10
-89.8024839744
 20
-26.7631209936
 10
-89.9006410256
 20
-26.6775841346
 10
-90.0114182692
 20
-26.6039663462
 10
-90.1313100962
 20
-26.5443709936
 10
-90.2561097756
 20
-26.5016025641
 10
-90.3858173077
 20
-26.4763621795
 10
-90.5197315705
 20
-26.4679487179
 10
-90.5197315705
 20
-26.4679487179
 10
-90.6234975962
 20
-26.4728565705
 10
-90.723056891
 20
-26.4868790064
 10
-90.8191105769
 20
-26.5100160256
 10
-90.9109575321
 20
-26.5422676282
 10
-90.9992988782
 20
-26.5843349359
 10
-91.0834334936
 20
-26.6362179487
 10
-91.1640625
 20
-26.6965144231
 10
-91.2404847756
 20
-26.7666266026
 10
-91.3105969551
 20
-26.8430488782
 10
-91.3708934295
 20
-26.9229767628
 10
-91.4220753205
 20
-27.0064102564
 10
-91.4641426282
 20
-27.093349359
 10
-91.4963942308
 20
-27.1844951923
 10
-91.51953125
 20
-27.2784455128
 10
-91.5335536859
 20
-27.3766025641
 10
-91.5384615385
 20
-27.4775641026
  0
LWPOLYLINE
  5
A4
330
1F
100
AcDbEntity
  8
0
  6
Continuous
 62
     7
100
AcDbPolyline
 90
       62
 70
   128
 43
0.0
 10
-89.2499685287
 20
-32.0320512821
 10
-92.8397435897
 20
-32.0320512821
 10
-92.8397435897
 20
-32.0320512821
 10
-92.8397435897
 20
-31.7179487179
 10
-92.8397435897
 20
-31.7179487179
 10
-91.3435496795
 20
-31.7179487179
 10
-91.3435496795
 20
-31.7179487179
 10
-91.4634415064
 20
-31.6092748397
 10
-91.5665064103
 20
-31.4949919872
 10
-91.6541466346
 20
-31.3736979167
 10
-91.7256610577
 20
-31.2467948718
 10
-91.7810496795
 20
-31.112880609
 10
-91.8210136218
 20
-30.9733573718
 10
-91.8448517628
 20
-30.8268229167
 10
-91.8525641026
 20
-30.6746794872
 10
-91.8525641026
 20
-30.6746794872
 10
-91.8462540064
 20
-30.5393629808
 10
-91.8280248397
 20
-30.4082532051
 10
-91.7978766026
 20
-30.2827524038
 10
-91.7558092949
 20
-30.1621594551
 10
-91.7011217949
 20
-30.0471754808
 10
-91.6345152244
 20
-29.9363982372
 10
-91.5559895833
 20
-29.8312299679
 10
-91.46484375
 20
-29.7309695513
 10
-91.3652844551
 20
-29.6391225962
 10
-91.2608173077
 20
-29.5598958333
 10
-91.1507411859
 20
-29.492588141
 10
-91.0357572115
 20
-29.4371995192
 10
-90.9158653846
 20
-29.3944310897
 10
-90.7903645833
 20
-29.3642828526
 10
-90.6599559295
 20
-29.3460536859
 10
-90.5239383013
 20
-29.3397435897
 10
-90.5239383013
 20
-29.3397435897
 10
-90.3900240385
 20
-29.3460536859
 10
-90.2610176282
 20
-29.3642828526
 10
-90.1369190705
 20
-29.3951322115
 10
-90.0177283654
 20
-29.4386017628
 10
-89.9034455128
 20
-29.4939903846
 10
-89.7947716346
 20
-29.5619991987
 10
-89.6903044872
 20
-29.6419270833
 10
-89.5914463141
 20
-29.7344751603
 10
-89.5010016026
 20
-29.8354366987
 10
-89.4224759615
 20
-29.9420072115
 10
-89.355869391
 20
-30.0527844551
 10
-89.3018830128
 20
-30.1691706731
 10
-89.2591145833
 20
-30.2904647436
 10
-89.2289663462
 20
-30.4166666667
 10
-89.2114383013
 20
-30.5484775641
 10
-89.2051282051
 20
-30.6844951923
 10
-89.2051282051
 20
-30.6844951923
 10
-89.2128405449
 20
-30.8401442308
 10
-89.2359775641
 20
-30.9880809295
 10
-89.2752403846
 20
-31.1283052885
 10
-89.3292267628
 20
-31.2615184295
 10
-89.4000400641
 20
-31.3870192308
 10
-89.4897836538
 20
-31.5048076923
 10
-89.5970552885
 20
-31.6148838141
 10
-89.7232572115
 20
-31.7179487179
 10
-89.7232572115
 20
-31.7179487179
 10
-89.25
 20
-31.7179487179
 10
-89.25
 20
-31.7179487179
 10
-89.25
 20
-32.0320512821
  0
LWPOLYLINE
  5
A5
330
1F
100
AcDbEntity
  8
0
  6
Continuous
 62
     7
100
AcDbPolyline
 90
       56
 70
   128
 43
0.0
 10
-89.5192027092
 20
-30.6872996795
 10
-89.5276442308
 20
-30.5498798077
 10
-89.5521834936
 20
-30.4180689103
 10
-89.5935496795
 20
-30.2918669872
 10
-89.6510416667
 20
-30.1705729167
 10
-89.7232572115
 20
-30.0583934295
 10
-89.8094951923
 20
-29.9581330128
 10
-89.9083533654
 20
-29.8697916667
 10
-90.0212339744
 20
-29.7940705128
 10
-90.1418269231
 20
-29.7323717949
 10
-90.2659254808
 20
-29.6889022436
 10
-90.3928285256
 20
-29.6622596154
 10
-90.5239383013
 20
-29.6538461538
 10
-90.5239383013
 20
-29.6538461538
 10
-90.6550480769
 20
-29.6629607372
 10
-90.7833533654
 20
-29.6889022436
 10
-90.9081530449
 20
-29.7337740385
 10
-91.0301482372
 20
-29.7954727564
 10
-91.1437299679
 20
-29.8718950321
 10
-91.2439903846
 20
-29.9602363782
 10
-91.3309294872
 20
-30.0611979167
 10
-91.4045472756
 20
-30.1740785256
 10
-91.4634415064
 20
-30.2946714744
 10
-91.5048076923
 20
-30.4201722756
 10
-91.5300480769
 20
-30.5491786859
 10
-91.5384615385
 20
-30.6823918269
 10
-91.5384615385
 20
-30.6823918269
 10
-91.5300480769
 20
-30.8184094551
 10
-91.5048076923
 20
-30.9502203526
 10
-91.4634415064
 20
-31.0792267628
 10
-91.4045472756
 20
-31.2047275641
 10
-91.331630609
 20
-31.3211137821
 10
-91.2474959936
 20
-31.4234775641
 10
-91.1514423077
 20
-31.5118189103
 10
-91.0441706731
 20
-31.5854366987
 10
-90.9270833333
 20
-31.6436298077
 10
-90.8029847756
 20
-31.6849959936
 10
-90.671875
 20
-31.7095352564
 10
-90.5337540064
 20
-31.7179487179
 10
-90.5337540064
 20
-31.7179487179
 10
-90.4278846154
 20
-31.7130408654
 10
-90.3262219551
 20
-31.6990184295
 10
-90.2287660256
 20
-31.6758814103
 10
-90.1362179487
 20
-31.6436298077
 10
-90.0478766026
 20
-31.6015625
 10
-89.964443109
 20
-31.550380609
 10
-89.8852163462
 20
-31.4900841346
 10
-89.8101963141
 20
-31.4206730769
 10
-89.7421875
 20
-31.3442508013
 10
-89.6825921474
 20
-31.2629206731
 10
-89.6328125
 20
-31.1780849359
 10
-89.5921474359
 20
-31.0883413462
 10
-89.5598958333
 20
-30.9943910256
 10
-89.5374599359
 20
-30.8962339744
 10
-89.5234375
 20
-30.7938701923
 10
-89.5192307692
 20
-30.6872996795
  0
LWPOLYLINE
  5
A6
330
1F
100
AcDbEntity
  8
0
  6
Continuous
 62
     7
100
AcDbPolyline
 90
       86
 70
   128
 43
0.0
 10
-91.8076634407
 20
-36.3397435897
 10
-91.8076923077
 20
-36.0256410256
 10
-91.8076923077
 20
-36.0256410256
 10
-91.3463541667
 20
-36.0256410256
 10
-91.3463541667
 20
-36.0256410256
 10
-91.4697516026
 20
-35.9225761218
 10
-91.5749198718
 20
-35.8146033654
 10
-91.6625600962
 20
-35.7010216346
 10
-91.7319711538
 20
-35.5818309295
 10
-91.7845552885
 20
-35.4577323718
 10
-91.8224158654
 20
-35.3280248397
 10
-91.8448517628
 20
-35.1927083333
 10
-91.8525641026
 20
-35.0524839744
 10
-91.8525641026
 20
-35.0524839744
 10
-91.8434495192
 20
-34.9108573718
 10
-91.8161057692
 20
-34.7776442308
 10
-91.7712339744
 20
-34.6528445513
 10
-91.7081330128
 20
-34.5364583333
 10
-91.6296073718
 20
-34.4312900641
 10
-91.5384615385
 20
-34.3401442308
 10
-91.4353966346
 20
-34.2644230769
 10
-91.3190104167
 20
-34.2034254808
 10
-91.2531049679
 20
-34.1781850962
 10
-91.1794871795
 20
-34.1564503205
 10
-91.0967548077
 20
-34.1382211538
 10
-91.0056089744
 20
-34.1227964744
 10
-90.9060496795
 20
-34.1115785256
 10
-90.7980769231
 20
-34.1031650641
 10
-90.6809895833
 20
-34.0975560897
 10
-90.5561899038
 20
-34.0961538462
 10
-90.5561899038
 20
-34.0961538462
 10
-89.25
 20
-34.0961538462
 10
-89.25
 20
-34.0961538462
 10
-89.25
 20
-34.4102564103
 10
-89.25
 20
-34.4102564103
 10
-90.453125
 20
-34.4102564103
 10
-90.453125
 20
-34.4102564103
 10
-90.5575921474
 20
-34.4109575321
 10
-90.6529447115
 20
-34.4123597756
 10
-90.7391826923
 20
-34.4151642628
 10
-90.8163060897
 20
-34.4193709936
 10
-90.8850160256
 20
-34.4249799679
 10
-90.9439102564
 20
-34.4312900641
 10
-90.9943910256
 20
-34.4390024038
 10
-91.0350560897
 20
-34.4474158654
 10
-91.0350560897
 20
-34.4474158654
 10
-91.1528445513
 20
-34.4831730769
 10
-91.2545072115
 20
-34.5329527244
 10
-91.3414463141
 20
-34.5960536859
 10
-91.4122596154
 20
-34.6724759615
 10
-91.4676482372
 20
-34.7622195513
 10
-91.5069110577
 20
-34.8645833333
 10
-91.5307491987
 20
-34.9795673077
 10
-91.5384615385
 20
-35.1071714744
 10
-91.5384615385
 20
-35.1071714744
 10
-91.5356570513
 20
-35.1828926282
 10
-91.5265424679
 20
-35.2565104167
 10
-91.5111177885
 20
-35.3287259615
 10
-91.4893830128
 20
-35.3981370192
 10
-91.4620392628
 20
-35.4661458333
 10
-91.4290865385
 20
-35.5320512821
 10
-91.3891225962
 20
-35.5958533654
 10
-91.3435496795
 20
-35.6575520833
 10
-91.2930689103
 20
-35.7157451923
 10
-91.2404847756
 20
-35.7683293269
 10
-91.1843950321
 20
-35.816005609
 10
-91.1255008013
 20
-35.8587740385
 10
-91.0638020833
 20
-35.8959334936
 10
-90.9992988782
 20
-35.9281850962
 10
-90.9312900641
 20
-35.9555288462
 10
-90.8611778846
 20
-35.9772636218
 10
-90.8611778846
 20
-35.9772636218
 10
-90.8092948718
 20
-35.9884815705
 10
-90.7475961538
 20
-35.9982972756
 10
-90.6767828526
 20
-36.0067107372
 10
-90.5954527244
 20
-36.0137219551
 10
-90.5050080128
 20
-36.0186298077
 10
-90.4047475962
 20
-36.0228365385
 10
-90.2946714744
 20
-36.0249399038
 10
-90.1747796474
 20
-36.0256410256
 10
-90.1747796474
 20
-36.0256410256
 10
-89.25
 20
-36.0256410256
 10
-89.25
 20
-36.0256410256
 10
-89.25
 20
-36.3397435897
 10
-89.25
 20
-36.3397435897
 10
-91.8076923077
 20
-36.3397435897
  0
LWPOLYLINE
  5
A7
330
1F
100
AcDbEntity
  8
0
  6
Continuous
 62
     7
100
AcDbPolyline
 90
       70
 70
   128
 43
0.0
 10
-91.8525457382
 20
-38.2902644231
 10
-91.8462540064
 20
-38.1465344551
 10
-91.8259214744
 20
-38.0098157051
 10
-91.79296875
 20
-37.8787059295
 10
-91.7473958333
 20
-37.75390625
 10
-91.6878004808
 20
-37.6361177885
 10
-91.6155849359
 20
-37.5239383013
 10
-91.5300480769
 20
-37.4180689103
 10
-91.4311899038
 20
-37.3185096154
 10
-91.4311899038
 20
-37.3185096154
 10
-91.3330328526
 20
-37.2364783654
 10
-91.2299679487
 20
-37.1649639423
 10
-91.1233974359
 20
-37.1046674679
 10
-91.0119190705
 20
-37.0555889423
 10
-90.8955328526
 20
-37.0170272436
 10
-90.7756410256
 20
-36.9896834936
 10
-90.6508413462
 20
-36.9735576923
 10
-90.5218349359
 20
-36.9679487179
 10
-90.5218349359
 20
-36.9679487179
 10
-90.3921274038
 20
-36.9735576923
 10
-90.2666266026
 20
-36.9910857372
 10
-90.1453325321
 20
-37.0198317308
 10
-90.0275440705
 20
-37.0604967949
 10
-89.9146634615
 20
-37.1123798077
 10
-89.8052884615
 20
-37.176181891
 10
-89.7008213141
 20
-37.2512019231
 10
-89.5998597756
 20
-37.3381410256
 10
-89.5073116987
 20
-37.4341947115
 10
-89.4273838141
 20
-37.5365584936
 10
-89.359375
 20
-37.6452323718
 10
-89.3039863782
 20
-37.7609174679
 10
-89.2605168269
 20
-37.8836137821
 10
-89.2296674679
 20
-38.0126201923
 10
-89.2114383013
 20
-38.1479366987
 10
-89.2051282051
 20
-38.2902644231
 10
-89.2051282051
 20
-38.2902644231
 10
-89.2114383013
 20
-38.4332932692
 10
-89.2296674679
 20
-38.5693108974
 10
-89.2605168269
 20
-38.6983173077
 10
-89.3039863782
 20
-38.8210136218
 10
-89.359375
 20
-38.9373998397
 10
-89.4273838141
 20
-39.0467748397
 10
-89.5073116987
 20
-39.1491386218
 10
-89.5998597756
 20
-39.2451923077
 10
-89.7008213141
 20
-39.3321314103
 10
-89.8052884615
 20
-39.4071514423
 10
-89.9146634615
 20
-39.4709535256
 10
-90.0275440705
 20
-39.5228365385
 10
-90.1453325321
 20
-39.5635016026
 10
-90.2666266026
 20
-39.5922475962
 10
-90.3921274038
 20
-39.609775641
 10
-90.5218349359
 20
-39.6153846154
 10
-90.5218349359
 20
-39.6153846154
 10
-90.6501402244
 20
-39.609775641
 10
-90.7749399038
 20
-39.5936498397
 10
-90.8948317308
 20
-39.5663060897
 10
-91.0098157051
 20
-39.527744391
 10
-91.1212940705
 20
-39.4786658654
 10
-91.2285657051
 20
-39.418369391
 10
-91.3309294872
 20
-39.3468549679
 10
-91.4290865385
 20
-39.2648237179
 10
-91.4290865385
 20
-39.2648237179
 10
-91.5286458333
 20
-39.1652644231
 10
-91.6141826923
 20
-39.0593950321
 10
-91.687099359
 20
-38.9472155449
 10
-91.7466947115
 20
-38.8280248397
 10
-91.79296875
 20
-38.7032251603
 10
-91.8259214744
 20
-38.5721153846
 10
-91.8462540064
 20
-38.433994391
 10
-91.8525641026
 20
-38.2902644231
  0
LWPOLYLINE
  5
A8
330
1F
100
AcDbEntity
  8
0
  6
Continuous
 62
     7
100
AcDbPolyline
 90
       60
 70
   128
 43
0.0
 10
-91.5384292603
 20
-38.2916666667
 10
-91.5335536859
 20
-38.3933293269
 10
-91.51953125
 20
-38.4914863782
 10
-91.4963942308
 20
-38.5861378205
 10
-91.4641426282
 20
-38.6765825321
 10
-91.4220753205
 20
-38.7642227564
 10
-91.3708934295
 20
-38.84765625
 10
-91.3105969551
 20
-38.9275841346
 10
-91.2404847756
 20
-39.0040064103
 10
-91.1640625
 20
-39.0734174679
 10
-91.0834334936
 20
-39.1337139423
 10
-90.9992988782
 20
-39.1848958333
 10
-90.9109575321
 20
-39.226963141
 10
-90.8191105769
 20
-39.2592147436
 10
-90.723056891
 20
-39.2823517628
 10
-90.6234975962
 20
-39.2963741987
 10
-90.5197315705
 20
-39.3012820513
 10
-90.5197315705
 20
-39.3012820513
 10
-90.3858173077
 20
-39.2928685897
 10
-90.2561097756
 20
-39.2676282051
 10
-90.1313100962
 20
-39.2248597756
 10
-90.0114182692
 20
-39.1659655449
 10
-89.9006410256
 20
-39.0923477564
 10
-89.8024839744
 20
-39.0061097756
 10
-89.718349359
 20
-38.9086538462
 10
-89.6475360577
 20
-38.7992788462
 10
-89.5914463141
 20
-38.6807892628
 10
-89.5514823718
 20
-38.5566907051
 10
-89.526943109
 20
-38.4269831731
 10
-89.5192307692
 20
-38.2916666667
 10
-89.5192307692
 20
-38.2916666667
 10
-89.526943109
 20
-38.1563501603
 10
-89.5514823718
 20
-38.0266426282
 10
-89.5914463141
 20
-37.9032451923
 10
-89.6475360577
 20
-37.784755609
 10
-89.718349359
 20
-37.675380609
 10
-89.8024839744
 20
-37.5772235577
 10
-89.9006410256
 20
-37.4916866987
 10
-90.0114182692
 20
-37.4180689103
 10
-90.1313100962
 20
-37.3584735577
 10
-90.2561097756
 20
-37.3157051282
 10
-90.3858173077
 20
-37.2904647436
 10
-90.5197315705
 20
-37.2820512821
 10
-90.5197315705
 20
-37.2820512821
 10
-90.6234975962
 20
-37.2869591346
 10
-90.723056891
 20
-37.3009815705
 10
-90.8191105769
 20
-37.3241185897
 10
-90.9109575321
 20
-37.3563701923
 10
-90.9992988782
 20
-37.3984375
 10
-91.0834334936
 20
-37.4503205128
 10
-91.1640625
 20
-37.5106169872
 10
-91.2404847756
 20
-37.5807291667
 10
-91.3105969551
 20
-37.6571514423
 10
-91.3708934295
 20
-37.7370793269
 10
-91.4220753205
 20
-37.8205128205
 10
-91.4641426282
 20
-37.9074519231
 10
-91.4963942308
 20
-37.9985977564
 10
-91.51953125
 20
-38.0925480769
 10
-91.5335536859
 20
-38.1907051282
 10
-91.5384615385
 20
-38.2916666667
  0
LWPOLYLINE
  5
A9
330
1F
100
AcDbEntity
  8
0
  6
Continuous
 62
     7
100
AcDbPolyline
 90
       36
 70
   128
 43
0.0
 10
-92.8846001625
 20
-40.4020432692
 10
-92.8797075321
 20
-40.3438501603
 10
-92.8649839744
 20
-40.2898637821
 10
-92.8397435897
 20
-40.2400841346
 10
-92.8053886218
 20
-40.1952123397
 10
-92.7640224359
 20
-40.1573517628
 10
-92.7177483974
 20
-40.1307091346
 10
-92.66796875
 20
-40.1145833333
 10
-92.6139823718
 20
-40.108974359
 10
-92.6139823718
 20
-40.108974359
 10
-92.5613982372
 20
-40.1145833333
 10
-92.5123197115
 20
-40.1307091346
 10
-92.4667467949
 20
-40.1573517628
 10
-92.425380609
 20
-40.1952123397
 10
-92.391025641
 20
-40.2400841346
 10
-92.3657852564
 20
-40.2898637821
 10
-92.3510616987
 20
-40.3438501603
 10
-92.3461538462
 20
-40.4020432692
 10
-92.3461538462
 20
-40.4020432692
 10
-92.3510616987
 20
-40.4595352564
 10
-92.3657852564
 20
-40.512119391
 10
-92.391025641
 20
-40.5618990385
 10
-92.425380609
 20
-40.6067708333
 10
-92.4667467949
 20
-40.6439302885
 10
-92.5123197115
 20
-40.6705729167
 10
-92.5613982372
 20
-40.6866987179
 10
-92.6139823718
 20
-40.6923076923
 10
-92.6139823718
 20
-40.6923076923
 10
-92.66796875
 20
-40.6866987179
 10
-92.7177483974
 20
-40.6705729167
 10
-92.7640224359
 20
-40.6439302885
 10
-92.8053886218
 20
-40.6067708333
 10
-92.8397435897
 20
-40.5618990385
 10
-92.8649839744
 20
-40.512119391
 10
-92.8797075321
 20
-40.4595352564
 10
-92.8846153846
 20
-40.4020432692
  0
LWPOLYLINE
  5
AA
330
1F
100
AcDbEntity
  8
0
  6
Continuous
 62
     7
100
AcDbPolyline
 90
        8
 70
   128
 43
0.0
 10
-91.8076634407
 20
-40.5576923077
 10
-91.8076923077
 20
-40.2435897436
 10
-91.8076923077
 20
-40.2435897436
 10
-89.25
 20
-40.2435897436
 10
-89.25
 20
-40.2435897436
 10
-89.25
 20
-40.5576923077
 10
-89.25
 20
-40.5576923077
 10
-91.8076923077
 20
-40.5576923077
  0
LWPOLYLINE
  5
AB
330
1F
100
AcDbEntity
  8
0
  6
Continuous
 62
     7
100
AcDbPolyline
 90
       24
 70
   128
 43
0.0
 10
-92.839717865
 20
-41.858974359
 10
-92.8397435897
 20
-41.5448717949
 10
-92.8397435897
 20
-41.5448717949
 10
-91.8076923077
 20
-41.5448717949
 10
-91.8076923077
 20
-41.5448717949
 10
-91.8076923077
 20
-41.0961538462
 10
-91.8076923077
 20
-41.0961538462
 10
-91.4935897436
 20
-41.0961538462
 10
-91.4935897436
 20
-41.0961538462
 10
-91.4935897436
 20
-41.5448717949
 10
-91.4935897436
 20
-41.5448717949
 10
-89.25
 20
-41.5448717949
 10
-89.25
 20
-41.5448717949
 10
-89.25
 20
-41.858974359
 10
-89.25
 20
-41.858974359
 10
-91.4935897436
 20
-41.858974359
 10
-91.4935897436
 20
-41.858974359
 10
-91.4935897436
 20
-42.3076923077
 10
-91.4935897436
 20
-42.3076923077
 10
-91.8076923077
 20
-42.3076923077
 10
-91.8076923077
 20
-42.3076923077
 10
-91.8076923077
 20
-41.858974359
 10
-91.8076923077
 20
-41.858974359
 10
-92.8397435897
 20
-41.858974359
  0
LWPOLYLINE
  5
AC
330
1F
100
AcDbEntity
  8
0
  6
Continuous
 62
     7
100
AcDbPolyline
 90
      124
 70
   128
 43
0.0
 10
-91.2531018257
 20
-42.8012820513
 10
-91.0897435897
 20
-43.0642027244
 10
-91.0897435897
 20
-43.0642027244
 10
-91.194911859
 20
-43.1532451923
 10
-91.2860576923
 20
-43.2507011218
 10
-91.3631810897
 20
-43.3551682692
 10
-91.4262820513
 20
-43.4673477564
 10
-91.4753605769
 20
-43.5879407051
 10
-91.5104166667
 20
-43.7162459936
 10
-91.5314503205
 20
-43.8515625
 10
-91.5384615385
 20
-43.9952924679
 10
-91.5384615385
 20
-43.9952924679
 10
-91.5335536859
 20
-44.1102764423
 10
-91.5202323718
 20
-44.2210536859
 10
-91.4970953526
 20
-44.3262219551
 10
-91.4655448718
 20
-44.4264823718
 10
-91.4241786859
 20
-44.5218349359
 10
-91.3736979167
 20
-44.6122796474
 10
-91.3148036859
 20
-44.6978165064
 10
-91.24609375
 20
-44.7784455128
 10
-91.1710737179
 20
-44.8513621795
 10
-91.0918469551
 20
-44.914463141
 10
-91.0091145833
 20
-44.9684495192
 10
-90.9221754808
 20
-45.0119190705
 10
-90.8317307692
 20
-45.0462740385
 10
-90.7370793269
 20
-45.0701121795
 10
-90.6382211538
 20
-45.0848357372
 10
-90.5358573718
 20
-45.0897435897
 10
-90.5358573718
 20
-45.0897435897
 10
-90.401943109
 20
-45.0806290064
 10
-90.2715344551
 20
-45.0539863782
 10
-90.1460336538
 20
-45.0091145833
 10
-90.0240384615
 20
-44.9467147436
 10
-89.9111578526
 20
-44.8681891026
 10
-89.8108974359
 20
-44.7763421474
 10
-89.7246594551
 20
-44.671875
 10
-89.6517427885
 20
-44.5533854167
 10
-89.5935496795
 20
-44.4243790064
 10
-89.5521834936
 20
-44.2883613782
 10
-89.5276442308
 20
-44.1446314103
 10
-89.5192307692
 20
-43.9931891026
 10
-89.5192307692
 20
-43.9931891026
 10
-89.5262419872
 20
-43.8543669872
 10
-89.547275641
 20
-43.7218549679
 10
-89.5823317308
 20
-43.5963541667
 10
-89.6314102564
 20
-43.4764623397
 10
-89.6945112179
 20
-43.3635817308
 10
-89.7716346154
 20
-43.2577123397
 10
-89.8627804487
 20
-43.1574519231
 10
-89.9679487179
 20
-43.0642027244
 10
-89.9679487179
 20
-43.0642027244
 10
-89.7954727564
 20
-42.8012820513
 10
-89.7954727564
 20
-42.8012820513
 10
-89.7274639423
 20
-42.8489583333
 10
-89.6629607372
 20
-42.9008413462
 10
-89.6026642628
 20
-42.9569310897
 10
-89.5465745192
 20
-43.0165264423
 10
-89.4939903846
 20
-43.0796274038
 10
-89.4456129808
 20
-43.1476362179
 10
-89.4007411859
 20
-43.219150641
 10
-89.3600761218
 20
-43.2941706731
 10
-89.3236177885
 20
-43.3726963141
 10
-89.2920673077
 20
-43.4540264423
 10
-89.2654246795
 20
-43.5374599359
 10
-89.2436899038
 20
-43.6243990385
 10
-89.2268629808
 20
-43.7134415064
 10
-89.2149439103
 20
-43.8059895833
 10
-89.2072315705
 20
-43.9006410256
 10
-89.2051282051
 20
-43.9980969551
 10
-89.2051282051
 20
-43.9980969551
 10
-89.2107371795
 20
-44.1467347756
 10
-89.2289663462
 20
-44.2883613782
 10
-89.2584134615
 20
-44.4236778846
 10
-89.2997796474
 20
-44.5526842949
 10
-89.3537660256
 20
-44.675380609
 10
-89.4189703526
 20
-44.7917668269
 10
-89.49609375
 20
-44.9011418269
 10
-89.5851362179
 20
-45.0042067308
 10
-89.6825921474
 20
-45.0981570513
 10
-89.7849559295
 20
-45.1787860577
 10
-89.8929286859
 20
-45.2474959936
 10
-90.0051081731
 20
-45.3035857372
 10
-90.1235977564
 20
-45.3477564103
 10
-90.2462940705
 20
-45.3786057692
 10
-90.374599359
 20
-45.3975360577
 10
-90.5078125
 20
-45.4038461538
 10
-90.5078125
 20
-45.4038461538
 10
-90.5982572115
 20
-45.4010416667
 10
-90.6872996795
 20
-45.3919270833
 10
-90.7749399038
 20
-45.3779046474
 10
-90.8604767628
 20
-45.3568709936
 10
-90.9446113782
 20
-45.3309294872
 10
-91.02734375
 20
-45.2986778846
 10
-91.1079727564
 20
-45.2608173077
 10
-91.1871995192
 20
-45.2173477564
 10
-91.2636217949
 20
-45.1682692308
 10
-91.3351362179
 20
-45.1149839744
 10
-91.4031450321
 20
-45.0574919872
 10
-91.4662459936
 20
-44.9950921474
 10
-91.5251402244
 20
-44.9291866987
 10
-91.5798277244
 20
-44.8583733974
 10
-91.6303084936
 20
-44.7826522436
 10
-91.6765825321
 20
-44.7034254808
 10
-91.7179487179
 20
-44.620693109
 10
-91.7537059295
 20
-44.53515625
 10
-91.7838541667
 20
-44.4475160256
 10
-91.8083934295
 20
-44.3570713141
 10
-91.8280248397
 20
-44.2645232372
 10
-91.8413461538
 20
-44.1698717949
 10
-91.8497596154
 20
-44.0724158654
 10
-91.8525641026
 20
-43.9721554487
 10
-91.8525641026
 20
-43.9721554487
 10
-91.84765625
 20
-43.8466546474
 10
-91.8329326923
 20
-43.7225560897
 10
-91.8090945513
 20
-43.6012620192
 10
-91.7747395833
 20
-43.4820713141
 10
-91.7326722756
 20
-43.3684895833
 10
-91.6849959936
 20
-43.2633213141
 10
-91.6317107372
 20
-43.16796875
 10
-91.5721153846
 20
-43.0810296474
 10
-91.5048076923
 20
-43.0018028846
 10
-91.4297876603
 20
-42.9288862179
 10
-91.3456530449
 20
-42.8615785256
 10
-91.2531049679
 20
-42.8012820513
  0
LWPOLYLINE
  5
AD
330
1F
100
AcDbEntity
  8
0
  6
Continuous
 62
     7
100
AcDbPolyline
 90
       86
 70
   128
 43
0.0
 10
-91.8076634407
 20
-48.2756410256
 10
-91.8076923077
 20
-47.9615384615
 10
-91.8076923077
 20
-47.9615384615
 10
-91.3463541667
 20
-47.9615384615
 10
-91.3463541667
 20
-47.9615384615
 10
-91.4697516026
 20
-47.8584735577
 10
-91.5749198718
 20
-47.7505008013
 10
-91.6625600962
 20
-47.6369190705
 10
-91.7319711538
 20
-47.5177283654
 10
-91.7845552885
 20
-47.3936298077
 10
-91.8224158654
 20
-47.2639222756
 10
-91.8448517628
 20
-47.1286057692
 10
-91.8525641026
 20
-46.9883814103
 10
-91.8525641026
 20
-46.9883814103
 10
-91.8434495192
 20
-46.8467548077
 10
-91.8161057692
 20
-46.7135416667
 10
-91.7712339744
 20
-46.5887419872
 10
-91.7081330128
 20
-46.4723557692
 10
-91.6296073718
 20
-46.3671875
 10
-91.5384615385
 20
-46.2760416667
 10
-91.4353966346
 20
-46.2003205128
 10
-91.3190104167
 20
-46.1393229167
 10
-91.2531049679
 20
-46.1140825321
 10
-91.1794871795
 20
-46.0923477564
 10
-91.0967548077
 20
-46.0741185897
 10
-91.0056089744
 20
-46.0586939103
 10
-90.9060496795
 20
-46.0474759615
 10
-90.7980769231
 20
-46.0390625
 10
-90.6809895833
 20
-46.0334535256
 10
-90.5561899038
 20
-46.0320512821
 10
-90.5561899038
 20
-46.0320512821
 10
-89.25
 20
-46.0320512821
 10
-89.25
 20
-46.0320512821
 10
-89.25
 20
-46.3461538462
 10
-89.25
 20
-46.3461538462
 10
-90.453125
 20
-46.3461538462
 10
-90.453125
 20
-46.3461538462
 10
-90.5575921474
 20
-46.3468549679
 10
-90.6529447115
 20
-46.3482572115
 10
-90.7391826923
 20
-46.3510616987
 10
-90.8163060897
 20
-46.3552684295
 10
-90.8850160256
 20
-46.3608774038
 10
-90.9439102564
 20
-46.3671875
 10
-90.9943910256
 20
-46.3748998397
 10
-91.0350560897
 20
-46.3833133013
 10
-91.0350560897
 20
-46.3833133013
 10
-91.1528445513
 20
-46.4190705128
 10
-91.2545072115
 20
-46.4688501603
 10
-91.3414463141
 20
-46.5319511218
 10
-91.4122596154
 20
-46.6083733974
 10
-91.4676482372
 20
-46.6981169872
 10
-91.5069110577
 20
-46.8004807692
 10
-91.5307491987
 20
-46.9154647436
 10
-91.5384615385
 20
-47.0430689103
 10
-91.5384615385
 20
-47.0430689103
 10
-91.5356570513
 20
-47.1187900641
 10
-91.5265424679
 20
-47.1924078526
 10
-91.5111177885
 20
-47.2646233974
 10
-91.4893830128
 20
-47.3340344551
 10
-91.4620392628
 20
-47.4020432692
 10
-91.4290865385
 20
-47.4679487179
 10
-91.3891225962
 20
-47.5317508013
 10
-91.3435496795
 20
-47.5934495192
 10
-91.2930689103
 20
-47.6516426282
 10
-91.2404847756
 20
-47.7042267628
 10
-91.1843950321
 20
-47.7519030449
 10
-91.1255008013
 20
-47.7946714744
 10
-91.0638020833
 20
-47.8318309295
 10
-90.9992988782
 20
-47.8640825321
 10
-90.9312900641
 20
-47.8914262821
 10
-90.8611778846
 20
-47.9131610577
 10
-90.8611778846
 20
-47.9131610577
 10
-90.8092948718
 20
-47.9243790064
 10
-90.7475961538
 20
-47.9341947115
 10
-90.6767828526
 20
-47.9426081731
 10
-90.5954527244
 20
-47.949619391
 10
-90.5050080128
 20
-47.9545272436
 10
-90.4047475962
 20
-47.9587339744
 10
-90.2946714744
 20
-47.9608373397
 10
-90.1747796474
 20
-47.9615384615
 10
-90.1747796474
 20
-47.9615384615
 10
-89.25
 20
-47.9615384615
 10
-89.25
 20
-47.9615384615
 10
-89.25
 20
-48.2756410256
 10
-89.25
 20
-48.2756410256
 10
-91.8076923077
 20
-48.2756410256
  0
LWPOLYLINE
  5
AE
330
1F
100
AcDbEntity
  8
0
  6
Continuous
 62
     7
100
AcDbPolyline
 90
      102
 70
   128
 43
0.0
 10
-91.8076634407
 20
-51.2820512821
 10
-91.8076923077
 20
-50.9679487179
 10
-91.8076923077
 20
-50.9679487179
 10
-90.6213942308
 20
-50.9679487179
 10
-90.6213942308
 20
-50.9679487179
 10
-90.5169270833
 20
-50.9672475962
 10
-90.4215745192
 20
-50.9651442308
 10
-90.3339342949
 20
-50.9609375
 10
-90.2547075321
 20
-50.9553285256
 10
-90.1845953526
 20
-50.9483173077
 10
-90.1221955128
 20
-50.9399038462
 10
-90.0689102564
 20
-50.930088141
 10
-90.0233373397
 20
-50.9181690705
 10
-90.0233373397
 20
-50.9181690705
 10
-89.9665464744
 20
-50.8971354167
 10
-89.9125600962
 20
-50.8725961538
 10
-89.8620793269
 20
-50.8431490385
 10
-89.8144030449
 20
-50.8101963141
 10
-89.76953125
 20
-50.7723357372
 10
-89.7281650641
 20
-50.7302684295
 10
-89.6896033654
 20
-50.6846955128
 10
-89.6545472756
 20
-50.6342147436
 10
-89.5956530449
 20
-50.5241386218
 10
-89.5528846154
 20
-50.4035456731
 10
-89.5276442308
 20
-50.2731370192
 10
-89.5192307692
 20
-50.1329126603
 10
-89.5192307692
 20
-50.1329126603
 10
-89.5276442308
 20
-49.9926883013
 10
-89.5521834936
 20
-49.863681891
 10
-89.5935496795
 20
-49.7458934295
 10
-89.6510416667
 20
-49.6393229167
 10
-89.7218549679
 20
-49.5460737179
 10
-89.8038862179
 20
-49.4682491987
 10
-89.8957331731
 20
-49.405849359
 10
-89.9980969551
 20
-49.3595753205
 10
-89.9980969551
 20
-49.3595753205
 10
-90.0401642628
 20
-49.34765625
 10
-90.0920472756
 20
-49.3371394231
 10
-90.1544471154
 20
-49.3280248397
 10
-90.2273637821
 20
-49.3203125
 10
-90.3107972756
 20
-49.3147035256
 10
-90.4040464744
 20
-49.3111979167
 10
-90.5078125
 20
-49.3083934295
 10
-90.6213942308
 20
-49.3076923077
 10
-90.6213942308
 20
-49.3076923077
 10
-91.8076923077
 20
-49.3076923077
 10
-91.8076923077
 20
-49.3076923077
 10
-91.8076923077
 20
-48.9935897436
 10
-91.8076923077
 20
-48.9935897436
 10
-90.5625
 20
-48.9935897436
 10
-90.5625
 20
-48.9935897436
 10
-90.4355969551
 20
-48.995693109
 10
-90.31640625
 20
-49.0013020833
 10
-90.2049278846
 20
-49.0111177885
 10
-90.1018629808
 20
-49.0251402244
 10
-90.0072115385
 20
-49.0426682692
 10
-89.9209735577
 20
-49.0644030449
 10
-89.8424479167
 20
-49.0903445513
 10
-89.7716346154
 20
-49.1197916667
 10
-89.7071314103
 20
-49.1534455128
 10
-89.6461338141
 20
-49.1906049679
 10
-89.5886418269
 20
-49.2326722756
 10
-89.5346554487
 20
-49.2775440705
 10
-89.4848758013
 20
-49.3273237179
 10
-89.437900641
 20
-49.3806089744
 10
-89.3951322115
 20
-49.4381009615
 10
-89.355869391
 20
-49.4997996795
 10
-89.3208133013
 20
-49.5650040064
 10
-89.2899639423
 20
-49.6344150641
 10
-89.2640224359
 20
-49.7080328526
 10
-89.2429887821
 20
-49.78515625
 10
-89.226161859
 20
-49.8671875
 10
-89.2142427885
 20
-49.952724359
 10
-89.2072315705
 20
-50.0417668269
 10
-89.2051282051
 20
-50.1357171474
 10
-89.2051282051
 20
-50.1357171474
 10
-89.2072315705
 20
-50.2289663462
 10
-89.2142427885
 20
-50.3187099359
 10
-89.226161859
 20
-50.4042467949
 10
-89.2429887821
 20
-50.4862780449
 10
-89.2640224359
 20
-50.5641025641
 10
-89.2899639423
 20
-50.6377203526
 10
-89.3208133013
 20
-50.7078325321
 10
-89.355869391
 20
-50.7737379808
 10
-89.3951322115
 20
-50.8354366987
 10
-89.4386017628
 20
-50.8936298077
 10
-89.4848758013
 20
-50.9476161859
 10
-89.5353565705
 20
-50.9973958333
 10
-89.5900440705
 20
-51.04296875
 10
-89.6482371795
 20
-51.0843349359
 10
-89.7099358974
 20
-51.1221955128
 10
-89.7751402244
 20
-51.155849359
 10
-89.8466546474
 20
-51.1852964744
 10
-89.9265825321
 20
-51.2112379808
 10
-90.015625
 20
-51.2329727564
 10
-90.1123798077
 20
-51.2505008013
 10
-90.2182491987
 20
-51.2645232372
 10
-90.3318309295
 20
-51.2743389423
 10
-90.4545272436
 20
-51.2799479167
 10
-90.5856370192
 20
-51.2820512821
 10
-90.5856370192
 20
-51.2820512821
 10
-91.8076923077
 20
-51.2820512821
  0
LWPOLYLINE
  5
AF
330
1F
100
AcDbEntity
  8
0
  6
Continuous
 62
     7
100
AcDbPolyline
 90
       36
 70
   128
 43
0.0
 10
-92.8846001625
 20
-52.1121794872
 10
-92.8797075321
 20
-52.0532852564
 10
-92.8649839744
 20
-51.9992988782
 10
-92.8397435897
 20
-51.9502203526
 10
-92.8053886218
 20
-51.9053485577
 10
-92.7640224359
 20
-51.8681891026
 10
-92.7177483974
 20
-51.8415464744
 10
-92.66796875
 20
-51.8261217949
 10
-92.6139823718
 20
-51.8205128205
 10
-92.6139823718
 20
-51.8205128205
 10
-92.5613982372
 20
-51.8261217949
 10
-92.5123197115
 20
-51.8415464744
 10
-92.4667467949
 20
-51.8681891026
 10
-92.425380609
 20
-51.9053485577
 10
-92.391025641
 20
-51.9502203526
 10
-92.3657852564
 20
-51.9992988782
 10
-92.3510616987
 20
-52.0532852564
 10
-92.3461538462
 20
-52.1121794872
 10
-92.3461538462
 20
-52.1121794872
 10
-92.3510616987
 20
-52.1710737179
 10
-92.3657852564
 20
-52.2250600962
 10
-92.391025641
 20
-52.2741386218
 10
-92.425380609
 20
-52.3190104167
 10
-92.4667467949
 20
-52.3561698718
 10
-92.5123197115
 20
-52.3828125
 10
-92.5613982372
 20
-52.3982371795
 10
-92.6139823718
 20
-52.4038461538
 10
-92.6139823718
 20
-52.4038461538
 10
-92.66796875
 20
-52.3982371795
 10
-92.7177483974
 20
-52.3828125
 10
-92.7640224359
 20
-52.3561698718
 10
-92.8053886218
 20
-52.3190104167
 10
-92.8397435897
 20
-52.2741386218
 10
-92.8649839744
 20
-52.2250600962
 10
-92.8797075321
 20
-52.1710737179
 10
-92.8846153846
 20
-52.1121794872
  0
LWPOLYLINE
  5
B0
330
1F
100
AcDbEntity
  8
0
  6
Continuous
 62
     7
100
AcDbPolyline
 90
       45
 70
   128
 43
0.0
 10
-91.8076634407
 20
-52.2692307692
 10
-91.8076923077
 20
-51.9551282051
 10
-91.8076923077
 20
-51.9551282051
 10
-88.8763020833
 20
-51.9551282051
 10
-88.8763020833
 20
-51.9551282051
 10
-88.7984775641
 20
-51.9565304487
 10
-88.726963141
 20
-51.9621394231
 10
-88.6603565705
 20
-51.9705528846
 10
-88.5986578526
 20
-51.9824719551
 10
-88.5432692308
 20
-51.9978966346
 10
-88.4934895833
 20
-52.0168269231
 10
-88.4486177885
 20
-52.0385616987
 10
-88.4093549679
 20
-52.0645032051
 10
-88.375
 20
-52.0932491987
 10
-88.3455528846
 20
-52.1240985577
 10
-88.3203125
 20
-52.1577524038
 10
-88.2992788462
 20
-52.1942107372
 10
-88.2831530449
 20
-52.2327724359
 10
-88.2719350962
 20
-52.2741386218
 10
-88.2649238782
 20
-52.3176081731
 10
-88.2628205128
 20
-52.3638822115
 10
-88.2628205128
 20
-52.3638822115
 10
-88.2677283654
 20
-52.4452123397
 10
-88.2831530449
 20
-52.5307491987
 10
-88.3083934295
 20
-52.6218950321
 10
-88.3434495192
 20
-52.7179487179
 10
-88.3434495192
 20
-52.7179487179
 10
-88.6456330128
 20
-52.7179487179
 10
-88.6456330128
 20
-52.7179487179
 10
-88.6154847756
 20
-52.6576522436
 10
-88.59375
 20
-52.6001602564
 10
-88.5811298077
 20
-52.5461738782
 10
-88.5769230769
 20
-52.4949919872
 10
-88.5769230769
 20
-52.4949919872
 10
-88.5839342949
 20
-52.4360977564
 10
-88.6042668269
 20
-52.3849158654
 10
-88.6386217949
 20
-52.3421474359
 10
-88.6869991987
 20
-52.3070913462
 10
-88.6869991987
 20
-52.3070913462
 10
-88.7311698718
 20
-52.2902644231
 10
-88.7949719551
 20
-52.2783453526
 10
-88.8770032051
 20
-52.2713341346
 10
-88.9786658654
 20
-52.2692307692
 10
-88.9786658654
 20
-52.2692307692
 10
-91.8076923077
 20
-52.2692307692
  0
LWPOLYLINE
  5
B1
330
1F
100
AcDbEntity
  8
0
  6
Continuous
 62
     7
100
AcDbPolyline
 90
       62
 70
   128
 43
0.0
 10
-92.839717865
 20
-54.2884615385
 10
-89.25
 20
-54.2884615385
 10
-89.25
 20
-54.2884615385
 10
-89.25
 20
-54.6025641026
 10
-89.25
 20
-54.6025641026
 10
-89.6924078526
 20
-54.6025641026
 10
-89.6924078526
 20
-54.6025641026
 10
-89.574619391
 20
-54.7112379808
 10
-89.4729567308
 20
-54.8255208333
 10
-89.3895232372
 20
-54.9475160256
 10
-89.3222155449
 20
-55.0751201923
 10
-89.2710336538
 20
-55.2090344551
 10
-89.2345753205
 20
-55.3485576923
 10
-89.2121394231
 20
-55.4950921474
 10
-89.2051282051
 20
-55.6472355769
 10
-89.2051282051
 20
-55.6472355769
 10
-89.2114383013
 20
-55.7825520833
 10
-89.2296674679
 20
-55.9129607372
 10
-89.2598157051
 20
-56.0384615385
 10
-89.3018830128
 20
-56.1590544872
 10
-89.3565705128
 20
-56.2740384615
 10
-89.4231770833
 20
-56.3848157051
 10
-89.5017027244
 20
-56.4899839744
 10
-89.5928485577
 20
-56.590244391
 10
-89.6924078526
 20
-56.6820913462
 10
-89.796875
 20
-56.761318109
 10
-89.9069511218
 20
-56.8279246795
 10
-90.0226362179
 20
-56.8833133013
 10
-90.1432291667
 20
-56.9260817308
 10
-90.2687299679
 20
-56.9562299679
 10
-90.3998397436
 20
-56.9744591346
 10
-90.5358573718
 20
-56.9807692308
 10
-90.5358573718
 20
-56.9807692308
 10
-90.6690705128
 20
-56.9744591346
 10
-90.7980769231
 20
-56.9562299679
 10
-90.921474359
 20
-56.925380609
 10
-91.0406650641
 20
-56.8819110577
 10
-91.1542467949
 20
-56.8265224359
 10
-91.2629206731
 20
-56.7592147436
 10
-91.3673878205
 20
-56.679286859
 10
-91.4662459936
 20
-56.5867387821
 10
-91.5566907051
 20
-56.4857772436
 10
-91.6352163462
 20
-56.3792067308
 10
-91.7018229167
 20
-56.2684294872
 10
-91.7558092949
 20
-56.1520432692
 10
-91.7985777244
 20
-56.0307491987
 10
-91.8287259615
 20
-55.9045472756
 10
-91.8462540064
 20
-55.7734375
 10
-91.8525641026
 20
-55.6374198718
 10
-91.8525641026
 20
-55.6374198718
 10
-91.844150641
 20
-55.4810697115
 10
-91.8189102564
 20
-55.332431891
 10
-91.7768429487
 20
-55.1915064103
 10
-91.7179487179
 20
-55.0582932692
 10
-91.6415264423
 20
-54.9327924679
 10
-91.5489783654
 20
-54.8143028846
 10
-91.4389022436
 20
-54.7049278846
 10
-91.3127003205
 20
-54.6025641026
 10
-91.3127003205
 20
-54.6025641026
 10
-92.8397435897
 20
-54.6025641026
 10
-92.8397435897
 20
-54.6025641026
 10
-92.8397435897
 20
-54.2884615385
  0
LWPOLYLINE
  5
B2
330
1F
100
AcDbEntity
  8
0
  6
Continuous
 62
     7
100
AcDbPolyline
 90
       56
 70
   128
 43
0.0
 10
-91.5384292603
 20
-55.633213141
 10
-91.5300480769
 20
-55.7706330128
 10
-91.5055088141
 20
-55.9024439103
 10
-91.4641426282
 20
-56.0286458333
 10
-91.406650641
 20
-56.1499399038
 10
-91.3337339744
 20
-56.262119391
 10
-91.2481971154
 20
-56.3623798077
 10
-91.1486378205
 20
-56.4507211538
 10
-91.0364583333
 20
-56.5271434295
 10
-90.9158653846
 20
-56.5881410256
 10
-90.7910657051
 20
-56.6316105769
 10
-90.6634615385
 20
-56.6582532051
 10
-90.5323517628
 20
-56.6666666667
 10
-90.5323517628
 20
-56.6666666667
 10
-90.401943109
 20
-56.6575520833
 10
-90.2743389423
 20
-56.6316105769
 10
-90.1502403846
 20
-56.5874399038
 10
-90.0282451923
 20
-56.5257411859
 10
-89.9146634615
 20
-56.4486177885
 10
-89.8137019231
 20
-56.3602764423
 10
-89.7267628205
 20
-56.2593149038
 10
-89.6531450321
 20
-56.1464342949
 10
-89.5942508013
 20
-56.0251402244
 10
-89.5528846154
 20
-55.8996394231
 10
-89.5276442308
 20
-55.769931891
 10
-89.5192307692
 20
-55.6360176282
 10
-89.5192307692
 20
-55.6360176282
 10
-89.5276442308
 20
-55.5
 10
-89.5521834936
 20
-55.3674879808
 10
-89.5942508013
 20
-55.2391826923
 10
-89.6524439103
 20
-55.1143830128
 10
-89.7246594551
 20
-54.9986979167
 10
-89.8087940705
 20
-54.8963341346
 10
-89.9041466346
 20
-54.8093950321
 10
-90.012119391
 20
-54.7357772436
 10
-90.1292067308
 20
-54.6775841346
 10
-90.2533052885
 20
-54.6355168269
 10
-90.3844150641
 20
-54.6109775641
 10
-90.5232371795
 20
-54.6025641026
 10
-90.5232371795
 20
-54.6025641026
 10
-90.6291065705
 20
-54.6074719551
 10
-90.7307692308
 20
-54.621494391
 10
-90.8282251603
 20
-54.6446314103
 10
-90.9207732372
 20
-54.6768830128
 10
-91.0091145833
 20
-54.7189503205
 10
-91.0932491987
 20
-54.7701322115
 10
-91.1724759615
 20
-54.8304286859
 10
-91.2474959936
 20
-54.9005408654
 10
-91.3155048077
 20
-54.976963141
 10
-91.3751001603
 20
-55.0575921474
 10
-91.4248798077
 20
-55.1431290064
 10
-91.4655448718
 20
-55.2321714744
 10
-91.4977964744
 20
-55.3261217949
 10
-91.5202323718
 20
-55.4242788462
 10
-91.5342548077
 20
-55.5266426282
 10
-91.5384615385
 20
-55.633213141
  0
LWPOLYLINE
  5
B3
330
1F
100
AcDbEntity
  8
0
  6
Continuous
 62
     7
100
AcDbPolyline
 90
       36
 70
   128
 43
0.0
 10
-92.8846001625
 20
-57.7674278846
 10
-92.8797075321
 20
-57.7092347756
 10
-92.8649839744
 20
-57.6552483974
 10
-92.8397435897
 20
-57.60546875
 10
-92.8053886218
 20
-57.5605969551
 10
-92.7640224359
 20
-57.5227363782
 10
-92.7177483974
 20
-57.49609375
 10
-92.66796875
 20
-57.4799679487
 10
-92.6139823718
 20
-57.4743589744
 10
-92.6139823718
 20
-57.4743589744
 10
-92.5613982372
 20
-57.4799679487
 10
-92.5123197115
 20
-57.49609375
 10
-92.4667467949
 20
-57.5227363782
 10
-92.425380609
 20
-57.5605969551
 10
-92.391025641
 20
-57.60546875
 10
-92.3657852564
 20
-57.6552483974
 10
-92.3510616987
 20
-57.7092347756
 10
-92.3461538462
 20
-57.7674278846
 10
-92.3461538462
 20
-57.7674278846
 10
-92.3510616987
 20
-57.8249198718
 10
-92.3657852564
 20
-57.8775040064
 10
-92.391025641
 20
-57.9272836538
 10
-92.425380609
 20
-57.9721554487
 10
-92.4667467949
 20
-58.0093149038
 10
-92.5123197115
 20
-58.0359575321
 10
-92.5613982372
 20
-58.0520833333
 10
-92.6139823718
 20
-58.0576923077
 10
-92.6139823718
 20
-58.0576923077
 10
-92.66796875
 20
-58.0520833333
 10
-92.7177483974
 20
-58.0359575321
 10
-92.7640224359
 20
-58.0093149038
 10
-92.8053886218
 20
-57.9721554487
 10
-92.8397435897
 20
-57.9272836538
 10
-92.8649839744
 20
-57.8775040064
 10
-92.8797075321
 20
-57.8249198718
 10
-92.8846153846
 20
-57.7674278846
  0
LWPOLYLINE
  5
B4
330
1F
100
AcDbEntity
  8
0
  6
Continuous
 62
     7
100
AcDbPolyline
 90
        8
 70
   128
 43
0.0
 10
-91.8076634407
 20
-57.9230769231
 10
-91.8076923077
 20
-57.608974359
 10
-91.8076923077
 20
-57.608974359
 10
-89.25
 20
-57.608974359
 10
-89.25
 20
-57.608974359
 10
-89.25
 20
-57.9230769231
 10
-89.25
 20
-57.9230769231
 10
-91.8076923077
 20
-57.9230769231
  0
LWPOLYLINE
  5
B5
330
1F
100
AcDbEntity
  8
0
  6
Continuous
 62
     7
100
AcDbPolyline
 90
      102
 70
   128
 43
0.0
 10
-91.8076634407
 20
-60.8846153846
 10
-91.8076923077
 20
-60.5705128205
 10
-91.8076923077
 20
-60.5705128205
 10
-90.6213942308
 20
-60.5705128205
 10
-90.6213942308
 20
-60.5705128205
 10
-90.5169270833
 20
-60.5698116987
 10
-90.4215745192
 20
-60.5677083333
 10
-90.3339342949
 20
-60.5635016026
 10
-90.2547075321
 20
-60.5578926282
 10
-90.1845953526
 20
-60.5508814103
 10
-90.1221955128
 20
-60.5424679487
 10
-90.0689102564
 20
-60.5326522436
 10
-90.0233373397
 20
-60.5207331731
 10
-90.0233373397
 20
-60.5207331731
 10
-89.9665464744
 20
-60.4996995192
 10
-89.9125600962
 20
-60.4751602564
 10
-89.8620793269
 20
-60.445713141
 10
-89.8144030449
 20
-60.4127604167
 10
-89.76953125
 20
-60.3748998397
 10
-89.7281650641
 20
-60.3328325321
 10
-89.6896033654
 20
-60.2872596154
 10
-89.6545472756
 20
-60.2367788462
 10
-89.5956530449
 20
-60.1267027244
 10
-89.5528846154
 20
-60.0061097756
 10
-89.5276442308
 20
-59.8757011218
 10
-89.5192307692
 20
-59.7354767628
 10
-89.5192307692
 20
-59.7354767628
 10
-89.5276442308
 20
-59.5952524038
 10
-89.5521834936
 20
-59.4662459936
 10
-89.5935496795
 20
-59.3484575321
 10
-89.6510416667
 20
-59.2418870192
 10
-89.7218549679
 20
-59.1486378205
 10
-89.8038862179
 20
-59.0708133013
 10
-89.8957331731
 20
-59.0084134615
 10
-89.9980969551
 20
-58.9621394231
 10
-89.9980969551
 20
-58.9621394231
 10
-90.0401642628
 20
-58.9502203526
 10
-90.0920472756
 20
-58.9397035256
 10
-90.1544471154
 20
-58.9305889423
 10
-90.2273637821
 20
-58.9228766026
 10
-90.3107972756
 20
-58.9172676282
 10
-90.4040464744
 20
-58.9137620192
 10
-90.5078125
 20
-58.9109575321
 10
-90.6213942308
 20
-58.9102564103
 10
-90.6213942308
 20
-58.9102564103
 10
-91.8076923077
 20
-58.9102564103
 10
-91.8076923077
 20
-58.9102564103
 10
-91.8076923077
 20
-58.5961538462
 10
-91.8076923077
 20
-58.5961538462
 10
-90.5625
 20
-58.5961538462
 10
-90.5625
 20
-58.5961538462
 10
-90.4355969551
 20
-58.5982572115
 10
-90.31640625
 20
-58.6038661859
 10
-90.2049278846
 20
-58.613681891
 10
-90.1018629808
 20
-58.6277043269
 10
-90.0072115385
 20
-58.6452323718
 10
-89.9209735577
 20
-58.6669671474
 10
-89.8424479167
 20
-58.6929086538
 10
-89.7716346154
 20
-58.7223557692
 10
-89.7071314103
 20
-58.7560096154
 10
-89.6461338141
 20
-58.7931690705
 10
-89.5886418269
 20
-58.8352363782
 10
-89.5346554487
 20
-58.8801081731
 10
-89.4848758013
 20
-58.9298878205
 10
-89.437900641
 20
-58.9831730769
 10
-89.3951322115
 20
-59.0406650641
 10
-89.355869391
 20
-59.1023637821
 10
-89.3208133013
 20
-59.167568109
 10
-89.2899639423
 20
-59.2369791667
 10
-89.2640224359
 20
-59.3105969551
 10
-89.2429887821
 20
-59.3877203526
 10
-89.226161859
 20
-59.4697516026
 10
-89.2142427885
 20
-59.5552884615
 10
-89.2072315705
 20
-59.6443309295
 10
-89.2051282051
 20
-59.73828125
 10
-89.2051282051
 20
-59.73828125
 10
-89.2072315705
 20
-59.8315304487
 10
-89.2142427885
 20
-59.9212740385
 10
-89.226161859
 20
-60.0068108974
 10
-89.2429887821
 20
-60.0888421474
 10
-89.2640224359
 20
-60.1666666667
 10
-89.2899639423
 20
-60.2402844551
 10
-89.3208133013
 20
-60.3103966346
 10
-89.355869391
 20
-60.3763020833
 10
-89.3951322115
 20
-60.4380008013
 10
-89.4386017628
 20
-60.4961939103
 10
-89.4848758013
 20
-60.5501802885
 10
-89.5353565705
 20
-60.5999599359
 10
-89.5900440705
 20
-60.6455328526
 10
-89.6482371795
 20
-60.6868990385
 10
-89.7099358974
 20
-60.7247596154
 10
-89.7751402244
 20
-60.7584134615
 10
-89.8466546474
 20
-60.7878605769
 10
-89.9265825321
 20
-60.8138020833
 10
-90.015625
 20
-60.835536859
 10
-90.1123798077
 20
-60.8530649038
 10
-90.2182491987
 20
-60.8670873397
 10
-90.3318309295
 20
-60.8769030449
 10
-90.4545272436
 20
-60.8825120192
 10
-90.5856370192
 20
-60.8846153846
 10
-90.5856370192
 20
-60.8846153846
 10
-91.8076923077
 20
-60.8846153846
  0
LWPOLYLINE
  5
B6
330
1F
100
AcDbEntity
  8
0
  6
Continuous
 62
     7
100
AcDbPolyline
 90
        8
 70
   128
 43
0.0
 10
-92.839717865
 20
-61.8717948718
 10
-92.8397435897
 20
-61.5576923077
 10
-92.8397435897
 20
-61.5576923077
 10
-89.25
 20
-61.5576923077
 10
-89.25
 20
-61.5576923077
 10
-89.25
 20
-61.8717948718
 10
-89.25
 20
-61.8717948718
 10
-92.8397435897
 20
-61.8717948718
  0
LWPOLYLINE
  5
B7
330
1F
100
AcDbEntity
  8
0
  6
Continuous
 62
     7
100
AcDbPolyline
 90
       68
 70
   128
 43
0.0
 10
-92.8186774254
 20
-62.2756410256
 10
-92.4919871795
 20
-62.2756410256
 10
-92.4919871795
 20
-62.2756410256
 10
-92.5263421474
 20
-62.3653846154
 10
-92.5508814103
 20
-62.4481169872
 10
-92.5656049679
 20
-62.5245392628
 10
-92.5705128205
 20
-62.5939503205
 10
-92.5705128205
 20
-62.5939503205
 10
-92.5677083333
 20
-62.6409254808
 10
-92.5606971154
 20
-62.6843950321
 10
-92.5480769231
 20
-62.7229567308
 10
-92.5305488782
 20
-62.7580128205
 10
-92.5095152244
 20
-62.7874599359
 10
-92.4877804487
 20
-62.8112980769
 10
-92.4639423077
 20
-62.8288261218
 10
-92.4387019231
 20
-62.8400440705
 10
-92.4232772436
 20
-62.8442508013
 10
-92.4022435897
 20
-62.8470552885
 10
-92.3756009615
 20
-62.8505608974
 10
-92.343349359
 20
-62.8526642628
 10
-92.3061899038
 20
-62.8547676282
 10
-92.2641225962
 20
-62.85546875
 10
-92.2157451923
 20
-62.8568709936
 10
-92.1624599359
 20
-62.8568709936
 10
-92.1624599359
 20
-62.8568709936
 10
-91.8076923077
 20
-62.8568709936
 10
-91.8076923077
 20
-62.8568709936
 10
-91.8076923077
 20
-62.3205128205
 10
-91.8076923077
 20
-62.3205128205
 10
-91.4935897436
 20
-62.3205128205
 10
-91.4935897436
 20
-62.3205128205
 10
-91.4935897436
 20
-62.8575721154
 10
-91.4935897436
 20
-62.8575721154
 10
-89.25
 20
-62.858974359
 10
-89.25
 20
-62.858974359
 10
-89.25
 20
-63.1730769231
 10
-89.25
 20
-63.1730769231
 10
-91.4935897436
 20
-63.1730769231
 10
-91.4935897436
 20
-63.1730769231
 10
-91.4935897436
 20
-63.5320512821
 10
-91.4935897436
 20
-63.5320512821
 10
-91.8076923077
 20
-63.5320512821
 10
-91.8076923077
 20
-63.5320512821
 10
-91.8076923077
 20
-63.1730769231
 10
-91.8076923077
 20
-63.1730769231
 10
-92.2164463141
 20
-63.1730769231
 10
-92.2164463141
 20
-63.1730769231
 10
-92.2844551282
 20
-63.1723758013
 10
-92.3468549679
 20
-63.1695713141
 10
-92.4050480769
 20
-63.1660657051
 10
-92.4576322115
 20
-63.1604567308
 10
-92.5053084936
 20
-63.1534455128
 10
-92.5480769231
 20
-63.1443309295
 10
-92.5852363782
 20
-63.1345152244
 10
-92.6181891026
 20
-63.1225961538
 10
-92.6749799679
 20
-63.0931490385
 10
-92.726161859
 20
-63.0545873397
 10
-92.7717347756
 20
-63.0076121795
 10
-92.8116987179
 20
-62.9515224359
 10
-92.8432491987
 20
-62.8877203526
 10
-92.8663862179
 20
-62.8176081731
 10
-92.8797075321
 20
-62.7411858974
 10
-92.8846153846
 20
-62.6584535256
 10
-92.8846153846
 20
-62.6584535256
 10
-92.8804086538
 20
-62.5743189103
 10
-92.8677884615
 20
-62.4824719551
 10
-92.8474559295
 20
-62.3829126603
 10
-92.8187099359
 20
-62.2756410256
  0
LWPOLYLINE
  5
B8
330
1F
100
AcDbEntity
  8
0
  6
Continuous
 62
     7
100
AcDbPolyline
 90
       70
 70
   128
 43
0.0
 10
-91.8525457382
 20
-66.6492387821
 10
-91.8462540064
 20
-66.5055088141
 10
-91.8259214744
 20
-66.3687900641
 10
-91.79296875
 20
-66.2376802885
 10
-91.7473958333
 20
-66.112880609
 10
-91.6878004808
 20
-65.9950921474
 10
-91.6155849359
 20
-65.8829126603
 10
-91.5300480769
 20
-65.7770432692
 10
-91.4311899038
 20
-65.6774839744
 10
-91.4311899038
 20
-65.6774839744
 10
-91.3330328526
 20
-65.5954527244
 10
-91.2299679487
 20
-65.5239383013
 10
-91.1233974359
 20
-65.4636418269
 10
-91.0119190705
 20
-65.4145633013
 10
-90.8955328526
 20
-65.3760016026
 10
-90.7756410256
 20
-65.3486578526
 10
-90.6508413462
 20
-65.3325320513
 10
-90.5218349359
 20
-65.3269230769
 10
-90.5218349359
 20
-65.3269230769
 10
-90.3921274038
 20
-65.3325320513
 10
-90.2666266026
 20
-65.3500600962
 10
-90.1453325321
 20
-65.3788060897
 10
-90.0275440705
 20
-65.4194711538
 10
-89.9146634615
 20
-65.4713541667
 10
-89.8052884615
 20
-65.53515625
 10
-89.7008213141
 20
-65.6101762821
 10
-89.5998597756
 20
-65.6971153846
 10
-89.5073116987
 20
-65.7931690705
 10
-89.4273838141
 20
-65.8955328526
 10
-89.359375
 20
-66.0042067308
 10
-89.3039863782
 20
-66.1198918269
 10
-89.2605168269
 20
-66.242588141
 10
-89.2296674679
 20
-66.3715945513
 10
-89.2114383013
 20
-66.5069110577
 10
-89.2051282051
 20
-66.6492387821
 10
-89.2051282051
 20
-66.6492387821
 10
-89.2114383013
 20
-66.7922676282
 10
-89.2296674679
 20
-66.9282852564
 10
-89.2605168269
 20
-67.0572916667
 10
-89.3039863782
 20
-67.1799879808
 10
-89.359375
 20
-67.2963741987
 10
-89.4273838141
 20
-67.4057491987
 10
-89.5073116987
 20
-67.5081129808
 10
-89.5998597756
 20
-67.6041666667
 10
-89.7008213141
 20
-67.6911057692
 10
-89.8052884615
 20
-67.7661258013
 10
-89.9146634615
 20
-67.8299278846
 10
-90.0275440705
 20
-67.8818108974
 10
-90.1453325321
 20
-67.9224759615
 10
-90.2666266026
 20
-67.9512219551
 10
-90.3921274038
 20
-67.96875
 10
-90.5218349359
 20
-67.9743589744
 10
-90.5218349359
 20
-67.9743589744
 10
-90.6501402244
 20
-67.96875
 10
-90.7749399038
 20
-67.9526241987
 10
-90.8948317308
 20
-67.9252804487
 10
-91.0098157051
 20
-67.88671875
 10
-91.1212940705
 20
-67.8376402244
 10
-91.2285657051
 20
-67.77734375
 10
-91.3309294872
 20
-67.7058293269
 10
-91.4290865385
 20
-67.6237980769
 10
-91.4290865385
 20
-67.6237980769
 10
-91.5286458333
 20
-67.5242387821
 10
-91.6141826923
 20
-67.418369391
 10
-91.687099359
 20
-67.3061899038
 10
-91.7466947115
 20
-67.1869991987
 10
-91.79296875
 20
-67.0621995192
 10
-91.8259214744
 20
-66.9310897436
 10
-91.8462540064
 20
-66.79296875
 10
-91.8525641026
 20
-66.6492387821
  0
LWPOLYLINE
  5
B9
330
1F
100
AcDbEntity
  8
0
  6
Continuous
 62
     7
100
AcDbPolyline
 90
       60
 70
   128
 43
0.0
 10
-91.5384292603
 20
-66.6506410256
 10
-91.5335536859
 20
-66.7523036859
 10
-91.51953125
 20
-66.8504607372
 10
-91.4963942308
 20
-66.9451121795
 10
-91.4641426282
 20
-67.035556891
 10
-91.4220753205
 20
-67.1231971154
 10
-91.3708934295
 20
-67.206630609
 10
-91.3105969551
 20
-67.2865584936
 10
-91.2404847756
 20
-67.3629807692
 10
-91.1640625
 20
-67.4323918269
 10
-91.0834334936
 20
-67.4926883013
 10
-90.9992988782
 20
-67.5438701923
 10
-90.9109575321
 20
-67.5859375
 10
-90.8191105769
 20
-67.6181891026
 10
-90.723056891
 20
-67.6413261218
 10
-90.6234975962
 20
-67.6553485577
 10
-90.5197315705
 20
-67.6602564103
 10
-90.5197315705
 20
-67.6602564103
 10
-90.3858173077
 20
-67.6518429487
 10
-90.2561097756
 20
-67.6266025641
 10
-90.1313100962
 20
-67.5838341346
 10
-90.0114182692
 20
-67.5249399038
 10
-89.9006410256
 20
-67.4513221154
 10
-89.8024839744
 20
-67.3650841346
 10
-89.718349359
 20
-67.2676282051
 10
-89.6475360577
 20
-67.1582532051
 10
-89.5914463141
 20
-67.0397636218
 10
-89.5514823718
 20
-66.9156650641
 10
-89.526943109
 20
-66.7859575321
 10
-89.5192307692
 20
-66.6506410256
 10
-89.5192307692
 20
-66.6506410256
 10
-89.526943109
 20
-66.5153245192
 10
-89.5514823718
 20
-66.3856169872
 10
-89.5914463141
 20
-66.2622195513
 10
-89.6475360577
 20
-66.1437299679
 10
-89.718349359
 20
-66.0343549679
 10
-89.8024839744
 20
-65.9361979167
 10
-89.9006410256
 20
-65.8506610577
 10
-90.0114182692
 20
-65.7770432692
 10
-90.1313100962
 20
-65.7174479167
 10
-90.2561097756
 20
-65.6746794872
 10
-90.3858173077
 20
-65.6494391026
 10
-90.5197315705
 20
-65.641025641
 10
-90.5197315705
 20
-65.641025641
 10
-90.6234975962
 20
-65.6459334936
 10
-90.723056891
 20
-65.6599559295
 10
-90.8191105769
 20
-65.6830929487
 10
-90.9109575321
 20
-65.7153445513
 10
-90.9992988782
 20
-65.757411859
 10
-91.0834334936
 20
-65.8092948718
 10
-91.1640625
 20
-65.8695913462
 10
-91.2404847756
 20
-65.9397035256
 10
-91.3105969551
 20
-66.0161258013
 10
-91.3708934295
 20
-66.0960536859
 10
-91.4220753205
 20
-66.1794871795
 10
-91.4641426282
 20
-66.2664262821
 10
-91.4963942308
 20
-66.3575721154
 10
-91.51953125
 20
-66.4515224359
 10
-91.5335536859
 20
-66.5496794872
 10
-91.5384615385
 20
-66.6506410256
  0
LWPOLYLINE
  5
BA
330
1F
100
AcDbEntity
  8
0
  6
Continuous
 62
     7
100
AcDbPolyline
 90
       24
 70
   128
 43
0.0
 10
-92.839717865
 20
-69.2307692308
 10
-92.8397435897
 20
-68.9166666667
 10
-92.8397435897
 20
-68.9166666667
 10
-91.8076923077
 20
-68.9166666667
 10
-91.8076923077
 20
-68.9166666667
 10
-91.8076923077
 20
-68.4679487179
 10
-91.8076923077
 20
-68.4679487179
 10
-91.4935897436
 20
-68.4679487179
 10
-91.4935897436
 20
-68.4679487179
 10
-91.4935897436
 20
-68.9166666667
 10
-91.4935897436
 20
-68.9166666667
 10
-89.25
 20
-68.9166666667
 10
-89.25
 20
-68.9166666667
 10
-89.25
 20
-69.2307692308
 10
-89.25
 20
-69.2307692308
 10
-91.4935897436
 20
-69.2307692308
 10
-91.4935897436
 20
-69.2307692308
 10
-91.4935897436
 20
-69.6794871795
 10
-91.4935897436
 20
-69.6794871795
 10
-91.8076923077
 20
-69.6794871795
 10
-91.8076923077
 20
-69.6794871795
 10
-91.8076923077
 20
-69.2307692308
 10
-91.8076923077
 20
-69.2307692308
 10
-92.8397435897
 20
-69.2307692308
  0
CIRCLE
  5
BC
330
1F
100
AcDbEntity
  8
0
  6
Continuous
 62
     7
370
    25
100
AcDbCircle
 10
-66.5
 20
30.0
 30
0.0
 40
2.324999999999989
  0
CIRCLE
  5
BD
330
1F
100
AcDbEntity
  8
0
  6
Continuous
 62
     7
370
    25
100
AcDbCircle
 10
89.0
 20
-31.0
 30
0.0
 40
2.325000000000003
  0
CIRCLE
  5
D0
330
1F
100
AcDbEntity
  8
0
  6
Continuous
 62
     7
370
    25
100
AcDbCircle
 10
-108.0
 20
-6.0
 30
0.0
 40
2.325000000000003
  0
CIRCLE
  5
D1
330
1F
100
AcDbEntity
  8
0
  6
Continuous
 62
     7
370
    25
100
AcDbCircle
 10
0.0
 20
-6.0
 30
0.0
 40
2.324999999999999
  0
CIRCLE
  5
D2
330
1F
100
AcDbEntity
  8
0
  6
Continuous
 62
     7
370
    25
100
AcDbCircle
 10
108.0
 20
-6.0
 30
0.0
 40
2.324999999999989
  0
CIRCLE
  5
D3
330
1F
100
AcDbEntity
  8
0
  6
Continuous
 62
     7
370
    25
100
AcDbCircle
 10
-108.0
 20
-122.25
 30
0.0
 40
2.325000000000031
  0
CIRCLE
  5
D4
330
1F
100
AcDbEntity
  8
0
  6
Continuous
 62
     7
370
    25
100
AcDbCircle
 10
-10.0
 20
-112.25
 30
0.0
 40
2.324999999999981
  0
CIRCLE
  5
D5
330
1F
100
AcDbEntity
  8
0
  6
Continuous
 62
     7
370
    25
100
AcDbCircle
 10
-37.25
 20
120.0
 30
0.0
 40
2.324999999999974
  0
CIRCLE
  5
D6
330
1F
100
AcDbEntity
  8
0
  6
Continuous
 62
     7
370
    25
100
AcDbCircle
 10
108.2499463058
 20
119.875
 30
0.0
 40
2.325000000000003
  0
CIRCLE
  5
D7
330
1F
100
AcDbEntity
  8
0
  6
Continuous
 62
     7
370
    25
100
AcDbCircle
 10
-31.25
 20
10.0
 30
0.0
 40
2.325000000000003
  0
CIRCLE
  5
D8
330
1F
100
AcDbEntity
  8
0
  6
Continuous
 62
     7
370
    25
100
AcDbCircle
 10
-45.25
 20
4.0
 30
0.0
 40
4.925000000000018
  0
CIRCLE
  5
DD
330
1F
100
AcDbEntity
  8
0
  6
Continuous
 62
     7
370
    25
100
AcDbCircle
 10
129.875
 20
87.5
 30
0.0
 40
2.325000000000017
  0
CIRCLE
  5
DE
330
1F
100
AcDbEntity
  8
0
  6
Continuous
 62
     7
370
    25
100
AcDbCircle
 10
129.875
 20
-87.5
 30
0.0
 40
2.325000000000017
  0
CIRCLE
  5
DF
330
1F
100
AcDbEntity
  8
0
  6
Continuous
 62
     7
370
    25
100
AcDbCircle
 10
-129.875
 20
-87.5
 30
0.0
 40
2.324999999999946
  0
CIRCLE
  5
E0
330
1F
100
AcDbEntity
  8
0
  6
Continuous
 62
     7
370
    25
100
AcDbCircle
 10
-129.875
 20
87.5
 30
0.0
 40
2.325000000000003
  0
CIRCLE
  5
E1
330
1F
100
AcDbEntity
  8
0
  6
Continuous
 62
     7
370
    25
100
AcDbCircle
 10
-87.5
 20
-129.875
 30
0.0
 40
2.324999999999989
  0
CIRCLE
  5
E2
330
1F
100
AcDbEntity
  8
0
  6
Continuous
 62
     7
370
    25
100
AcDbCircle
 10
87.5
 20
-129.875
 30
0.0
 40
2.325000000000003
  0
CIRCLE
  5
E3
330
1F
100
AcDbEntity
  8
0
  6
Continuous
 62
     7
370
    25
100
AcDbCircle
 10
87.5
 20
129.875
 30
0.0
 40
2.325000000000003
  0
CIRCLE
  5
E4
330
1F
100
AcDbEntity
  8
0
  6
Continuous
 62
     7
370
    25
100
AcDbCircle
 10
119.875
 20
119.875
 30
0.0
 40
2.624999999999986
  0
CIRCLE
  5
E5
330
1F
100
AcDbEntity
  8
0
  6
Continuous
 62
     7
370
    25
100
AcDbCircle
 10
-119.875
 20
-119.875
 30
0.0
 40
2.625
  0
CIRCLE
  5
E6
330
1F
100
AcDbEntity
  8
0
  6
Continuous
 62
     7
370
    25
100
AcDbCircle
 10
-119.875
 20
119.875
 30
0.0
 40
2.624999999999986
  0
CIRCLE
  5
E7
330
1F
100
AcDbEntity
  8
0
  6
Continuous
 62
     7
370
    25
100
AcDbCircle
 10
119.875
 20
-119.875
 30
0.0
 40
2.625000000000014
  0
CIRCLE
  5
E8
330
1F
100
AcDbEntity
  8
0
  6
Continuous
 62
     7
370
    25
100
AcDbCircle
 10
-37.25
 20
129.875
 30
0.0
 40
2.325000000000003
  0
CIRCLE
  5
10B
330
1F
100
AcDbEntity
  8
0
  6
Continuous
 62
     7
370
    25
100
AcDbCircle
 10
108.5
 20
16.0
 30
0.0
 40
2.324999999999974
  0
CIRCLE
  5
10C
330
1F
100
AcDbEntity
  8
0
  6
Continuous
 62
     7
370
    25
100
AcDbCircle
 10
108.0
 20
-122.25
 30
0.0
 40
2.325000000000017
  0
CIRCLE
  5
137
330
1F
100
AcDbEntity
  8
0
  6
Continuous
 62
     7
370
    25
100
AcDbCircle
 10
-2.0
 20
-58.25
 30
0.0
 40
2.325000000000001
  0
CIRCLE
  5
138
330
1F
100
AcDbEntity
  8
0
  6
Continuous
 62
     7
370
    25
100
AcDbCircle
 10
108.0
 20
-122.25
 30
0.0
 40
2.299999999999969
  0
CIRCLE
  5
139
330
1F
100
AcDbEntity
  8
0
  6
Continuous
 62
     7
370
    25
100
AcDbCircle
 10
-10.0
 20
-112.25
 30
0.0
 40
2.3
  0
CIRCLE
  5
13A
330
1F
100
AcDbEntity
  8
0
  6
Continuous
 62
     7
370
    25
100
AcDbCircle
 10
-108.0
 20
-122.25
 30
0.0
 40
2.299999999999997
  0
CIRCLE
  5
13B
330
1F
100
AcDbEntity
  8
0
  6
Continuous
 62
     7
370
    25
100
AcDbCircle
 10
108.0
 20
-6.0
 30
0.0
 40
2.299999999999983
  0
CIRCLE
  5
13C
330
1F
100
AcDbEntity
  8
0
  6
Continuous
 62
     7
370
    25
100
AcDbCircle
 10
0.0
 20
-6.0
 30
0.0
 40
2.299999999999989
  0
CIRCLE
  5
13D
330
1F
100
AcDbEntity
  8
0
  6
Continuous
 62
     7
370
    25
100
AcDbCircle
 10
-108.0
 20
-6.0
 30
0.0
 40
2.299999999999983
  0
CIRCLE
  5
13E
330
1F
100
AcDbEntity
  8
0
  6
Continuous
 62
     7
370
    25
100
AcDbCircle
 10
89.0
 20
-31.0
 30
0.0
 40
2.299999999999969
  0
CIRCLE
  5
13F
330
1F
100
AcDbEntity
  8
0
  6
Continuous
 62
     7
370
    25
100
AcDbCircle
 10
-2.0
 20
-58.25
 30
0.0
 40
2.299999999999992
  0
CIRCLE
  5
140
330
1F
100
AcDbEntity
  8
0
  6
Continuous
 62
     7
370
    25
100
AcDbCircle
 10
-66.5
 20
30.0
 30
0.0
 40
2.299999999999983
  0
CIRCLE
  5
141
330
1F
100
AcDbEntity
  8
0
  6
Continuous
 62
     7
370
    25
100
AcDbCircle
 10
119.875
 20
119.875
 30
0.0
 40
2.600000000000009
  0
CIRCLE
  5
142
330
1F
100
AcDbEntity
  8
0
  6
Continuous
 62
     7
370
    25
100
AcDbCircle
 10
119.875
 20
-119.875
 30
0.0
 40
2.600000000000009
  0
CIRCLE
  5
143
330
1F
100
AcDbEntity
  8
0
  6
Continuous
 62
     7
370
    25
100
AcDbCircle
 10
-119.875
 20
119.875
 30
0.0
 40
2.600000000000009
  0
CIRCLE
  5
144
330
1F
100
AcDbEntity
  8
0
  6
Continuous
 62
     7
370
    25
100
AcDbCircle
 10
87.5
 20
-129.875
 30
0.0
 40
2.299999999999983
  0
CIRCLE
  5
145
330
1F
100
AcDbEntity
  8
0
  6
Continuous
 62
     7
370
    25
100
AcDbCircle
 10
87.5
 20
129.875
 30
0.0
 40
2.300000000000026
  0
CIRCLE
  5
146
330
1F
100
AcDbEntity
  8
0
  6
Continuous
 62
     7
370
    25
100
AcDbCircle
 10
-87.5
 20
-129.875
 30
0.0
 40
2.299999999999969
  0
CIRCLE
  5
147
330
1F
100
AcDbEntity
  8
0
  6
Continuous
 62
     7
370
    25
100
AcDbCircle
 10
-129.875
 20
87.5
 30
0.0
 40
2.300000000000011
  0
CIRCLE
  5
148
330
1F
100
AcDbEntity
  8
0
  6
Continuous
 62
     7
370
    25
100
AcDbCircle
 10
-119.875
 20
-119.875
 30
0.0
 40
2.600000000000009
  0
CIRCLE
  5
149
330
1F
100
AcDbEntity
  8
0
  6
Continuous
 62
     7
370
    25
100
AcDbCircle
 10
-37.25
 20
120.0
 30
0.0
 40
2.29999999999999
  0
CIRCLE
  5
14A
330
1F
100
AcDbEntity
  8
0
  6
Continuous
 62
     7
370
    25
100
AcDbCircle
 10
-37.25
 20
129.875
 30
0.0
 40
2.299999999999983
  0
CIRCLE
  5
14B
330
1F
100
AcDbEntity
  8
0
  6
Continuous
 62
     7
370
    25
100
AcDbCircle
 10
-129.875
 20
-87.5
 30
0.0
 40
2.300000000000011
  0
CIRCLE
  5
14C
330
1F
100
AcDbEntity
  8
0
  6
Continuous
 62
     7
370
    25
100
AcDbCircle
 10
108.5
 20
16.0
 30
0.0
 40
2.299999999999997
  0
CIRCLE
  5
14D
330
1F
100
AcDbEntity
  8
0
  6
Continuous
 62
     7
370
    25
100
AcDbCircle
 10
129.875
 20
-87.5
 30
0.0
 40
2.299999999999983
  0
CIRCLE
  5
14E
330
1F
100
AcDbEntity
  8
0
  6
Continuous
 62
     7
370
    25
100
AcDbCircle
 10
108.2499463058
 20
119.875
 30
0.0
 40
2.299999999999997
  0
CIRCLE
  5
14F
330
1F
100
AcDbEntity
  8
0
  6
Continuous
 62
     7
370
    25
100
AcDbCircle
 10
129.875
 20
87.5
 30
0.0
 40
2.300000000000011
  0
SPLINE
  5
151
330
1F
100
AcDbEntity
  8
0
  6
Continuous
 62
     7
370
    25
100
AcDbSpline
210
0.0
220
0.0
230
1.0
 70
    24
 71
     3
 72
     8
 73
     4
 74
     0
 42
0.00000001
 43
0.00000001
 40
0.0
 40
0.0
 40
0.0
 40
0.0
 40
1.0
 40
1.0
 40
1.0
 40
1.0
 10
-66.66212373220105
 20
-135.0
 30
0.0
 10
-66.68730250455553
 20
-135.0
 30
0.0
 10
-66.7126039340807
 20
-135.0
 30
0.0
 10
-66.73803592768499
 20
-135.0
 30
0.0
  0
SPLINE
  5
152
330
1F
100
AcDbEntity
  8
0
  6
Continuous
 62
     7
370
    25
100
AcDbSpline
210
0.0
220
0.0
230
1.0
 70
    24
 71
     3
 72
     8
 73
     4
 74
     0
 42
0.00000001
 43
0.00000001
 40
0.0
 40
0.0
 40
0.0
 40
0.0
 40
1.0
 40
1.0
 40
1.0
 40
1.0
 10
-68.18526503068253
 20
-135.0
 30
0.0
 10
-68.21067322770662
 20
-135.0
 30
0.0
 10
-68.23597533673991
 20
-135.0
 30
0.0
 10
-68.26117722616647
 20
-135.0
 30
0.0
  0
CIRCLE
  5
153
330
1F
100
AcDbEntity
  8
0
  6
Continuous
 62
     7
370
    25
100
AcDbCircle
 10
-31.25
 20
10.0
 30
0.0
 40
2.300000000000001
  0
CIRCLE
  5
154
330
1F
100
AcDbEntity
  8
0
  6
Continuous
 62
     7
370
    25
100
AcDbCircle
 10
-45.25
 20
4.0
 30
0.0
 40
4.900000000000013
  0
LINE
  5
155
330
1F
100
AcDbEntity
  8
0
  6
Continuous
 62
     7
370
    25
100
AcDbLine
 10
-105.3189299275
 20
-14.1775645304
 30
0.0
 11
-107.6178542582
 21
-11.4529134717
 31
0.0
  0
LINE
  5
156
330
1F
100
AcDbEntity
  8
0
  6
Continuous
 62
     7
370
    25
100
AcDbLine
 10
-108.3821457418
 20
-11.4529134717
 30
0.0
 11
-110.6810700725
 21
-14.1775645304
 31
0.0
  0
LINE
  5
157
330
1F
100
AcDbEntity
  8
0
  6
Continuous
 62
     7
370
    25
100
AcDbLine
 10
-110.2989243308
 20
-15.0
 30
0.0
 11
-105.7010756692
 21
-15.0
 31
0.0
  0
LINE
  5
158
330
1F
100
AcDbEntity
  8
0
  6
Continuous
 62
     7
370
    25
100
AcDbLine
 10
110.6810700725
 20
-14.1775645304
 30
0.0
 11
108.3821457418
 21
-11.4529134717
 31
0.0
  0
LINE
  5
159
330
1F
100
AcDbEntity
  8
0
  6
Continuous
 62
     7
370
    25
100
AcDbLine
 10
107.6178542582
 20
-11.4529134717
 30
0.0
 11
105.3189299275
 21
-14.1775645304
 31
0.0
  0
LINE
  5
15A
330
1F
100
AcDbEntity
  8
0
  6
Continuous
 62
     7
370
    25
100
AcDbLine
 10
105.7010756692
 20
-15.0
 30
0.0
 11
110.2989243308
 21
-15.0
 31
0.0
  0
LINE
  5
15B
330
1F
100
AcDbEntity
  8
0
  6
Continuous
 62
     7
370
    25
100
AcDbLine
 10
-34.5689299275
 20
111.8224354696
 30
0.0
 11
-36.8678542582
 21
114.5470865283
 31
0.0
  0
LINE
  5
15C
330
1F
100
AcDbEntity
  8
0
  6
Continuous
 62
     7
370
    25
100
AcDbLine
 10
-37.6321457418
 20
114.5470865283
 30
0.0
 11
-39.9310700725
 21
111.8224354696
 31
0.0
  0
LINE
  5
15D
330
1F
100
AcDbEntity
  8
0
  6
Continuous
 62
     7
370
    25
100
AcDbLine
 10
-39.5489243308
 20
111.0
 30
0.0
 11
-34.9510756692
 21
111.0
 31
0.0
  0
LINE
  5
15E
330
1F
100
AcDbEntity
  8
0
  6
Continuous
 62
     7
370
    25
100
AcDbLine
 10
-70.75
 20
-98.0
 30
0.0
 11
-52.75
 21
-98.0
 31
0.0
  0
LINE
  5
15F
330
1F
100
AcDbEntity
  8
0
  6
Continuous
 62
     7
370
    25
100
AcDbLine
 10
-52.75
 20
-78.0
 30
0.0
 11
-70.75
 21
-78.0
 31
0.0
  0
LINE
  5
160
330
1F
100
AcDbEntity
  8
0
  6
Continuous
 62
     7
370
    25
100
AcDbLine
 10
-101.0
 20
-135.0
 30
0.0
 11
-68.2611772262
 21
-135.0
 31
0.0
  0
LINE
  5
161
330
1F
100
AcDbEntity
  8
0
  6
Continuous
 62
     7
370
    25
100
AcDbLine
 10
-117.0
 20
-127.0
 30
0.0
 11
-109.94427191
 21
-127.0
 31
0.0
  0
LINE
  5
162
330
1F
100
AcDbEntity
  8
0
  6
Continuous
 62
     7
370
    25
100
AcDbLine
 10
-127.0
 20
-109.94427191
 30
0.0
 11
-127.0
 21
-117.0
 31
0.0
  0
LINE
  5
163
330
1F
100
AcDbEntity
  8
0
  6
Continuous
 62
     7
370
    25
100
AcDbLine
 10
-135.0
 20
101.0
 30
0.0
 11
-135.0
 21
-101.0
 31
0.0
  0
LINE
  5
164
330
1F
100
AcDbEntity
  8
0
  6
Continuous
 62
     7
370
    25
100
AcDbLine
 10
-127.0
 20
109.94427191
 30
0.0
 11
-127.0
 21
117.0
 31
0.0
  0
LINE
  5
165
330
1F
100
AcDbEntity
  8
0
  6
Continuous
 62
     7
370
    25
100
AcDbLine
 10
-117.0
 20
127.0
 30
0.0
 11
-109.94427191
 21
127.0
 31
0.0
  0
LINE
  5
166
330
1F
100
AcDbEntity
  8
0
  6
Continuous
 62
     7
370
    25
100
AcDbLine
 10
101.0
 20
135.0
 30
0.0
 11
-101.0
 21
135.0
 31
0.0
  0
LINE
  5
167
330
1F
100
AcDbEntity
  8
0
  6
Continuous
 62
     7
370
    25
100
AcDbLine
 10
117.0
 20
127.0
 30
0.0
 11
109.94427191
 21
127.0
 31
0.0
  0
LINE
  5
168
330
1F
100
AcDbEntity
  8
0
  6
Continuous
 62
     7
370
    25
100
AcDbLine
 10
127.0
 20
109.94427191
 30
0.0
 11
127.0
 21
117.0
 31
0.0
  0
LINE
  5
169
330
1F
100
AcDbEntity
  8
0
  6
Continuous
 62
     7
370
    25
100
AcDbLine
 10
135.0
 20
-101.0
 30
0.0
 11
135.0
 21
101.0
 31
0.0
  0
LINE
  5
16A
330
1F
100
AcDbEntity
  8
0
  6
Continuous
 62
     7
370
    25
100
AcDbLine
 10
127.0
 20
-109.94427191
 30
0.0
 11
127.0
 21
-117.0
 31
0.0
  0
LINE
  5
16B
330
1F
100
AcDbEntity
  8
0
  6
Continuous
 62
     7
370
    25
100
AcDbLine
 10
117.0
 20
-127.0
 30
0.0
 11
109.94427191
 21
-127.0
 31
0.0
  0
LINE
  5
16C
330
1F
100
AcDbEntity
  8
0
  6
Continuous
 62
     7
370
    25
100
AcDbLine
 10
-66.6621237322
 20
-135.0
 30
0.0
 11
101.0
 21
-135.0
 31
0.0
  0
LINE
  5
16D
330
1F
100
AcDbEntity
  8
0
  6
Continuous
 62
     7
370
    25
100
AcDbLine
 10
110.9310163784
 20
111.6974354696
 30
0.0
 11
108.6320920476
 21
114.4220865283
 31
0.0
  0
LINE
  5
16E
330
1F
100
AcDbEntity
  8
0
  6
Continuous
 62
     7
370
    25
100
AcDbLine
 10
107.8678005641
 20
114.4220865283
 30
0.0
 11
105.5688762333
 21
111.6974354696
 31
0.0
  0
LINE
  5
16F
330
1F
100
AcDbEntity
  8
0
  6
Continuous
 62
     7
370
    25
100
AcDbLine
 10
105.9510219751
 20
110.875
 30
0.0
 11
110.5488706366
 21
110.875
 31
0.0
  0
LINE
  5
170
330
1F
100
AcDbEntity
  8
0
  6
Continuous
 62
     7
370
    25
100
AcDbLine
 10
2.6810700725
 20
-14.1775645304
 30
0.0
 11
0.3821457418
 21
-11.4529134717
 31
0.0
  0
LINE
  5
171
330
1F
100
AcDbEntity
  8
0
  6
Continuous
 62
     7
370
    25
100
AcDbLine
 10
-0.3821457418
 20
-11.4529134717
 30
0.0
 11
-2.6810700725
 21
-14.1775645304
 31
0.0
  0
LINE
  5
172
330
1F
100
AcDbEntity
  8
0
  6
Continuous
 62
     7
370
    25
100
AcDbLine
 10
-2.2989243308
 20
-15.0
 30
0.0
 11
2.2989243308
 21
-15.0
 31
0.0
  0
LINE
  5
173
330
1F
100
AcDbEntity
  8
0
  6
Continuous
 62
     7
370
    25
100
AcDbLine
 10
-33.9310700725
 20
18.1775645304
 30
0.0
 11
-31.6321457418
 21
15.4529134717
 31
0.0
  0
LINE
  5
174
330
1F
100
AcDbEntity
  8
0
  6
Continuous
 62
     7
370
    25
100
AcDbLine
 10
-30.8678542582
 20
15.4529134717
 30
0.0
 11
-28.5689299275
 21
18.1775645304
 31
0.0
  0
LINE
  5
175
330
1F
100
AcDbEntity
  8
0
  6
Continuous
 62
     7
370
    25
100
AcDbLine
 10
-28.9510756692
 20
19.0
 30
0.0
 11
-33.5489243308
 21
19.0
 31
0.0
  0
LINE
  5
176
330
1F
100
AcDbEntity
  8
0
  6
Continuous
 62
     7
370
    25
100
AcDbLine
 10
105.8189299275
 20
24.1775645304
 30
0.0
 11
108.1178542582
 21
21.4529134717
 31
0.0
  0
LINE
  5
177
330
1F
100
AcDbEntity
  8
0
  6
Continuous
 62
     7
370
    25
100
AcDbLine
 10
108.8821457418
 20
21.4529134717
 30
0.0
 11
111.1810700725
 21
24.1775645304
 31
0.0
  0
LINE
  5
178
330
1F
100
AcDbEntity
  8
0
  6
Continuous
 62
     7
370
    25
100
AcDbLine
 10
110.7989243308
 20
25.0
 30
0.0
 11
106.2010756692
 21
25.0
 31
0.0
  0
LINE
  5
179
330
1F
100
AcDbEntity
  8
0
  6
Continuous
 62
     7
370
    25
100
AcDbLine
 10
105.3189299275
 20
-114.0724354696
 30
0.0
 11
107.6178542582
 21
-116.7970865283
 31
0.0
  0
LINE
  5
17A
330
1F
100
AcDbEntity
  8
0
  6
Continuous
 62
     7
370
    25
100
AcDbLine
 10
108.3821457418
 20
-116.7970865283
 30
0.0
 11
110.6810700725
 21
-114.0724354696
 31
0.0
  0
LINE
  5
17B
330
1F
100
AcDbEntity
  8
0
  6
Continuous
 62
     7
370
    25
100
AcDbLine
 10
110.2989243308
 20
-113.25
 30
0.0
 11
105.7010756692
 21
-113.25
 31
0.0
  0
LINE
  5
17C
330
1F
100
AcDbEntity
  8
0
  6
Continuous
 62
     7
370
    25
100
AcDbLine
 10
-12.6810700725
 20
-104.0724354696
 30
0.0
 11
-10.3821457418
 21
-106.7970865283
 31
0.0
  0
LINE
  5
17D
330
1F
100
AcDbEntity
  8
0
  6
Continuous
 62
     7
370
    25
100
AcDbLine
 10
-9.6178542582
 20
-106.7970865283
 30
0.0
 11
-7.3189299275
 21
-104.0724354696
 31
0.0
  0
LINE
  5
17E
330
1F
100
AcDbEntity
  8
0
  6
Continuous
 62
     7
370
    25
100
AcDbLine
 10
-7.7010756692
 20
-103.25
 30
0.0
 11
-12.2989243308
 21
-103.25
 31
0.0
  0
LINE
  5
17F
330
1F
100
AcDbEntity
  8
0
  6
Continuous
 62
     7
370
    25
100
AcDbLine
 10
-110.6810700725
 20
-114.0724354696
 30
0.0
 11
-108.3821457418
 21
-116.7970865283
 31
0.0
  0
LINE
  5
180
330
1F
100
AcDbEntity
  8
0
  6
Continuous
 62
     7
370
    25
100
AcDbLine
 10
-107.6178542582
 20
-116.7970865283
 30
0.0
 11
-105.3189299275
 21
-114.0724354696
 31
0.0
  0
LINE
  5
181
330
1F
100
AcDbEntity
  8
0
  6
Continuous
 62
     7
370
    25
100
AcDbLine
 10
-105.7010756692
 20
-113.25
 30
0.0
 11
-110.2989243308
 21
-113.25
 31
0.0
  0
ARC
  5
182
330
1F
100
AcDbEntity
  8
0
  6
Continuous
 62
     7
370
    25
100
AcDbCircle
 10
-108.0
 20
-11.7753489413
 30
0.0
 40
0.5000000000000036
100
AcDbArc
 50
40.1559996249
 51
139.8440003751
  0
ARC
  5
183
330
1F
100
AcDbEntity
  8
0
  6
Continuous
 62
     7
370
    25
100
AcDbCircle
 10
-110.2989243308
 20
-14.5
 30
0.0
 40
0.5000000000000213
100
AcDbArc
 50
139.8440003751
 51
270.0
  0
ARC
  5
184
330
1F
100
AcDbEntity
  8
0
  6
Continuous
 62
     7
370
    25
100
AcDbCircle
 10
-105.7010756692
 20
-14.5
 30
0.0
 40
0.5000000000000008
100
AcDbArc
 50
270.0
 51
40.1559996249
  0
ARC
  5
185
330
1F
100
AcDbEntity
  8
0
  6
Continuous
 62
     7
370
    25
100
AcDbCircle
 10
108.0
 20
-11.7753489413
 30
0.0
 40
0.499999999999987
100
AcDbArc
 50
40.1559996249
 51
139.8440003751
  0
ARC
  5
186
330
1F
100
AcDbEntity
  8
0
  6
Continuous
 62
     7
370
    25
100
AcDbCircle
 10
105.7010756692
 20
-14.5
 30
0.0
 40
0.5000000000000142
100
AcDbArc
 50
139.8440003751
 51
270.0
  0
ARC
  5
187
330
1F
100
AcDbEntity
  8
0
  6
Continuous
 62
     7
370
    25
100
AcDbCircle
 10
110.2989243308
 20
-14.5
 30
0.0
 40
0.4999999999999933
100
AcDbArc
 50
270.0
 51
40.1559996249
  0
ARC
  5
188
330
1F
100
AcDbEntity
  8
0
  6
Continuous
 62
     7
370
    25
100
AcDbCircle
 10
-37.25
 20
114.2246510587
 30
0.0
 40
0.5000000000000111
100
AcDbArc
 50
40.1559996249
 51
139.8440003751
  0
ARC
  5
189
330
1F
100
AcDbEntity
  8
0
  6
Continuous
 62
     7
370
    25
100
AcDbCircle
 10
-39.5489243308
 20
111.5
 30
0.0
 40
0.5000000000000284
100
AcDbArc
 50
139.8440003751
 51
270.0
  0
ARC
  5
18A
330
1F
100
AcDbEntity
  8
0
  6
Continuous
 62
     7
370
    25
100
AcDbCircle
 10
-34.9510756692
 20
111.5
 30
0.0
 40
0.5000000000000019
100
AcDbArc
 50
270.0
 51
40.1559996249
  0
ARC
  5
18B
330
1F
100
AcDbEntity
  8
0
  6
Continuous
 62
     7
370
    25
100
AcDbCircle
 10
-52.75
 20
-88.0
 30
0.0
 40
10.00000000000001
100
AcDbArc
 50
270.0
 51
90.0
  0
ARC
  5
18C
330
1F
100
AcDbEntity
  8
0
  6
Continuous
 62
     7
370
    25
100
AcDbCircle
 10
-70.75
 20
-88.0
 30
0.0
 40
10.00000000000001
100
AcDbArc
 50
90.0
 51
270.0
  0
ARC
  5
18D
330
1F
100
AcDbEntity
  8
0
  6
Continuous
 62
     7
370
    25
100
AcDbCircle
 10
-101.0
 20
-127.0
 30
0.0
 40
8.00000000000001
100
AcDbArc
 50
186.3793702084
 51
270.0
  0
ARC
  5
18E
330
1F
100
AcDbEntity
  8
0
  6
Continuous
 62
     7
370
    25
100
AcDbCircle
 10
-109.94427191
 20
-128.0
 30
0.0
 40
1.000000000000048
100
AcDbArc
 50
6.3793702084
 51
90.0
  0
ARC
  5
18F
330
1F
100
AcDbEntity
  8
0
  6
Continuous
 62
     7
370
    25
100
AcDbCircle
 10
-117.0
 20
-117.0
 30
0.0
 40
9.999999999999986
100
AcDbArc
 50
180.0
 51
270.0
  0
ARC
  5
190
330
1F
100
AcDbEntity
  8
0
  6
Continuous
 62
     7
370
    25
100
AcDbCircle
 10
-128.0
 20
-109.94427191
 30
0.0
 40
1.000000000000002
100
AcDbArc
 50
0.0
 51
83.6206297916
  0
ARC
  5
191
330
1F
100
AcDbEntity
  8
0
  6
Continuous
 62
     7
370
    25
100
AcDbCircle
 10
-127.0
 20
-101.0
 30
0.0
 40
7.999999999999943
100
AcDbArc
 50
180.0
 51
263.6206297916
  0
ARC
  5
192
330
1F
100
AcDbEntity
  8
0
  6
Continuous
 62
     7
370
    25
100
AcDbCircle
 10
-127.0
 20
101.0
 30
0.0
 40
7.999999999999949
100
AcDbArc
 50
96.3793702084
 51
180.0
  0
ARC
  5
193
330
1F
100
AcDbEntity
  8
0
  6
Continuous
 62
     7
370
    25
100
AcDbCircle
 10
-128.0
 20
109.94427191
 30
0.0
 40
1.000000000000002
100
AcDbArc
 50
276.3793702084
 51
0.0
  0
ARC
  5
194
330
1F
100
AcDbEntity
  8
0
  6
Continuous
 62
     7
370
    25
100
AcDbCircle
 10
-117.0
 20
117.0
 30
0.0
 40
9.999999999999986
100
AcDbArc
 50
90.0
 51
180.0
  0
ARC
  5
195
330
1F
100
AcDbEntity
  8
0
  6
Continuous
 62
     7
370
    25
100
AcDbCircle
 10
-109.94427191
 20
128.0
 30
0.0
 40
1.000000000000044
100
AcDbArc
 50
270.0
 51
353.6206297916
  0
ARC
  5
196
330
1F
100
AcDbEntity
  8
0
  6
Continuous
 62
     7
370
    25
100
AcDbCircle
 10
-101.0
 20
127.0
 30
0.0
 40
8.000000000000012
100
AcDbArc
 50
90.0
 51
173.6206297916
  0
ARC
  5
197
330
1F
100
AcDbEntity
  8
0
  6
Continuous
 62
     7
370
    25
100
AcDbCircle
 10
101.0
 20
127.0
 30
0.0
 40
8.000000000000012
100
AcDbArc
 50
6.3793702084
 51
90.0
  0
ARC
  5
198
330
1F
100
AcDbEntity
  8
0
  6
Continuous
 62
     7
370
    25
100
AcDbCircle
 10
109.94427191
 20
128.0
 30
0.0
 40
1.000000000000048
100
AcDbArc
 50
186.3793702084
 51
270.0
  0
ARC
  5
199
330
1F
100
AcDbEntity
  8
0
  6
Continuous
 62
     7
370
    25
100
AcDbCircle
 10
117.0
 20
117.0
 30
0.0
 40
9.999999999999986
100
AcDbArc
 50
0.0
 51
90.0
  0
ARC
  5
19A
330
1F
100
AcDbEntity
  8
0
  6
Continuous
 62
     7
370
    25
100
AcDbCircle
 10
128.0
 20
109.94427191
 30
0.0
 40
1.0
100
AcDbArc
 50
180.0
 51
263.6206297916
  0
ARC
  5
19B
330
1F
100
AcDbEntity
  8
0
  6
Continuous
 62
     7
370
    25
100
AcDbCircle
 10
127.0
 20
101.0
 30
0.0
 40
8.000000000000004
100
AcDbArc
 50
0.0
 51
83.6206297916
  0
ARC
  5
19C
330
1F
100
AcDbEntity
  8
0
  6
Continuous
 62
     7
370
    25
100
AcDbCircle
 10
127.0
 20
-101.0
 30
0.0
 40
7.999999999999948
100
AcDbArc
 50
276.3793702084
 51
0.0
  0
ARC
  5
19D
330
1F
100
AcDbEntity
  8
0
  6
Continuous
 62
     7
370
    25
100
AcDbCircle
 10
128.0
 20
-109.94427191
 30
0.0
 40
1.000000000000002
100
AcDbArc
 50
96.3793702084
 51
180.0
  0
ARC
  5
19E
330
1F
100
AcDbEntity
  8
0
  6
Continuous
 62
     7
370
    25
100
AcDbCircle
 10
117.0
 20
-117.0
 30
0.0
 40
9.999999999999986
100
AcDbArc
 50
270.0
 51
0.0
  0
ARC
  5
19F
330
1F
100
AcDbEntity
  8
0
  6
Continuous
 62
     7
370
    25
100
AcDbCircle
 10
109.94427191
 20
-128.0
 30
0.0
 40
1.000000000000048
100
AcDbArc
 50
90.0
 51
173.6206297916
  0
ARC
  5
1A0
330
1F
100
AcDbEntity
  8
0
  6
Continuous
 62
     7
370
    25
100
AcDbCircle
 10
101.0
 20
-127.0
 30
0.0
 40
8.000000000000014
100
AcDbArc
 50
270.0
 51
353.6206297916
  0
ARC
  5
1A1
330
1F
100
AcDbEntity
  8
0
  6
Continuous
 62
     7
370
    25
100
AcDbCircle
 10
-67.4616504792
 20
-137.1832045211
 30
0.0
 40
2.325000000000281
100
AcDbArc
 50
69.8864073819
 51
110.1135926181
  0
ARC
  5
1A2
330
1F
100
AcDbEntity
  8
0
  6
Continuous
 62
     7
370
    25
100
AcDbCircle
 10
108.2499463058
 20
114.0996510587
 30
0.0
 40
0.5000000000000236
100
AcDbArc
 50
40.1559996249
 51
139.8440003751
  0
ARC
  5
1A3
330
1F
100
AcDbEntity
  8
0
  6
Continuous
 62
     7
370
    25
100
AcDbCircle
 10
105.9510219751
 20
111.375
 30
0.0
 40
0.5000000000000345
100
AcDbArc
 50
139.8440003751
 51
270.0
  0
ARC
  5
1A4
330
1F
100
AcDbEntity
  8
0
  6
Continuous
 62
     7
370
    25
100
AcDbCircle
 10
110.5488706366
 20
111.375
 30
0.0
 40
0.5000000000000002
100
AcDbArc
 50
270.0
 51
40.1559996249
  0
ARC
  5
1A5
330
1F
100
AcDbEntity
  8
0
  6
Continuous
 62
     7
370
    25
100
AcDbCircle
 10
0.0
 20
-11.7753489413
 30
0.0
 40
0.5000000000000082
100
AcDbArc
 50
40.1559996249
 51
139.8440003751
  0
ARC
  5
1A6
330
1F
100
AcDbEntity
  8
0
  6
Continuous
 62
     7
370
    25
100
AcDbCircle
 10
-2.2989243308
 20
-14.5
 30
0.0
 40
0.5000000000000142
100
AcDbArc
 50
139.8440003751
 51
270.0
  0
ARC
  5
1A7
330
1F
100
AcDbEntity
  8
0
  6
Continuous
 62
     7
370
    25
100
AcDbCircle
 10
2.2989243308
 20
-14.5
 30
0.0
 40
0.500000000000006
100
AcDbArc
 50
270.0
 51
40.1559996249
  0
ARC
  5
1A8
330
1F
100
AcDbEntity
  8
0
  6
Continuous
 62
     7
370
    25
100
AcDbCircle
 10
-33.5489243308
 20
18.5
 30
0.0
 40
0.5000000000000142
100
AcDbArc
 50
90.0
 51
220.1559996249
  0
ARC
  5
1A9
330
1F
100
AcDbEntity
  8
0
  6
Continuous
 62
     7
370
    25
100
AcDbCircle
 10
-31.25
 20
15.7753489413
 30
0.0
 40
0.5000000000000134
100
AcDbArc
 50
220.1559996249
 51
319.8440003751
  0
ARC
  5
1AA
330
1F
100
AcDbEntity
  8
0
  6
Continuous
 62
     7
370
    25
100
AcDbCircle
 10
-28.9510756692
 20
18.5
 30
0.0
 40
0.5000000000000144
100
AcDbArc
 50
319.8440003751
 51
90.0
  0
ARC
  5
1AB
330
1F
100
AcDbEntity
  8
0
  6
Continuous
 62
     7
370
    25
100
AcDbCircle
 10
106.2010756692
 20
24.5
 30
0.0
 40
0.5000000000000191
100
AcDbArc
 50
90.0
 51
220.1559996249
  0
ARC
  5
1AC
330
1F
100
AcDbEntity
  8
0
  6
Continuous
 62
     7
370
    25
100
AcDbCircle
 10
108.5
 20
21.7753489413
 30
0.0
 40
0.5000000000000093
100
AcDbArc
 50
220.1559996249
 51
319.8440003751
  0
ARC
  5
1AD
330
1F
100
AcDbEntity
  8
0
  6
Continuous
 62
     7
370
    25
100
AcDbCircle
 10
110.7989243308
 20
24.5
 30
0.0
 40
0.5000000000000071
100
AcDbArc
 50
319.8440003751
 51
90.0
  0
ARC
  5
1AE
330
1F
100
AcDbEntity
  8
0
  6
Continuous
 62
     7
370
    25
100
AcDbCircle
 10
105.7010756692
 20
-113.75
 30
0.0
 40
0.5000000000000284
100
AcDbArc
 50
90.0
 51
220.1559996249
  0
ARC
  5
1AF
330
1F
100
AcDbEntity
  8
0
  6
Continuous
 62
     7
370
    25
100
AcDbCircle
 10
108.0
 20
-116.4746510587
 30
0.0
 40
0.500000000000007
100
AcDbArc
 50
220.1559996249
 51
319.8440003751
  0
ARC
  5
1B0
330
1F
100
AcDbEntity
  8
0
  6
Continuous
 62
     7
370
    25
100
AcDbCircle
 10
110.2989243308
 20
-113.75
 30
0.0
 40
0.5000000000000426
100
AcDbArc
 50
319.8440003751
 51
90.0
  0
ARC
  5
1B1
330
1F
100
AcDbEntity
  8
0
  6
Continuous
 62
     7
370
    25
100
AcDbCircle
 10
-12.2989243308
 20
-103.75
 30
0.0
 40
0.5000000000000142
100
AcDbArc
 50
90.0
 51
220.1559996249
  0
ARC
  5
1B2
330
1F
100
AcDbEntity
  8
0
  6
Continuous
 62
     7
370
    25
100
AcDbCircle
 10
-10.0
 20
-106.4746510587
 30
0.0
 40
0.5000000000000121
100
AcDbArc
 50
220.1559996249
 51
319.8440003751
  0
ARC
  5
1B3
330
1F
100
AcDbEntity
  8
0
  6
Continuous
 62
     7
370
    25
100
AcDbCircle
 10
-7.7010756692
 20
-103.75
 30
0.0
 40
0.5000000000000142
100
AcDbArc
 50
319.8440003751
 51
90.0
  0
ARC
  5
1B4
330
1F
100
AcDbEntity
  8
0
  6
Continuous
 62
     7
370
    25
100
AcDbCircle
 10
-110.2989243308
 20
-113.75
 30
0.0
 40
0.5000000000000284
100
AcDbArc
 50
90.0
 51
220.1559996249
  0
ARC
  5
1B5
330
1F
100
AcDbEntity
  8
0
  6
Continuous
 62
     7
370
    25
100
AcDbCircle
 10
-108.0
 20
-116.4746510587
 30
0.0
 40
0.5000000000000144
100
AcDbArc
 50
220.1559996249
 51
319.8440003751
  0
ARC
  5
1B6
330
1F
100
AcDbEntity
  8
0
  6
Continuous
 62
     7
370
    25
100
AcDbCircle
 10
-105.7010756692
 20
-113.75
 30
0.0
 40
0.5000000000000144
100
AcDbArc
 50
319.8440003751
 51
90.0
  0
ARC
  5
1B7
330
1F
100
AcDbEntity
  8
0
  6
Continuous
 62
     7
370
    25
100
AcDbCircle
 10
-67.4616504792
 20
-137.1832045211
 30
0.0
 40
2.300000000000044
100
AcDbArc
 50
71.6624253819
 51
108.3375746181
  0
MTEXT
  5
1B9
330
1F
100
AcDbEntity
  8
0
  6
Continuous
 62
     7
100
AcDbMText
 10
-135.0
 20
-136.0195663917
 30
0.0
 40
4.83362
 41
0.0
 71
     1
 72
     1
  1
SOLIDWORKS Educational Product.
  7
SLDTEXTSTYLE0
 73
     1
 44
1.0
  0
MTEXT
  5
1BA
330
1F
100
AcDbEntity
  8
0
  6
Continuous
 62
     7
100
AcDbMText
 10
-135.0
 20
-143.2699963917
 30
0.0
 40
4.83362
 41
0.0
 71
     1
 72
     1
  1
For Instructional Use Only.
  7
SLDTEXTSTYLE0
 73
     1
 44
1.0
  0
ENDSEC
  0
SECTION
  2
OBJECTS
  0
DICTIONARY
  5
C
330
0
100
AcDbDictionary
281
     1
  3
ACAD_GROUP
350
D
  3
ACAD_LAYOUT
350
1A
  3
ACAD_MLINESTYLE
350
17
  3
ACAD_PLOTSETTINGS
350
19
  3
ACAD_PLOTSTYLENAME
350
E
  3
ACAD_SCALELIST
350
47
  3
DWGPROPS
350
1BB
  0
DICTIONARY
  5
D
102
{ACAD_REACTORS
330
C
102
}
330
C
100
AcDbDictionary
281
     1
  0
DICTIONARY
  5
1A
102
{ACAD_REACTORS
330
C
102
}
330
C
100
AcDbDictionary
281
     1
  3
Layout1
350
1E
  3
Layout2
350
26
  3
Model
350
22
  0
DICTIONARY
  5
17
102
{ACAD_REACTORS
330
C
102
}
330
C
100
AcDbDictionary
281
     1
  3
Standard
350
18
  0
DICTIONARY
  5
19
102
{ACAD_REACTORS
330
C
102
}
330
C
100
AcDbDictionary
281
     1
  0
ACDBDICTIONARYWDFLT
  5
E
102
{ACAD_REACTORS
330
C
102
}
330
C
100
AcDbDictionary
281
     1
  3
Normal
350
F
100
AcDbDictionaryWithDefault
340
F
  0
DICTIONARY
  5
47
102
{ACAD_REACTORS
330
C
102
}
330
C
100
AcDbDictionary
281
     1
  3
A0
350
48
  3
A1
350
49
  3
A2
350
4A
  3
A3
350
4B
  3
A4
350
4C
  3
A5
350
4D
  3
A6
350
4E
  3
A7
350
4F
  3
A8
350
50
  3
A9
350
51
  3
B0
350
52
  3
B1
350
53
  3
B2
350
54
  3
B3
350
55
  3
B4
350
56
  3
B5
350
57
  3
B6
350
58
  0
XRECORD
  5
1BB
102
{ACAD_REACTORS
330
C
102
}
330
C
100
AcDbXrecord
280
     1
  1
DWGPROPS COOKIE
  2

  3

  4

  6

  7

  8
Jasper
  9

300
=
301
=
302
=
303
=
304
=
305
=
306
=
307
=
308
=
309
=
 40
0.0
 41
2460717.784603148
 42
2460717.784827732
  1

 90
        0
  0
LAYOUT
  5
1E
102
{ACAD_REACTORS
330
1A
102
}
330
1A
100
AcDbPlotSettings
  1

  2
none_device
  4

  6

 40
0.0
 41
0.0
 42
0.0
 43
0.0
 44
0.0
 45
0.0
 46
0.0
 47
0.0
 48
0.0
 49
0.0
140
0.0
141
0.0
142
1.0
143
1.0
 70
   688
 72
     1
 73
     0
 74
     5
  7

 75
    16
147
1.0
148
0.0
149
0.0
100
AcDbLayout
  1
Layout1
 70
     1
 71
     1
 10
0.0
 20
0.0
 11
420.0
 21
297.0
 12
0.0
 22
0.0
 32
0.0
 14
1.0000000000E+20
 24
1.0000000000E+20
 34
1.0000000000E+20
 15
-1.0000000000E+20
 25
-1.0000000000E+20
 35
-1.0000000000E+20
146
0.0
 13
0.0
 23
0.0
 33
0.0
 16
1.0
 26
0.0
 36
0.0
 17
0.0
 27
1.0
 37
0.0
 76
     0
330
1B
  0
LAYOUT
  5
26
102
{ACAD_REACTORS
330
1A
102
}
330
1A
100
AcDbPlotSettings
  1

  2
none_device
  4

  6

 40
0.0
 41
0.0
 42
0.0
 43
0.0
 44
0.0
 45
0.0
 46
0.0
 47
0.0
 48
0.0
 49
0.0
140
0.0
141
0.0
142
1.0
143
1.0
 70
   688
 72
     1
 73
     0
 74
     5
  7

 75
    16
147
1.0
148
0.0
149
0.0
100
AcDbLayout
  1
Layout2
 70
     1
 71
     2
 10
0.0
 20
0.0
 11
0.0
 21
0.0
 12
0.0
 22
0.0
 32
0.0
 14
0.0
 24
0.0
 34
0.0
 15
0.0
 25
0.0
 35
0.0
146
0.0
 13
0.0
 23
0.0
 33
0.0
 16
1.0
 26
0.0
 36
0.0
 17
0.0
 27
1.0
 37
0.0
 76
     0
330
23
  0
LAYOUT
  5
22
102
{ACAD_REACTORS
330
1A
102
}
330
1A
100
AcDbPlotSettings
  1

  2
none_device
  4
ANSI_A_(11.00_x_8.50_Inches)
  6

 40
6.35
 41
19.05
 42
6.35000508
 43
19.05000254
 44
279.4
 45
215.9
 46
133.34999746
 47
88.89999873
 48
0.0
 49
0.0
140
0.0
141
0.0
142
0.0311666667
143
1.0
 70
  1696
 72
     0
 73
     0
 74
     0
  7

 75
     0
147
0.0179189148
148
-1300.4909072572
149
0.0
100
AcDbLayout
  1
Model
 70
     1
 71
     0
 10
0.0
 20
0.0
 11
420.0
 21
297.0
 12
0.0
 22
0.0
 32
0.0
 14
-135.0
 24
-135.0
 34
0.0
 15
135.0
 25
135.0
 35
0.0
146
0.0
 13
0.0
 23
0.0
 33
0.0
 16
1.0
 26
0.0
 36
0.0
 17
0.0
 27
1.0
 37
0.0
 76
     0
330
1F
331
29
  0
MLINESTYLE
  5
18
102
{ACAD_REACTORS
330
17
102
}
330
17
100
AcDbMlineStyle
  2
Standard
 70
     0
  3

 62
   256
 51
90.0
 52
90.0
 71
     2
 49
0.5
 62
   256
  6
BYLAYER
 49
-0.5
 62
   256
  6
BYLAYER
  0
ACDBPLACEHOLDER
  5
F
102
{ACAD_REACTORS
330
E
102
}
330
E
  0
SCALE
  5
48
102
{ACAD_REACTORS
330
47
102
}
330
47
100
AcDbScale
 70
     0
300
1:1
140
1.0
141
1.0
290
     1
  0
SCALE
  5
49
102
{ACAD_REACTORS
330
47
102
}
330
47
100
AcDbScale
 70
     0
300
1:2
140
1.0
141
2.0
290
     0
  0
SCALE
  5
4A
102
{ACAD_REACTORS
330
47
102
}
330
47
100
AcDbScale
 70
     0
300
1:4
140
1.0
141
4.0
290
     0
  0
SCALE
  5
4B
102
{ACAD_REACTORS
330
47
102
}
330
47
100
AcDbScale
 70
     0
300
1:5
140
1.0
141
5.0
290
     0
  0
SCALE
  5
4C
102
{ACAD_REACTORS
330
47
102
}
330
47
100
AcDbScale
 70
     0
300
1:8
140
1.0
141
8.0
290
     0
  0
SCALE
  5
4D
102
{ACAD_REACTORS
330
47
102
}
330
47
100
AcDbScale
 70
     0
300
1:10
140
1.0
141
10.0
290
     0
  0
SCALE
  5
4E
102
{ACAD_REACTORS
330
47
102
}
330
47
100
AcDbScale
 70
     0
300
1:16
140
1.0
141
16.0
290
     0
  0
SCALE
  5
4F
102
{ACAD_REACTORS
330
47
102
}
330
47
100
AcDbScale
 70
     0
300
1:20
140
1.0
141
20.0
290
     0
  0
SCALE
  5
50
102
{ACAD_REACTORS
330
47
102
}
330
47
100
AcDbScale
 70
     0
300
1:30
140
1.0
141
30.0
290
     0
  0
SCALE
  5
51
102
{ACAD_REACTORS
330
47
102
}
330
47
100
AcDbScale
 70
     0
300
1:40
140
1.0
141
40.0
290
     0
  0
SCALE
  5
52
102
{ACAD_REACTORS
330
47
102
}
330
47
100
AcDbScale
 70
     0
300
1:50
140
1.0
141
50.0
290
     0
  0
SCALE
  5
53
102
{ACAD_REACTORS
330
47
102
}
330
47
100
AcDbScale
 70
     0
300
1:100
140
1.0
141
100.0
290
     0
  0
SCALE
  5
54
102
{ACAD_REACTORS
330
47
102
}
330
47
100
AcDbScale
 70
     0
300
2:1
140
2.0
141
1.0
290
     0
  0
SCALE
  5
55
102
{ACAD_REACTORS
330
47
102
}
330
47
100
AcDbScale
 70
     0
300
4:1
140
4.0
141
1.0
290
     0
  0
SCALE
  5
56
102
{ACAD_REACTORS
330
47
102
}
330
47
100
AcDbScale
 70
     0
300
8:1
140
8.0
141
1.0
290
     0
  0
SCALE
  5
57
102
{ACAD_REACTORS
330
47
102
}
330
47
100
AcDbScale
 70
     0
300
10:1
140
10.0
141
1.0
290
     0
  0
SCALE
  5
58
102
{ACAD_REACTORS
330
47
102
}
330
47
100
AcDbScale
 70
     0
300
100:1
140
100.0
141
1.0
290
     0
  0
ENDSEC
  0
EOF
